{
.appVersion = "3151";
.formatVersion = 3;
classes = (
{
code = "zero one two three four five six seven eight nine A B C D E F G H I J K L M N O P Q R S T U V W X Y Z uni0410 uni0411 uni0412 uni0413 uni0414 uni0415 uni0416 uni0417 uni0418 uni0419 uni041A uni041B uni041C uni041D uni041E uni041F uni0420 uni0421 uni0422 uni0423 uni0424 uni0425 uni0426 uni0427 uni0428 uni0429 uni042A uni042B uni042C uni042D uni042E uni042F uni0401 K_alt W_alt Acircumflex Adieresis Ccedilla Ecircumflex Icircumflex Odieresis Udieresis Abreve Idotaccent Scedilla uni0162 uni0218 uni021A uni04C1";
name = calt1;
},
{
code = "o a c d e g q s u y t acircumflex adieresis ccedilla ecircumflex odieresis udieresis u_alt y_alt s_alt c_alt t_alt t2.alt g_alt a_alt abreve scedilla uni0163 uni0219 uni021B uni0430 uni0431 uni0435 uni0437 uni043E uni0441 uni0444 uni044D uni0451 space zero one three five six seven eight nine f v endash emdash uni00AD hyphen.uc uni00AD.uc endash.uc emdash.uc minus hyphen t0163.alt t021b.alt a2_alt a00E2.alt a00E4.alt a0103.alt";
name = calt2;
},
{
code = "uniE000 uniE001 uniE002 uniE003 uniE004 uniE005 uniE006 uniE007 uniE008 uniE009 uniE010 uniE011 uniE012 uniE013 uniE014 uniE015 uniE016 uniE017 uniE018 uniE019 uniE020 uniE021 uniE022";
name = tnum1;
},
{
code = "zero one two three four five six seven eight nine period comma colon semicolon quotesingle quotedbl quoteright quotedblright quoteleft quotedblleft quotesinglbase quotedblbase colon.uc";
name = pnum1;
}
);
customParameters = (
{
name = glyphOrder;
value = (
.notdef,
NULL,
uni000D,
space,
E,
F,
H,
I,
L,
M,
N,
P,
R,
U,
V,
W,
X,
Y,
Z,
b,
d,
h,
i,
l,
m,
n,
p,
q,
u,
v,
w,
x,
z,
period,
comma,
A,
breve,
circumflex,
uni0326,
exclam,
quotedbl,
quotesingle,
numbersign,
percent,
asterisk,
plus,
slash,
colon,
semicolon,
less,
equal,
greater,
at,
bracketleft,
bracketright,
backslash,
asciicircum,
underscore,
braceleft,
bar,
braceright,
Euro,
quotedblbase,
quotesinglbase,
quotedblright,
quoteright,
quotedblleft,
quoteleft,

glyphs = (
{
glyphname = .notdef;
layers = (
{
layerId = "8A13BB0F-AA4F-467F-8A3A-5853E02CF1B4";
shapes = (
{
closed = 1;
nodes = (
(20,960,l),
(520,960,l),
(520,-295,l),
(20,-295,l)
);
},
{
closed = 1;
nodes = (
(30,-285,l),
(510,-285,l),
(510,950,l),
(30,950,l)
);
}
);
width = 540;
}
);
},
{
glyphname = E;
kernLeft = _kern1;
layers = (
{
layerId = "8A13BB0F-AA4F-467F-8A3A-5853E02CF1B4";
shapes = (
{
closed = 1;
nodes = (
(82,707,l),
(573,707,l),
(573,603,l),
(198,603,l),
(198,402,l),
(530,402,l),
(530,297,l),
(198,297,l),
(198,103,l),
(573,103,l),
(573,0,l),
(82,0,l)
);
}
);
width = 616;
}
);
unicode = 69;
},
{
glyphname = F;
kernLeft = _kern1;
layers = (
{
layerId = "8A13BB0F-AA4F-467F-8A3A-5853E02CF1B4";
shapes = (
{
closed = 1;
nodes = (
(82,0,l),
(82,707,l),
(567,707,l),
(567,603,l),
(198,603,l),
(198,379,l),
(514,379,l),
(514,276,l),
(198,276,l),
(198,0,l)
);
}
);
width = 599;
}
);
unicode = 70;
},
{
glyphname = H;
kernLeft = _kern1;
kernRight = _kern2;
layers = (
{
layerId = "8A13BB0F-AA4F-467F-8A3A-5853E02CF1B4";
shapes = (
{
closed = 1;
nodes = (
(544,400,l),
(544,707,l),
(660,707,l),
(660,0,l),
(544,0,l),
(544,296,l),
(198,296,l),
(198,0,l),
(82,0,l),
(82,707,l),
(198,707,l),
(198,400,l)
);
}
);
width = 742;
}
);
unicode = 72;
},
{
glyphname = I;
kernLeft = _kern1;
kernRight = _kern2;
layers = (
{
layerId = "8A13BB0F-AA4F-467F-8A3A-5853E02CF1B4";
shapes = (
{
closed = 1;
nodes = (
(198,0,l),
(82,0,l),
(82,707,l),
(198,707,l)
);
}
);
width = 280;
}
);
unicode = 73;
},
{
glyphname = L;
layers = (
{
layerId = "8A13BB0F-AA4F-467F-8A3A-5853E02CF1B4";
shapes = (
{
closed = 1;
nodes = (
(82,707,l),
(197,707,l),
(197,103,l),
(565,103,l),
(565,0,l),
(82,0,l)
);
}
);
width = 600;
}
);
unicode = 76;
},
{
glyphname = M;
kernLeft = _kern1;
kernRight = _kern2;
layers = (
{
layerId = "8A13BB0F-AA4F-467F-8A3A-5853E02CF1B4";
shapes = (
{
closed = 1;
nodes = (
(82,0,l),
(82,707,l),
(228,707,l),
(439,345,l),
(648,707,l),
(790,707,l),
(790,0,l),
(675,0,l),
(675,551,l),
(462,184,l),
(410,184,l),
(197,551,l),
(197,0,l)
);
}
);
width = 872;
}
);
unicode = 77;
},
{
glyphname = N;
kernLeft = _kern1;
kernRight = _kern2;
layers = (
{
layerId = "8A13BB0F-AA4F-467F-8A3A-5853E02CF1B4";
shapes = (
{
closed = 1;
nodes = (
(82,0,l),
(82,707,l),
(207,707,l),
(559,176,l),
(559,707,l),
(674,707,l),
(674,0,l),
(550,0,l),
(196,529,l),
(196,0,l)
);
}
);
width = 756;
}
);
unicode = 78;
},
{
glyphname = P;
kernLeft = _kern1;
layers = (
{
layerId = "8A13BB0F-AA4F-467F-8A3A-5853E02CF1B4";
shapes = (
{
closed = 1;
nodes = (
(82,707,l),
(341,707,ls),
(503,707,o),
(605,638,o),
(605,467,cs),
(605,309,o),
(496,222,o),
(337,222,cs),
(198,222,l),
(198,0,l),
(82,0,l)
);
},
{
closed = 1;
nodes = (
(331,324,ls),
(420,324,o),
(489,367,o),
(489,462,cs),
(489,562,o),
(437,603,o),
(338,603,cs),
(198,603,l),
(198,324,l)
);
}
);
width = 649;
}
);
unicode = 80;
},
{
glyphname = R;
kernLeft = _kern1;
layers = (
{
layerId = "8A13BB0F-AA4F-467F-8A3A-5853E02CF1B4";
shapes = (
{
closed = 1;
nodes = (
(198,259,l),
(198,0,l),
(82,0,l),
(82,707,l),
(357,707,ls),
(504,707,o),
(620,653,o),
(620,484,cs),
(620,368,o),
(549,295,o),
(465,274,c),
(618,0,l),
(489,0,l),
(347,259,l)
);
},
{
closed = 1;
nodes = (
(341,360,ls),
(433,360,o),
(504,387,o),
(504,487,cs),
(504,577,o),
(445,603,o),
(353,603,cs),
(198,603,l),
(198,360,l)
);
}
);
width = 668;
}
);
unicode = 82;
},
{
glyphname = U;
layers = (
{
layerId = "8A13BB0F-AA4F-467F-8A3A-5853E02CF1B4";
shapes = (
{
closed = 1;
nodes = (
(664,707,l),
(664,316,ls),
(664,127,o),
(581,-8,o),
(371,-8,cs),
(161,-8,o),
(77,125,o),
(77,316,cs),
(77,707,l),
(193,707,l),
(193,312,ls),
(193,196,o),
(237,96,o),
(372,96,cs),
(506,96,o),
(548,197,o),
(548,312,cs),
(548,707,l)
);
}
);
width = 741;
}
);
unicode = 85;
},
{
glyphname = V;
layers = (
{
layerId = "8A13BB0F-AA4F-467F-8A3A-5853E02CF1B4";
shapes = (
{
closed = 1;
nodes = (
(137,707,l),
(348,124,l),
(558,707,l),
(683,707,l),
(417,0,l),
(276,0,l),
(9,707,l)
);
}
);
width = 692;
}
);
unicode = 86;
},
{
glyphname = W;
kernLeft = _kern19;
kernRight = _kern19;
layers = (
{
layerId = "8A13BB0F-AA4F-467F-8A3A-5853E02CF1B4";
shapes = (
{
closed = 1;
nodes = (
(573,707,l),
(700,115,l),
(834,707,l),
(959,707,l),
(781,0,l),
(617,0,l),
(488,590,l),
(359,0,l),
(193,0,l),
(9,707,l),
(141,707,l),
(278,115,l),
(407,707,l)
);
}
);
width = 968;
}
);
unicode = 87;
},
{
glyphname = X;
layers = (
{
layerId = "8A13BB0F-AA4F-467F-8A3A-5853E02CF1B4";
shapes = (
{
closed = 1;
nodes = (
(477,707,l),
(613,707,l),
(386,355,l),
(620,0,l),
(483,0,l),
(314,263,l),
(141,0,l),
(9,0,l),
(244,354,l),
(16,707,l),
(154,707,l),
(316,444,l)
);
}
);
width = 629;
}
);
unicode = 88;
},
{
glyphname = Y;
kernLeft = _kern31;
kernRight = _kern31;
layers = (
{
layerId = "8A13BB0F-AA4F-467F-8A3A-5853E02CF1B4";
shapes = (
{
closed = 1;
nodes = (
(507,707,l),
(638,707,l),
(383,265,l),
(383,0,l),
(267,0,l),
(267,264,l),
(9,707,l),
(143,707,l),
(326,377,l)
);
}
);
width = 647;
}
);
unicode = 89;
},
{
glyphname = Z;
layers = (
{
layerId = "8A13BB0F-AA4F-467F-8A3A-5853E02CF1B4";
shapes = (
{
closed = 1;
nodes = (
(50,603,l),
(50,707,l),
(575,707,l),
(575,616,l),
(185,103,l),
(568,103,l),
(568,0,l),
(39,0,l),
(39,92,l),
(427,603,l)
);
}
);
width = 614;
}
);
unicode = 90;
},
{
glyphname = b;
kernRight = _kern6;
layers = (
{
layerId = "8A13BB0F-AA4F-467F-8A3A-5853E02CF1B4";
shapes = (
{
closed = 1;
nodes = (
(62,0,l),
(62,707,l),
(176,707,l),
(176,453,l),
(215,506,o),
(284,536,o),
(349,536,cs),
(496,536,o),
(581,428,o),
(581,265,cs),
(581,113,o),
(506,-7,o),
(349,-7,cs),
(274,-7,o),
(216,17,o),
(176,66,c),
(174,0,l)
);
},
{
closed = 1;
nodes = (
(424,92,o),
(468,168,o),
(468,263,cs),
(468,360,o),
(424,434,o),
(323,434,cs),
(222,434,o),
(175,346,o),
(175,262,cs),
(175,173,o),
(220,92,o),
(325,92,cs)
);
}
);
width = 623;
}
);
unicode = 98;
},
{
glyphname = d;
kernLeft = _kern5;
layers = (
{
layerId = "8A13BB0F-AA4F-467F-8A3A-5853E02CF1B4";
shapes = (
{
closed = 1;
nodes = (
(561,0,l),
(454,0,l),
(448,73,l),
(409,17,o),
(349,-7,o),
(276,-7,cs),
(115,-7,o),
(42,116,o),
(42,260,cs),
(42,415,o),
(126,536,o),
(285,536,cs),
(342,536,o),
(406,521,o),
(447,470,c),
(447,707,l),
(561,707,l)
);
},
{
closed = 1;
nodes = (
(197,433,o),
(155,359,o),
(155,262,cs),
(155,167,o),
(196,91,o),
(300,91,cs),
(399,91,o),
(447,175,o),
(447,263,cs),
(447,357,o),
(402,433,o),
(298,433,cs)
);
}
);
width = 623;
}
);
unicode = 100;
},
{
glyphname = h;
layers = (
{
layerId = "8A13BB0F-AA4F-467F-8A3A-5853E02CF1B4";
shapes = (
{
closed = 1;
nodes = (
(62,0,l),
(62,707,l),
(176,707,l),
(176,452,l),
(213,508,o),
(277,536,o),
(342,536,cs),
(491,536,o),
(545,431,o),
(545,289,cs),
(545,0,l),
(431,0,l),
(431,271,ls),
(431,361,o),
(410,434,o),
(310,434,cs),
(212,434,o),
(176,341,o),
(176,258,cs),
(176,0,l)
);
}
);
width = 604;
}
);
unicode = 104;
},
{
glyphname = i;
layers = (
{
layerId = "8A13BB0F-AA4F-467F-8A3A-5853E02CF1B4";
shapes = (
{
closed = 1;
nodes = (
(168,746,o),
(199,719,o),
(199,675,cs),
(199,632,o),
(168,605,o),
(127,605,cs),
(83,605,o),
(54,632,o),
(54,675,cs),
(54,719,o),
(83,746,o),
(127,746,cs)
);
},
{
closed = 1;
nodes = (
(69,0,l),
(69,527,l),
(183,527,l),
(183,0,l)
);
}
);
width = 253;
}
);
unicode = 105;
},
{
glyphname = l;
layers = (
{
layerId = "8A13BB0F-AA4F-467F-8A3A-5853E02CF1B4";
shapes = (
{
closed = 1;
nodes = (
(62,0,l),
(62,707,l),
(176,707,l),
(176,0,l)
);
}
);
width = 238;
}
);
unicode = 108;
},
{
glyphname = m;
layers = (
{
layerId = "8A13BB0F-AA4F-467F-8A3A-5853E02CF1B4";
shapes = (
{
closed = 1;
nodes = (
(171,527,l),
(176,462,l),
(213,511,o),
(261,536,o),
(320,536,cs),
(395,536,o),
(438,503,o),
(463,451,c),
(504,507,o),
(555,536,o),
(626,536,cs),
(748,536,o),
(793,448,o),
(793,341,cs),
(793,0,l),
(679,0,l),
(679,299,ls),
(679,363,o),
(668,434,o),
(588,434,cs),
(502,434,o),
(484,348,o),
(484,278,cs),
(484,0,l),
(371,0,l),
(371,301,ls),
(371,361,o),
(364,433,o),
(282,434,cs),
(197,434,o),
(175,347,o),
(175,278,cs),
(175,0,l),
(62,0,l),
(62,527,l)
);
}
);
width = 850;
}
);
unicode = 109;
},
{
glyphname = n;
layers = (
{
layerId = "8A13BB0F-AA4F-467F-8A3A-5853E02CF1B4";
shapes = (
{
closed = 1;
nodes = (
(62,0,l),
(62,527,l),
(171,527,l),
(177,454,l),
(216,509,o),
(277,536,o),
(342,536,cs),
(491,536,o),
(545,429,o),
(545,289,cs),
(545,0,l),
(431,0,l),
(431,272,ls),
(431,361,o),
(412,434,o),
(312,434,cs),
(210,434,o),
(176,337,o),
(176,251,cs),
(176,0,l)
);
}
);
width = 604;
}
);
unicode = 110;
},
{
glyphname = p;
kernRight = _kern6;
layers = (
{
layerId = "8A13BB0F-AA4F-467F-8A3A-5853E02CF1B4";
shapes = (
{
closed = 1;
nodes = (
(62,-205,l),
(62,527,l),
(170,527,l),
(176,452,l),
(217,508,o),
(280,536,o),
(349,536,cs),
(494,536,o),
(581,430,o),
(581,265,cs),
(581,107,o),
(501,-7,o),
(347,-7,cs),
(280,-7,o),
(219,13,o),
(176,57,c),
(176,-205,l)
);
},
{
closed = 1;
nodes = (
(424,92,o),
(468,168,o),
(468,263,cs),
(468,360,o),
(424,434,o),
(323,434,cs),
(226,434,o),
(175,354,o),
(175,264,cs),
(175,169,o),
(226,92,o),
(325,92,cs)
);
}
);
width = 623;
}
);
unicode = 112;
},
{
glyphname = q;
kernLeft = _kern5;
layers = (
{
layerId = "8A13BB0F-AA4F-467F-8A3A-5853E02CF1B4";
shapes = (
{
closed = 1;
nodes = (
(561,-205,l),
(447,-205,l),
(447,58,l),
(408,13,o),
(348,-8,o),
(283,-8,cs),
(196,-8,o),
(139,23,o),
(100,72,cs),
(60,121,o),
(42,188,o),
(42,260,cs),
(42,415,o),
(120,536,o),
(292,536,cs),
(353,536,o),
(413,515,o),
(450,471,c),
(459,527,l),
(561,527,l)
);
},
{
closed = 1;
nodes = (
(197,434,o),
(155,358,o),
(155,262,cs),
(155,167,o),
(198,91,o),
(301,91,cs),
(400,91,o),
(447,174,o),
(447,262,cs),
(447,354,o),
(404,434,o),
(299,434,cs)
);
}
);
width = 623;
}
);
unicode = 113;
},
{
glyphname = u;
layers = (
{
layerId = "8A13BB0F-AA4F-467F-8A3A-5853E02CF1B4";
shapes = (
{
closed = 1;
nodes = (
(381,92,o),
(415,143,o),
(415,234,cs),
(415,527,l),
(528,527,l),
(528,230,ls),
(528,54,o),
(429,-7,o),
(293,-7,cs),
(146,-7,o),
(60,66,o),
(60,230,cs),
(60,527,l),
(173,527,l),
(173,234,ls),
(173,143,o),
(212,93,o),
(293,92,c)
);
}
);
width = 588;
}
);
unicode = 117;
},
{
glyphname = v;
layers = (
{
layerId = "8A13BB0F-AA4F-467F-8A3A-5853E02CF1B4";
shapes = (
{
closed = 1;
nodes = (
(2,527,l),
(128,527,l),
(274,109,l),
(419,527,l),
(545,527,l),
(347,0,l),
(200,0,l)
);
}
);
width = 547;
}
);
unicode = 118;
},
{
glyphname = w;
kernLeft = _kern20;
kernRight = _kern20;
layers = (
{
layerId = "8A13BB0F-AA4F-467F-8A3A-5853E02CF1B4";
shapes = (
{
closed = 1;
nodes = (
(7,527,l),
(133,527,l),
(243,121,l),
(362,527,l),
(490,527,l),
(609,121,l),
(719,527,l),
(841,527,l),
(677,0,l),
(543,0,l),
(424,388,l),
(308,0,l),
(170,0,l)
);
}
);
width = 848;
}
);
unicode = 119;
},
{
glyphname = x;
layers = (
{
layerId = "8A13BB0F-AA4F-467F-8A3A-5853E02CF1B4";
shapes = (
{
closed = 1;
nodes = (
(387,0,l),
(259,188,l),
(135,0,l),
(9,0,l),
(190,268,l),
(18,527,l),
(150,527,l),
(265,341,l),
(377,527,l),
(507,527,l),
(333,265,l),
(518,0,l)
);
}
);
width = 527;
}
);
unicode = 120;
},
{
glyphname = z;
layers = (
{
layerId = "8A13BB0F-AA4F-467F-8A3A-5853E02CF1B4";
shapes = (
{
closed = 1;
nodes = (
(474,440,l),
(186,98,l),
(474,98,l),
(474,0,l),
(42,0,l),
(42,87,l),
(328,428,l),
(42,428,l),
(42,527,l),
(474,527,l)
);
}
);
width = 517;
}
);
unicode = 122;
},
{
glyphname = period;
kernLeft = _kern14;
kernRight = _kern14;
layers = (
{
layerId = "8A13BB0F-AA4F-467F-8A3A-5853E02CF1B4";
shapes = (
{
closed = 1;
nodes = (
(178,139,o),
(208,110,o),
(208,65,cs),
(208,18,o),
(178,-8,o),
(135,-8,cs),
(92,-8,o),
(62,18,o),
(62,65,cs),
(62,110,o),
(92,139,o),
(135,139,cs)
);
}
);
width = 270;
}
);
unicode = 46;
},
{
glyphname = comma;
kernLeft = _kern14;
kernRight = _kern14;
layers = (
{
layerId = "8A13BB0F-AA4F-467F-8A3A-5853E02CF1B4";
shapes = (
{
closed = 1;
nodes = (
(94,-5,o),
(65,20,o),
(65,63,cs),
(65,110,o),
(98,135,o),
(142,135,cs),
(195,135,o),
(221,90,o),
(221,42,cs),
(221,-36,o),
(170,-124,o),
(92,-149,c),
(62,-108,l),
(94,-85,o),
(123,-49,o),
(134,-8,c)
);
}
);
width = 283;
}
);
unicode = 44;
},
{
glyphname = A;
kernLeft = _kern30;
kernRight = _kern30;
layers = (
{
layerId = "8A13BB0F-AA4F-467F-8A3A-5853E02CF1B4";
shapes = (
{
closed = 1;
nodes = (
(557,0,l),
(505,143,l),
(184,143,l),
(131,0,l),
(5,0,l),
(273,707,l),
(417,707,l),
(684,0,l)
);
},
{
closed = 1;
nodes = (
(469,247,l),
(345,593,l),
(220,247,l)
);
}
);
width = 689;
}
);
unicode = 65;
},
{
glyphname = breve;
layers = (
{
layerId = "8A13BB0F-AA4F-467F-8A3A-5853E02CF1B4";
shapes = (
{
closed = 1;
nodes = (
(208,743,l),
(211,692,o),
(246,675,o),
(293,675,cs),
(340,675,o),
(375,692,o),
(378,743,c),
(472,743,l),
(469,636,o),
(390,595,o),
(292,595,cs),
(193,595,o),
(117,635,o),
(114,743,c)
);
}
);
width = 586;
}
);
unicode = 728;
},
{
glyphname = circumflex;
layers = (
{
layerId = "8A13BB0F-AA4F-467F-8A3A-5853E02CF1B4";
shapes = (
{
closed = 1;
nodes = (
(466,599,l),
(360,599,l),
(286,692,l),
(213,599,l),
(108,599,l),
(249,769,l),
(323,769,l)
);
}
);
width = 574;
}
);
unicode = 710;
},
{
glyphname = uni0326;
layers = (
{
layerId = "8A13BB0F-AA4F-467F-8A3A-5853E02CF1B4";
shapes = (
{
closed = 1;
nodes = (
(-334,-186,o),
(-358,-165,o),
(-358,-132,cs),
(-358,-97,o),
(-331,-74,o),
(-296,-74,cs),
(-249,-74,o),
(-227,-111,o),
(-227,-152,cs),
(-227,-214,o),
(-275,-282,o),
(-336,-303,c),
(-360,-270,l),
(-333,-251,o),
(-307,-222,o),
(-299,-189,c)
);
}
);
width = 0;
}
);
unicode = 806;
},
{
glyphname = exclam;
layers = (
{
layerId = "8A13BB0F-AA4F-467F-8A3A-5853E02CF1B4";
shapes = (
{
closed = 1;
nodes = (
(96,225,l),
(83,707,l),
(206,707,l),
(193,225,l)
);
},
{
closed = 1;
nodes = (
(189,137,o),
(218,107,o),
(218,63,cs),
(218,20,o),
(188,-8,o),
(145,-8,cs),
(101,-8,o),
(72,19,o),
(72,63,cs),
(72,107,o),
(101,137,o),
(145,137,cs)
);
}
);
width = 290;
}
);
unicode = 33;
},
{
glyphname = quotedbl;
layers = (
{
layerId = "8A13BB0F-AA4F-467F-8A3A-5853E02CF1B4";
shapes = (
{
closed = 1;
nodes = (
(152,455,l),
(67,455,l),
(54,707,l),
(165,707,l)
);
},
{
closed = 1;
nodes = (
(321,455,l),
(236,455,l),
(223,707,l),
(335,707,l)
);
}
);
width = 389;
}
);
unicode = 34;
},
{
glyphname = quotesingle;
layers = (
{
layerId = "8A13BB0F-AA4F-467F-8A3A-5853E02CF1B4";
shapes = (
{
closed = 1;
nodes = (
(160,455,l),
(75,455,l),
(62,707,l),
(173,707,l)
);
}
);
width = 235;
}
);
unicode = 39;
},
{
glyphname = numbersign;
layers = (
{
layerId = "8A13BB0F-AA4F-467F-8A3A-5853E02CF1B4";
shapes = (
{
closed = 1;
nodes = (
(190,531,l),
(209,707,l),
(309,707,l),
(289,531,l),
(408,531,l),
(428,707,l),
(528,707,l),
(509,531,l),
(604,531,l),
(604,433,l),
(498,433,l),
(480,273,l),
(575,273,l),
(575,175,l),
(469,175,l),
(449,0,l),
(349,0,l),
(369,175,l),
(249,175,l),
(230,0,l),
(129,0,l),
(149,175,l),
(54,175,l),
(54,273,l),
(160,273,l),
(178,433,l),
(83,433,l),
(83,531,l)
);
},
{
closed = 1;
nodes = (
(260,273,l),
(380,273,l),
(397,433,l),
(278,433,l)
);
}
);
width = 658;
}
);
unicode = 35;
},
{
glyphname = percent;
layers = (
{
layerId = "8A13BB0F-AA4F-467F-8A3A-5853E02CF1B4";
shapes = (
{
closed = 1;
nodes = (
(109,389,o),
(54,462,o),
(54,554,cs),
(54,650,o),
(109,719,o),
(213,719,cs),
(314,719,o),
(370,650,o),
(370,554,cs),
(370,462,o),
(313,389,o),
(213,389,cs)
);
},
{
closed = 1;
nodes = (
(136,0,l),
(580,707,l),
(694,707,l),
(250,0,l)
);
},
{
closed = 1;
nodes = (
(162,632,o),
(145,595,o),
(145,554,cs),
(145,511,o),
(162,476,o),
(213,476,cs),
(261,476,o),
(277,513,o),
(277,554,cs),
(277,595,o),
(261,632,o),
(213,632,cs)
);
},
{
closed = 1;
nodes = (
(519,-11,o),
(464,62,o),
(464,154,cs),
(464,250,o),
(519,319,o),
(623,319,cs),
(724,319,o),
(781,250,o),
(781,154,cs),
(781,62,o),
(724,-11,o),
(623,-11,cs)
);
},
{
closed = 1;
nodes = (
(574,232,o),
(555,197,o),
(555,154,cs),
(555,111,o),
(574,76,o),
(622,76,cs),
(671,76,o),
(687,113,o),
(687,154,cs),
(687,196,o),
(673,232,o),
(622,232,cs)
);
}
);
width = 835;
}
);
unicode = 37;
},
{
glyphname = asterisk;
layers = (
{
layerId = "8A13BB0F-AA4F-467F-8A3A-5853E02CF1B4";
shapes = (
{
closed = 1;
nodes = (
(259,729,l),
(259,630,l),
(353,661,l),
(377,587,l),
(282,556,l),
(342,475,l),
(279,429,l),
(220,510,l),
(162,430,l),
(98,476,l),
(161,559,l),
(64,589,l),
(87,661,l),
(181,630,l),
(181,729,l)
);
}
);
width = 441;
}
);
unicode = 42;
},
{
glyphname = plus;
layers = (
{
layerId = "8A13BB0F-AA4F-467F-8A3A-5853E02CF1B4";
shapes = (
{
closed = 1;
nodes = (
(69,406,l),
(233,406,l),
(233,573,l),
(330,573,l),
(330,406,l),
(495,406,l),
(495,308,l),
(330,308,l),
(330,140,l),
(233,140,l),
(233,308,l),
(69,308,l)
);
}
);
width = 564;
}
);
unicode = 43;
},
{
glyphname = slash;
layers = (
{
layerId = "8A13BB0F-AA4F-467F-8A3A-5853E02CF1B4";
shapes = (
{
closed = 1;
nodes = (
(339,792,l),
(452,792,l),
(146,-169,l),
(34,-169,l)
);
}
);
width = 486;
}
);
unicode = 47;
},
{
glyphname = colon;
kernLeft = _kern15;
layers = (
{
layerId = "8A13BB0F-AA4F-467F-8A3A-5853E02CF1B4";
shapes = (
{
closed = 1;
nodes = (
(179,496,o),
(208,466,o),
(208,422,cs),
(208,375,o),
(178,349,o),
(135,349,cs),
(91,349,o),
(62,375,o),
(62,422,cs),
(62,466,o),
(91,496,o),
(135,496,cs)
);
},
{
closed = 1;
nodes = (
(179,138,o),
(208,108,o),
(208,64,cs),
(208,19,o),
(178,-9,o),
(135,-9,cs),
(91,-9,o),
(62,19,o),
(62,64,cs),
(62,108,o),
(91,138,o),
(135,138,cs)
);
}
);
width = 270;
}
);
unicode = 58;
},
{
glyphname = semicolon;
kernLeft = _kern15;
layers = (
{
layerId = "8A13BB0F-AA4F-467F-8A3A-5853E02CF1B4";
shapes = (
{
closed = 1;
nodes = (
(187,496,o),
(216,466,o),
(216,422,cs),
(216,375,o),
(187,349,o),
(143,349,cs),
(98,349,o),
(70,375,o),
(70,422,cs),
(70,466,o),
(98,496,o),
(143,496,cs)
);
},
{
closed = 1;
nodes = (
(92,-4,o),
(65,23,o),
(65,64,cs),
(65,112,o),
(97,136,o),
(142,136,cs),
(201,136,o),
(221,82,o),
(221,35,cs),
(221,-40,o),
(161,-125,o),
(92,-149,c),
(62,-107,l),
(95,-84,o),
(124,-47,o),
(133,-7,c)
);
}
);
width = 283;
}
);
unicode = 59;
},
{
glyphname = less;
layers = (
{
layerId = "8A13BB0F-AA4F-467F-8A3A-5853E02CF1B4";
shapes = (
{
closed = 1;
nodes = (
(34,382,l),
(403,621,l),
(403,506,l),
(165,357,l),
(403,206,l),
(403,90,l),
(34,327,l)
);
}
);
width = 467;
}
);
unicode = 60;
},
{
glyphname = equal;
layers = (
{
layerId = "8A13BB0F-AA4F-467F-8A3A-5853E02CF1B4";
shapes = (
{
closed = 1;
nodes = (
(64,534,l),
(490,534,l),
(490,436,l),
(64,436,l)
);
},
{
closed = 1;
nodes = (
(64,278,l),
(490,278,l),
(490,180,l),
(64,180,l)
);
}
);
width = 554;
}
);
unicode = 61;
},
{
glyphname = greater;
layers = (
{
layerId = "8A13BB0F-AA4F-467F-8A3A-5853E02CF1B4";
shapes = (
{
closed = 1;
nodes = (
(433,329,l),
(64,90,l),
(64,205,l),
(302,355,l),
(64,505,l),
(64,621,l),
(433,384,l)
);
}
);
width = 467;
}
);
unicode = 62;
},
{
glyphname = at;
layers = (
{
layerId = "8A13BB0F-AA4F-467F-8A3A-5853E02CF1B4";
shapes = (
{
closed = 1;
nodes = (
(581,65,o),
(525,44,o),
(468,44,cs),
(343,44,o),
(284,142,o),
(284,255,cs),
(284,386,o),
(366,498,o),
(501,498,cs),
(548,498,o),
(605,480,o),
(627,431,c),
(651,479,l),
(717,471,l),
(704,398,o),
(695,325,o),
(687,250,cs),
(681,202,o),
(677,126,o),
(744,126,cs),
(815,126,o),
(831,225,o),
(831,296,cs),
(831,496,o),
(717,627,o),
(525,627,cs),
(291,627,o),
(169,468,o),
(169,260,cs),
(169,64,o),
(286,-76,o),
(492,-76,cs),
(543,-76,o),
(562,-72,o),
(605,-64,c),
(616,-163,l),
(571,-174,o),
(535,-177,o),
(484,-177,cs),
(225,-177,o),
(65,-2,o),
(65,244,cs),
(65,536,o),
(249,722,o),
(522,722,cs),
(769,722,o),
(927,550,o),
(927,315,cs),
(927,194,o),
(891,39,o),
(742,39,cs),
(685,39,o),
(637,65,o),
(617,117,c)
);
},
{
closed = 1;
nodes = (
(416,410,o),
(378,329,o),
(378,253,cs),
(378,197,o),
(405,130,o),
(479,130,cs),
(566,130,o),
(599,223,o),
(599,292,cs),
(599,352,o),
(571,410,o),
(503,410,cs)
);
}
);
width = 991;
}
);
unicode = 64;
},
{
glyphname = bracketleft;
layers = (
{
layerId = "8A13BB0F-AA4F-467F-8A3A-5853E02CF1B4";
shapes = (
{
closed = 1;
nodes = (
(82,-178,l),
(82,787,l),
(307,787,l),
(307,693,l),
(191,693,l),
(191,-84,l),
(307,-84,l),
(307,-178,l)
);
}
);
width = 337;
}
);
unicode = 91;
},
{
glyphname = bracketright;
layers = (
{
layerId = "8A13BB0F-AA4F-467F-8A3A-5853E02CF1B4";
shapes = (
{
closed = 1;
nodes = (
(255,787,l),
(255,-178,l),
(30,-178,l),
(30,-84,l),
(146,-84,l),
(146,693,l),
(30,693,l),
(30,787,l)
);
}
);
width = 337;
}
);
unicode = 93;
},
{
glyphname = backslash;
layers = (
{
layerId = "8A13BB0F-AA4F-467F-8A3A-5853E02CF1B4";
shapes = (
{
closed = 1;
nodes = (
(339,-170,l),
(34,792,l),
(146,792,l),
(452,-170,l)
);
}
);
width = 486;
}
);
unicode = 92;
},
{
glyphname = asciicircum;
layers = (
{
layerId = "8A13BB0F-AA4F-467F-8A3A-5853E02CF1B4";
shapes = (
{
closed = 1;
nodes = (
(287,712,l),
(441,486,l),
(332,486,l),
(247,623,l),
(160,486,l),
(54,486,l),
(206,712,l)
);
}
);
width = 495;
}
);
unicode = 94;
},
{
glyphname = underscore;
layers = (
{
layerId = "8A13BB0F-AA4F-467F-8A3A-5853E02CF1B4";
shapes = (
{
closed = 1;
nodes = (
(-8,-62,l),
(451,-62,l),
(451,-159,l),
(-8,-159,l)
);
}
);
width = 443;
}
);
unicode = 95;
},
{
glyphname = braceleft;
layers = (
{
layerId = "8A13BB0F-AA4F-467F-8A3A-5853E02CF1B4";
shapes = (
{
closed = 1;
nodes = (
(288,693,ls),
(236,693,o),
(239,649,o),
(239,609,cs),
(239,433,ls),
(239,380,o),
(226,325,o),
(175,304,c),
(226,283,o),
(239,228,o),
(239,175,cs),
(239,-4,ls),
(239,-61,o),
(241,-84,o),
(288,-84,cs),
(353,-84,l),
(353,-178,l),
(257,-178,ls),
(177,-178,o),
(131,-148,o),
(131,-61,cs),
(131,147,ls),
(131,203,o),
(125,259,o),
(32,259,c),
(32,350,l),
(112,350,o),
(131,401,o),
(131,445,cs),
(131,649,ls),
(131,753,o),
(168,787,o),
(257,787,cs),
(353,787,l),
(353,693,l)
);
}
);
width = 407;
}
);
unicode = 123;
},
{
glyphname = bar;
layers = (
{
layerId = "8A13BB0F-AA4F-467F-8A3A-5853E02CF1B4";
shapes = (
{
closed = 1;
nodes = (
(82,-171,l),
(82,800,l),
(189,800,l),
(189,-171,l)
);
}
);
width = 271;
}
);
unicode = 124;
},
{
glyphname = braceright;
layers = (
{
layerId = "8A13BB0F-AA4F-467F-8A3A-5853E02CF1B4";
shapes = (
{
closed = 1;
nodes = (
(119,-84,ls),
(171,-84,o),
(168,-40,o),
(168,0,cs),
(168,176,ls),
(168,228,o),
(181,284,o),
(232,305,c),
(181,324,o),
(168,383,o),
(168,434,cs),
(168,613,ls),
(168,670,o),
(166,693,o),
(119,693,cs),
(54,693,l),
(54,787,l),
(154,787,ls),
(234,787,o),
(276,757,o),
(276,670,cs),
(276,462,ls),
(276,406,o),
(282,350,o),
(375,350,c),
(375,259,l),
(294,259,o),
(276,207,o),
(276,165,cs),
(276,-40,ls),
(276,-144,o),
(239,-178,o),
(150,-178,cs),
(54,-178,l),
(54,-84,l)
);
}
);
width = 407;
}
);
unicode = 125;
},
{
glyphname = Euro;
layers = (
{
layerId = "8A13BB0F-AA4F-467F-8A3A-5853E02CF1B4";
shapes = (
{
closed = 1;
nodes = (
(292,-8,o),
(190,74,o),
(151,221,c),
(44,221,l),
(60,314,l),
(139,314,l),
(138,341,o),
(137,368,o),
(141,393,c),
(47,393,l),
(63,486,l),
(154,486,l),
(194,633,o),
(294,714,o),
(449,714,cs),
(540,714,o),
(603,689,o),
(659,633,c),
(599,551,l),
(552,591,o),
(512,611,o),
(448,611,cs),
(363,611,o),
(299,566,o),
(275,486,c),
(539,486,l),
(523,393,l),
(255,393,l),
(252,368,o),
(252,339,o),
(255,314,c),
(508,314,l),
(492,221,l),
(275,221,l),
(295,141,o),
(366,94,o),
(454,94,cs),
(518,94,o),
(560,110,o),
(607,154,c),
(665,76,l),
(612,20,o),
(541,-8,o),
(452,-8,cs)
);
}
);
width = 709;
}
);
unicode = 8364;
},
{
glyphname = quotedblbase;
kernLeft = _kern14;
kernRight = _kern14;
layers = (
{
layerId = "8A13BB0F-AA4F-467F-8A3A-5853E02CF1B4";
shapes = (
{
closed = 1;
nodes = (
(91,1,o),
(65,27,o),
(65,67,cs),
(65,110,o),
(96,136,o),
(137,136,cs),
(188,136,o),
(216,89,o),
(216,44,cs),
(216,-29,o),
(157,-118,o),
(91,-139,c),
(62,-100,l),
(95,-76,o),
(122,-42,o),
(131,-2,c)
);
},
{
closed = 1;
nodes = (
(296,1,o),
(270,27,o),
(270,67,cs),
(270,110,o),
(301,136,o),
(342,136,cs),
(393,136,o),
(421,89,o),
(421,44,cs),
(421,-29,o),
(362,-118,o),
(296,-139,c),
(267,-100,l),
(300,-76,o),
(327,-42,o),
(336,-2,c)
);
}
);
width = 484;
}
);
unicode = 8222;
},
{
glyphname = quotesinglbase;
layers = (
{
layerId = "8A13BB0F-AA4F-467F-8A3A-5853E02CF1B4";
shapes = (
{
closed = 1;
nodes = (
(91,1,o),
(65,27,o),
(65,67,cs),
(65,113,o),
(98,135,o),
(140,135,cs),
(189,135,o),
(216,89,o),
(216,44,cs),
(216,-29,o),
(157,-118,o),
(91,-139,c),
(62,-100,l),
(95,-76,o),
(122,-42,o),
(131,-2,c)
);
}
);
width = 279;
}
);
unicode = 8218;
},
{
glyphname = quotedblright;
layers = (
{
layerId = "8A13BB0F-AA4F-467F-8A3A-5853E02CF1B4";
shapes = (
{
closed = 1;
nodes = (
(90,596,o),
(65,621,o),
(65,661,cs),
(65,707,o),
(97,731,o),
(140,731,cs),
(196,731,o),
(216,685,o),
(216,633,cs),
(216,561,o),
(158,477,o),
(91,456,c),
(62,496,l),
(95,519,o),
(122,554,o),
(131,593,c)
);
},
{
closed = 1;
nodes = (
(295,596,o),
(270,621,o),
(270,661,cs),
(270,707,o),
(302,731,o),
(345,731,cs),
(401,731,o),
(421,681,o),
(421,633,cs),
(421,561,o),
(363,477,o),
(296,456,c),
(267,496,l),
(300,519,o),
(327,554,o),
(336,593,c)
);
}
);
width = 484;
}
);
unicode = 8221;
},
{
glyphname = quoteright;
layers = (
{
layerId = "8A13BB0F-AA4F-467F-8A3A-5853E02CF1B4";
shapes = (
{
closed = 1;
nodes = (
(91,596,o),
(65,621,o),
(65,661,cs),
(65,706,o),
(99,731,o),
(140,731,cs),
(195,731,o),
(216,683,o),
(216,633,cs),
(216,561,o),
(157,477,o),
(91,456,c),
(62,496,l),
(95,519,o),
(122,554,o),
(131,593,c)
);
}
);
width = 279;
}
);
unicode = 8217;
},
{
glyphname = quotedblleft;
layers = (
{
layerId = "8A13BB0F-AA4F-467F-8A3A-5853E02CF1B4";
shapes = (
{
closed = 1;
nodes = (
(394,610,o),
(420,584,o),
(420,545,cs),
(420,500,o),
(387,475,o),
(351,475,cs),
(349,475,o),
(347,475,o),
(345,475,cs),
(289,475,o),
(268,526,o),
(268,573,cs),
(268,646,o),
(326,727,o),
(394,751,c),
(423,711,l),
(390,688,o),
(362,653,o),
(353,613,c)
);
},
{
closed = 1;
nodes = (
(189,610,o),
(215,584,o),
(215,545,cs),
(215,500,o),
(182,475,o),
(145,475,cs),
(143,475,o),
(141,475,o),
(139,475,cs),
(83,475,o),
(63,526,o),
(63,573,cs),
(63,646,o),
(121,727,o),
(189,751,c),
(218,711,l),
(185,688,o),
(157,653,o),
(148,613,c)
);
}
);
width = 485;
}
);
unicode = 8220;
},
{
glyphname = quoteleft;
layers = (
{
layerId = "8A13BB0F-AA4F-467F-8A3A-5853E02CF1B4";
shapes = (
{
closed = 1;
nodes = (
(188,610,o),
(214,584,o),
(214,545,cs),
(214,500,o),
(181,475,o),
(145,475,cs),
(143,475,o),
(141,475,o),
(139,475,cs),
(83,475,o),
(63,526,o),
(63,573,cs),
(63,646,o),
(122,727,o),
(188,751,c),
(217,711,l),
(184,688,o),
(157,653,o),
(148,613,c)
);
}
);
width = 279;
}
);
unicode = 8216;
},
{
glyphname = minus;
layers = (
{
layerId = "8A13BB0F-AA4F-467F-8A3A-5853E02CF1B4";
shapes = (
{
closed = 1;
nodes = (
(69,406,l),
(471,406,l),
(471,308,l),
(69,308,l)
);
}
);
width = 540;
}
);
unicode = 8722;
},
{
glyphname = hyphen;
layers = (
{
layerId = "8A13BB0F-AA4F-467F-8A3A-5853E02CF1B4";
shapes = (
{
closed = 1;
nodes = (
(69,335,l),
(388,335,l),
(388,237,l),
(69,237,l)
);
}
);
width = 457;
}
);
unicode = 45;
},
{
glyphname = endash;
layers = (
{
layerId = "8A13BB0F-AA4F-467F-8A3A-5853E02CF1B4";
shapes = (
{
closed = 1;
nodes = (
(69,335,l),
(533,335,l),
(533,237,l),
(69,237,l)
);
}
);
width = 602;
}
);
unicode = 8211;
},
{
glyphname = emdash;
layers = (
{
layerId = "8A13BB0F-AA4F-467F-8A3A-5853E02CF1B4";
shapes = (
{
closed = 1;
nodes = (
(69,335,l),
(736,335,l),
(736,237,l),
(69,237,l)
);
}
);
width = 805;
}
);
unicode = 8212;
},
{
glyphname = grave;
layers = (
{
layerId = "8A13BB0F-AA4F-467F-8A3A-5853E02CF1B4";
shapes = (
{
closed = 1;
nodes = (
(262,606,l),
(167,606,l),
(50,769,l),
(165,769,l)
);
}
);
width = 362;
}
);
unicode = 96;
},
{
glyphname = acute;
layers = (
{
layerId = "8A13BB0F-AA4F-467F-8A3A-5853E02CF1B4";
shapes = (
{
closed = 1;
nodes = (
(197,769,l),
(312,769,l),
(195,606,l),
(100,606,l)
);
}
);
width = 362;
}
);
unicode = 180;
},
{
glyphname = guillemotright;
layers = (
{
layerId = "8A13BB0F-AA4F-467F-8A3A-5853E02CF1B4";
shapes = (
{
closed = 1;
nodes = (
(54,449,l),
(171,449,l),
(291,267,l),
(171,86,l),
(54,86,l),
(176,267,l)
);
},
{
closed = 1;
nodes = (
(252,449,l),
(370,449,l),
(491,267,l),
(370,86,l),
(252,86,l),
(377,267,l)
);
}
);
width = 525;
}
);
unicode = 187;
},
{
glyphname = guilsinglright;
layers = (
{
layerId = "8A13BB0F-AA4F-467F-8A3A-5853E02CF1B4";
shapes = (
{
closed = 1;
nodes = (
(54,449,l),
(171,449,l),
(292,267,l),
(171,86,l),
(56,86,l),
(177,265,l)
);
}
);
width = 326;
}
);
unicode = 8250;
},
{
glyphname = guillemotleft;
layers = (
{
layerId = "8A13BB0F-AA4F-467F-8A3A-5853E02CF1B4";
shapes = (
{
closed = 1;
nodes = (
(272,86,l),
(154,86,l),
(34,267,l),
(154,449,l),
(272,449,l),
(147,267,l)
);
},
{
closed = 1;
nodes = (
(471,86,l),
(353,86,l),
(233,267,l),
(353,449,l),
(471,449,l),
(348,267,l)
);
}
);
width = 525;
}
);
unicode = 171;
},
{
glyphname = guilsinglleft;
layers = (
{
layerId = "8A13BB0F-AA4F-467F-8A3A-5853E02CF1B4";
shapes = (
{
closed = 1;
nodes = (
(273,86,l),
(154,86,l),
(34,267,l),
(155,449,l),
(272,449,l),
(148,270,l)
);
}
);
width = 327;
}
);
unicode = 8249;
},
{
glyphname = uni00AD;
layers = (
{
layerId = "8A13BB0F-AA4F-467F-8A3A-5853E02CF1B4";
shapes = (
{
closed = 1;
nodes = (
(69,335,l),
(386,335,l),
(386,237,l),
(69,237,l)
);
}
);
width = 455;
}
);
unicode = 173;
},
{
glyphname = ellipsis;
layers = (
{
layerId = "8A13BB0F-AA4F-467F-8A3A-5853E02CF1B4";
shapes = (
{
closed = 1;
nodes = (
(168,139,o),
(198,110,o),
(198,65,cs),
(198,18,o),
(168,-8,o),
(125,-8,cs),
(82,-8,o),
(52,18,o),
(52,65,cs),
(52,110,o),
(82,139,o),
(125,139,cs)
);
},
{
closed = 1;
nodes = (
(415,139,o),
(445,110,o),
(445,65,cs),
(445,18,o),
(415,-8,o),
(372,-8,cs),
(329,-8,o),
(299,18,o),
(299,65,cs),
(299,110,o),
(329,139,o),
(372,139,cs)
);
},
{
closed = 1;
nodes = (
(661,139,o),
(691,110,o),
(691,65,cs),
(691,18,o),
(661,-8,o),
(618,-8,cs),
(575,-8,o),
(545,18,o),
(545,65,cs),
(545,110,o),
(575,139,o),
(618,139,cs)
);
}
);
width = 743;
}
);
unicode = 8230;
},
{
glyphname = uni0445;
layers = (
{
layerId = "8A13BB0F-AA4F-467F-8A3A-5853E02CF1B4";
shapes = (
{
closed = 1;
nodes = (
(387,0,l),
(259,188,l),
(135,0,l),
(9,0,l),
(191,267,l),
(18,527,l),
(150,527,l),
(265,341,l),
(377,527,l),
(507,527,l),
(333,265,l),
(518,0,l)
);
}
);
width = 527;
}
);
unicode = 1093;
},
{
glyphname = uni0431;
kernRight = _kern10;
layers = (
{
layerId = "8A13BB0F-AA4F-467F-8A3A-5853E02CF1B4";
shapes = (
{
closed = 1;
nodes = (
(195,471,o),
(264,493,o),
(329,493,cs),
(472,493,o),
(560,399,o),
(560,256,cs),
(560,99,o),
(463,-7,o),
(303,-7,cs),
(92,-7,o),
(43,173,o),
(43,340,cs),
(43,424,o),
(51,519,o),
(91,586,cs),
(155,695,o),
(262,705,o),
(386,716,cs),
(433,720,o),
(482,724,o),
(529,740,c),
(529,631,l),
(481,610,o),
(347,606,o),
(278,596,cs),
(189,582,o),
(155,505,o),
(152,418,c)
);
},
{
closed = 1;
nodes = (
(398,92,o),
(447,165,o),
(447,244,cs),
(447,329,o),
(395,391,o),
(311,391,cs),
(224,391,o),
(165,331,o),
(165,246,cs),
(165,168,o),
(207,92,o),
(306,92,cs)
);
}
);
width = 598;
}
);
unicode = 1073;
},
{
glyphname = uni0432;
kernLeft = _kern11;
layers = (
{
layerId = "8A13BB0F-AA4F-467F-8A3A-5853E02CF1B4";
shapes = (
{
closed = 1;
nodes = (
(62,527,l),
(287,527,ls),
(381,527,o),
(491,515,o),
(491,394,cs),
(491,347,o),
(471,305,o),
(424,280,c),
(488,263,o),
(517,217,o),
(517,157,cs),
(517,43,o),
(420,0,o),
(312,0,cs),
(62,0,l)
);
},
{
closed = 1;
nodes = (
(177,432,l),
(177,311,l),
(246,311,ls),
(308,311,o),
(382,309,o),
(382,374,cs),
(382,430,o),
(326,432,o),
(285,432,cs)
);
},
{
closed = 1;
nodes = (
(293,96,ls),
(345,96,o),
(403,105,o),
(403,161,cs),
(403,212,o),
(367,225,o),
(322,225,cs),
(177,225,l),
(177,96,l)
);
}
);
width = 561;
}
);
unicode = 1074;
},
{
glyphname = uni0433;
kernLeft = _kern11;
kernRight = _kern24;
layers = (
{
layerId = "8A13BB0F-AA4F-467F-8A3A-5853E02CF1B4";
shapes = (
{
closed = 1;
nodes = (
(62,0,l),
(62,527,l),
(443,527,l),
(443,428,l),
(176,428,l),
(176,0,l)
);
}
);
width = 461;
}
);
unicode = 1075;
},
{
glyphname = uni0434;
kernRight = _kern13;
layers = (
{
layerId = "8A13BB0F-AA4F-467F-8A3A-5853E02CF1B4";
shapes = (
{
closed = 1;
nodes = (
(122,398,o),
(124,462,o),
(124,527,c),
(530,527,l),
(530,97,l),
(599,97,l),
(599,-154,l),
(488,-154,l),
(488,0,l),
(128,0,l),
(128,-154,l),
(17,-154,l),
(17,97,l),
(56,97,o),
(82,127,o),
(92,155,cs),
(110,206,o),
(117,298,o),
(120,354,cs)
);
},
{
closed = 1;
nodes = (
(416,428,l),
(228,428,l),
(225,380,o),
(224,321,o),
(222,269,cs),
(219,215,o),
(215,150,o),
(183,97,c),
(416,97,l)
);
}
);
width = 616;
}
);
unicode = 1076;
},
{
glyphname = uni0436;
layers = (
{
layerId = "8A13BB0F-AA4F-467F-8A3A-5853E02CF1B4";
shapes = (
{
closed = 1;
nodes = (
(347,0,l),
(347,213,l),
(265,213,l),
(143,0,l),
(9,0,l),
(176,276,l),
(23,527,l),
(150,527,l),
(273,311,l),
(347,311,l),
(347,527,l),
(460,527,l),
(460,311,l),
(534,311,l),
(657,527,l),
(784,527,l),
(631,276,l),
(798,0,l),
(664,0,l),
(542,213,l),
(460,213,l),
(460,0,l)
);
}
);
width = 807;
}
);
unicode = 1078;
},
{
glyphname = uni043A;
kernLeft = _kern11;
layers = (
{
layerId = "8A13BB0F-AA4F-467F-8A3A-5853E02CF1B4";
shapes = (
{
closed = 1;
nodes = (
(62,0,l),
(62,527,l),
(175,527,l),
(175,312,l),
(256,312,l),
(391,527,l),
(521,527,l),
(354,276,l),
(534,0,l),
(402,0,l),
(263,213,l),
(175,213,l),
(175,0,l)
);
}
);
width = 536;
}
);
unicode = 1082;
},
{
glyphname = uni0438;
kernLeft = _kern11;
layers = (
{
layerId = "8A13BB0F-AA4F-467F-8A3A-5853E02CF1B4";
shapes = (
{
closed = 1;
nodes = (
(168,0,l),
(62,0,l),
(62,527,l),
(176,527,l),
(176,165,l),
(444,527,l),
(547,527,l),
(547,0,l),
(433,0,l),
(433,355,l)
);
}
);
width = 609;
}
);
unicode = 1080;
},
{
glyphname = uni0439;
layers = (
{
layerId = "8A13BB0F-AA4F-467F-8A3A-5853E02CF1B4";
shapes = (
{
closed = 1;
nodes = (
(360,668,o),
(393,688,o),
(397,735,c),
(497,735,l),
(488,631,o),
(420,585,o),
(313,585,cs),
(204,585,o),
(136,631,o),
(128,735,c),
(228,735,l),
(233,688,o),
(265,668,o),
(313,668,cs)
);
},
{
closed = 1;
nodes = (
(168,0,l),
(62,0,l),
(62,527,l),
(176,527,l),
(176,165,l),
(444,527,l),
(547,527,l),
(547,0,l),
(433,0,l),
(433,354,l)
);
}
);
width = 609;
}
);
unicode = 1081;
},
{
glyphname = uni043B;
layers = (
{
layerId = "8A13BB0F-AA4F-467F-8A3A-5853E02CF1B4";
shapes = (
{
closed = 1;
nodes = (
(118,342,o),
(118,430,o),
(121,527,c),
(515,527,l),
(515,0,l),
(400,0,l),
(400,428,l),
(227,428,l),
(224,363,o),
(223,298,o),
(219,234,cs),
(216,176,o),
(210,106,o),
(177,57,cs),
(149,17,o),
(102,0,o),
(42,0,cs),
(14,0,l),
(14,98,l),
(94,98,o),
(106,184,o),
(111,251,cs)
);
}
);
width = 577;
}
);
unicode = 1083;
},
{
glyphname = uni043C;
kernLeft = _kern11;
layers = (
{
layerId = "8A13BB0F-AA4F-467F-8A3A-5853E02CF1B4";
shapes = (
{
closed = 1;
nodes = (
(62,527,l),
(199,527,l),
(358,276,l),
(516,527,l),
(650,527,l),
(650,0,l),
(538,0,l),
(538,378,l),
(371,118,l),
(344,118,l),
(174,378,l),
(174,0,l),
(62,0,l)
);
}
);
width = 713;
}
);
unicode = 1084;
},
{
glyphname = uni043D;
kernLeft = _kern11;
layers = (
{
layerId = "8A13BB0F-AA4F-467F-8A3A-5853E02CF1B4";
shapes = (
{
closed = 1;
nodes = (
(62,0,l),
(62,527,l),
(176,527,l),
(176,310,l),
(410,310,l),
(410,527,l),
(524,527,l),
(524,0,l),
(410,0,l),
(410,211,l),
(176,211,l),
(176,0,l)
);
}
);
width = 586;
}
);
unicode = 1085;
},
{
glyphname = uni043F;
kernLeft = _kern11;
layers = (
{
layerId = "8A13BB0F-AA4F-467F-8A3A-5853E02CF1B4";
shapes = (
{
closed = 1;
nodes = (
(62,0,l),
(62,527,l),
(524,527,l),
(524,0,l),
(410,0,l),
(410,428,l),
(176,428,l),
(176,0,l)
);
}
);
width = 586;
}
);
unicode = 1087;
},
{
glyphname = uni0442;
layers = (
{
layerId = "8A13BB0F-AA4F-467F-8A3A-5853E02CF1B4";
shapes = (
{
closed = 1;
nodes = (
(473,527,l),
(473,428,l),
(295,428,l),
(295,0,l),
(182,0,l),
(182,428,l),
(4,428,l),
(4,527,l)
);
}
);
width = 477;
}
);
unicode = 1090;
},
{
glyphname = uni0444;
kernLeft = _kern9;
kernRight = _kern10;
layers = (
{
layerId = "8A13BB0F-AA4F-467F-8A3A-5853E02CF1B4";
shapes = (
{
closed = 1;
nodes = (
(322,703,l),
(435,703,l),
(435,535,l),
(602,532,o),
(719,440,o),
(719,261,cs),
(719,82,o),
(599,-4,o),
(435,-7,c),
(435,-200,l),
(322,-200,l),
(322,-7,l),
(156,-4,o),
(38,82,o),
(38,259,cs),
(38,438,o),
(146,535,o),
(322,535,c)
);
},
{
closed = 1;
nodes = (
(435,89,l),
(547,89,o),
(604,151,o),
(604,263,cs),
(604,378,o),
(544,437,o),
(435,437,c)
);
},
{
closed = 1;
nodes = (
(322,437,l),
(211,437,o),
(153,378,o),
(153,263,cs),
(153,150,o),
(210,90,o),
(322,89,c)
);
}
);
width = 757;
}
);
unicode = 1092;
},
{
glyphname = uni0446;
kernLeft = _kern11;
kernRight = _kern13;
layers = (
{
layerId = "8A13BB0F-AA4F-467F-8A3A-5853E02CF1B4";
shapes = (
{
closed = 1;
nodes = (
(405,97,l),
(405,527,l),
(519,527,l),
(519,97,l),
(590,97,l),
(590,-154,l),
(478,-154,l),
(478,0,l),
(62,0,l),
(62,527,l),
(175,527,l),
(175,97,l)
);
}
);
width = 607;
}
);
unicode = 1094;
},
{
glyphname = uni0447;
kernLeft = _kern11;
layers = (
{
layerId = "8A13BB0F-AA4F-467F-8A3A-5853E02CF1B4";
shapes = (
{
closed = 1;
nodes = (
(39,527,l),
(153,527,l),
(153,423,ls),
(153,318,o),
(165,279,o),
(269,279,cs),
(302,279,o),
(346,283,o),
(371,287,c),
(371,527,l),
(484,527,l),
(484,0,l),
(371,0,l),
(371,187,l),
(327,182,o),
(288,180,o),
(243,180,cs),
(118,180,o),
(39,235,o),
(39,395,cs)
);
}
);
width = 547;
}
);
unicode = 1095;
},
{
glyphname = uni0448;
kernLeft = _kern11;
layers = (
{
layerId = "8A13BB0F-AA4F-467F-8A3A-5853E02CF1B4";
shapes = (
{
closed = 1;
nodes = (
(62,527,l),
(176,527,l),
(176,97,l),
(352,97,l),
(352,527,l),
(465,527,l),
(465,97,l),
(642,97,l),
(642,527,l),
(756,527,l),
(756,0,l),
(62,0,l)
);
}
);
width = 818;
}
);
unicode = 1096;
},
{
glyphname = uni0449;
kernLeft = _kern11;
kernRight = _kern13;
layers = (
{
layerId = "8A13BB0F-AA4F-467F-8A3A-5853E02CF1B4";
shapes = (
{
closed = 1;
nodes = (
(62,527,l),
(176,527,l),
(176,97,l),
(352,97,l),
(352,527,l),
(465,527,l),
(465,97,l),
(642,97,l),
(642,527,l),
(756,527,l),
(756,97,l),
(826,97,l),
(826,-154,l),
(716,-154,l),
(716,0,l),
(62,0,l)
);
}
);
width = 843;
}
);
unicode = 1097;
},
{
glyphname = uni044A;
layers = (
{
layerId = "8A13BB0F-AA4F-467F-8A3A-5853E02CF1B4";
shapes = (
{
closed = 1;
nodes = (
(136,428,l),
(9,428,l),
(9,527,l),
(250,527,l),
(250,349,l),
(367,349,ls),
(484,349,o),
(572,309,o),
(572,185,cs),
(572,40,o),
(460,0,o),
(352,0,cs),
(136,0,l)
);
},
{
closed = 1;
nodes = (
(345,96,ls),
(401,96,o),
(459,114,o),
(459,177,cs),
(459,253,o),
(382,251,o),
(337,251,cs),
(250,251,l),
(250,96,l)
);
}
);
width = 607;
}
);
unicode = 1098;
},
{
glyphname = uni044B;
kernLeft = _kern11;
layers = (
{
layerId = "8A13BB0F-AA4F-467F-8A3A-5853E02CF1B4";
shapes = (
{
closed = 1;
nodes = (
(62,527,l),
(177,527,l),
(177,349,l),
(272,349,ls),
(389,349,o),
(479,310,o),
(479,182,cs),
(479,37,o),
(361,0,o),
(256,0,cs),
(62,0,l)
);
},
{
closed = 1;
nodes = (
(547,0,l),
(547,527,l),
(660,527,l),
(660,0,l)
);
},
{
closed = 1;
nodes = (
(246,95,l),
(307,95,o),
(366,108,o),
(366,177,cs),
(366,237,o),
(322,248,o),
(278,251,c),
(177,251,l),
(177,96,l)
);
}
);
width = 723;
}
);
unicode = 1099;
},
{
glyphname = uni044C;
kernLeft = _kern11;
layers = (
{
layerId = "8A13BB0F-AA4F-467F-8A3A-5853E02CF1B4";
shapes = (
{
closed = 1;
nodes = (
(62,527,l),
(176,527,l),
(176,349,l),
(294,349,ls),
(415,349,o),
(501,310,o),
(501,183,cs),
(501,41,o),
(387,0,o),
(278,0,cs),
(62,0,l)
);
},
{
closed = 1;
nodes = (
(265,95,l),
(328,95,o),
(388,108,o),
(388,177,cs),
(388,252,o),
(316,251,o),
(267,251,cs),
(176,251,l),
(176,96,l)
);
}
);
width = 541;
}
);
unicode = 1100;
},
{
glyphname = uni044E;
kernLeft = _kern11;
kernRight = _kern10;
layers = (
{
layerId = "8A13BB0F-AA4F-467F-8A3A-5853E02CF1B4";
shapes = (
{
closed = 1;
nodes = (
(666,536,o),
(755,425,o),
(755,263,cs),
(755,99,o),
(670,-7,o),
(500,-7,cs),
(348,-7,o),
(268,78,o),
(253,214,c),
(176,214,l),
(176,0,l),
(62,0,l),
(62,527,l),
(176,527,l),
(176,313,l),
(253,313,l),
(269,448,o),
(349,536,o),
(500,536,cs)
);
},
{
closed = 1;
nodes = (
(601,92,o),
(643,167,o),
(643,261,cs),
(643,358,o),
(603,434,o),
(500,434,cs),
(398,434,o),
(359,358,o),
(359,261,cs),
(359,167,o),
(400,92,o),
(500,92,cs)
);
}
);
width = 793;
}
);
unicode = 1102;
},
{
glyphname = uni044F;
kernLeft = _kern11;
layers = (
{
layerId = "8A13BB0F-AA4F-467F-8A3A-5853E02CF1B4";
shapes = (
{
closed = 1;
nodes = (
(494,0,l),
(381,0,l),
(381,180,l),
(286,180,l),
(163,0,l),
(29,0,l),
(172,198,l),
(91,218,o),
(48,272,o),
(48,355,cs),
(48,486,o),
(144,527,o),
(260,527,cs),
(494,527,l)
);
},
{
closed = 1;
nodes = (
(381,432,l),
(268,432,ls),
(217,432,o),
(162,419,o),
(162,359,cs),
(162,357,o),
(162,355,o),
(162,354,c),
(162,320,o),
(184,295,o),
(216,285,cs),
(248,275,o),
(273,274,o),
(300,274,cs),
(381,274,l)
);
}
);
width = 557;
}
);
unicode = 1103;
},
{
glyphname = uni0410;
kernLeft = _kern30;
kernRight = _kern30;
layers = (
{
layerId = "8A13BB0F-AA4F-467F-8A3A-5853E02CF1B4";
shapes = (
{
closed = 1;
nodes = (
(418,707,l),
(684,0,l),
(557,0,l),
(505,143,l),
(184,143,l),
(131,0,l),
(5,0,l),
(273,707,l)
);
},
{
closed = 1;
nodes = (
(469,247,l),
(345,592,l),
(220,247,l)
);
}
);
width = 689;
}
);
unicode = 1040;
},
{
glyphname = uni0415;
layers = (
{
layerId = "8A13BB0F-AA4F-467F-8A3A-5853E02CF1B4";
shapes = (
{
closed = 1;
nodes = (
(82,0,l),
(82,707,l),
(573,707,l),
(573,603,l),
(198,603,l),
(198,402,l),
(530,402,l),
(530,297,l),
(198,297,l),
(198,103,l),
(573,103,l),
(573,0,l)
);
}
);
width = 616;
}
);
unicode = 1045;
},
{
glyphname = uni041C;
layers = (
{
layerId = "8A13BB0F-AA4F-467F-8A3A-5853E02CF1B4";
shapes = (
{
closed = 1;
nodes = (
(82,0,l),
(82,707,l),
(228,707,l),
(439,345,l),
(648,707,l),
(790,707,l),
(790,0,l),
(675,0,l),
(675,551,l),
(462,184,l),
(410,184,l),
(197,551,l),
(197,0,l)
);
}
);
width = 872;
}
);
unicode = 1052;
},
{
glyphname = uni041D;
layers = (
{
layerId = "8A13BB0F-AA4F-467F-8A3A-5853E02CF1B4";
shapes = (
{
closed = 1;
nodes = (
(198,400,l),
(537,400,l),
(537,707,l),
(653,707,l),
(653,0,l),
(537,0,l),
(537,296,l),
(198,296,l),
(198,0,l),
(82,0,l),
(82,707,l),
(198,707,l)
);
}
);
width = 735;
}
);
unicode = 1053;
},
{
glyphname = uni0420;
layers = (
{
layerId = "8A13BB0F-AA4F-467F-8A3A-5853E02CF1B4";
shapes = (
{
closed = 1;
nodes = (
(82,0,l),
(82,707,l),
(341,707,ls),
(503,707,o),
(604,637,o),
(604,468,cs),
(604,313,o),
(499,221,o),
(336,221,cs),
(197,221,l),
(197,0,l)
);
},
{
closed = 1;
nodes = (
(197,324,l),
(330,324,ls),
(418,324,o),
(488,366,o),
(488,462,cs),
(488,563,o),
(436,603,o),
(337,603,cs),
(197,603,l)
);
}
);
width = 643;
}
);
unicode = 1056;
},
{
glyphname = uni0422;
kernLeft = _kern28;
kernRight = _kern28;
layers = (
{
layerId = "8A13BB0F-AA4F-467F-8A3A-5853E02CF1B4";
shapes = (
{
closed = 1;
nodes = (
(350,0,l),
(234,0,l),
(234,603,l),
(9,603,l),
(9,707,l),
(574,707,l),
(574,603,l),
(350,603,l)
);
}
);
width = 583;
}
);
unicode = 1058;
},
{
glyphname = uni0425;
layers = (
{
layerId = "8A13BB0F-AA4F-467F-8A3A-5853E02CF1B4";
shapes = (
{
closed = 1;
nodes = (
(477,707,l),
(613,707,l),
(386,355,l),
(620,0,l),
(482,0,l),
(313,264,l),
(140,0,l),
(9,0,l),
(244,354,l),
(16,707,l),
(154,707,l),
(316,444,l)
);
}
);
width = 629;
}
);
unicode = 1061;
},
{
glyphname = T;
kernLeft = _kern28;
kernRight = _kern28;
layers = (
{
layerId = "8A13BB0F-AA4F-467F-8A3A-5853E02CF1B4";
shapes = (
{
closed = 1;
nodes = (
(233,0,l),
(233,603,l),
(9,603,l),
(9,707,l),
(574,707,l),
(574,603,l),
(349,603,l),
(349,0,l)
);
}
);
width = 583;
}
);
unicode = 84;
},
{
glyphname = uni0412;
layers = (
{
layerId = "8A13BB0F-AA4F-467F-8A3A-5853E02CF1B4";
shapes = (
{
closed = 1;
nodes = (
(81,0,l),
(81,707,l),
(362,707,ls),
(482,707,o),
(591,670,o),
(591,530,cs),
(591,462,o),
(565,407,o),
(501,376,c),
(588,355,o),
(626,292,o),
(626,207,cs),
(626,29,o),
(465,0,o),
(341,0,cs)
);
},
{
closed = 1;
nodes = (
(197,603,l),
(197,409,l),
(332,409,ls),
(400,409,o),
(479,427,o),
(479,511,cs),
(479,595,o),
(416,603,o),
(349,603,cs)
);
},
{
closed = 1;
nodes = (
(197,103,l),
(339,103,ls),
(412,103,o),
(510,116,o),
(510,211,cs),
(510,314,o),
(398,308,o),
(327,308,cs),
(197,308,l)
);
}
);
width = 670;
}
);
unicode = 1042;
},
{
glyphname = uni041F;
layers = (
{
layerId = "8A13BB0F-AA4F-467F-8A3A-5853E02CF1B4";
shapes = (
{
closed = 1;
nodes = (
(656,0,l),
(540,0,l),
(540,603,l),
(198,603,l),
(198,0,l),
(82,0,l),
(82,707,l),
(656,707,l)
);
}
);
width = 738;
}
);
unicode = 1055;
},
{
glyphname = uni0413;
kernLeft = _kern23;
kernRight = _kern23;
layers = (
{
layerId = "8A13BB0F-AA4F-467F-8A3A-5853E02CF1B4";
shapes = (
{
closed = 1;
nodes = (
(82,0,l),
(82,707,l),
(555,707,l),
(555,603,l),
(198,603,l),
(198,0,l)
);
}
);
width = 579;
}
);
unicode = 1043;
},
{
glyphname = uni041B;
layers = (
{
layerId = "8A13BB0F-AA4F-467F-8A3A-5853E02CF1B4";
shapes = (
{
closed = 1;
nodes = (
(505,0,l),
(505,603,l),
(247,603,l),
(246,562,o),
(247,532,o),
(246,487,cs),
(245,442,o),
(244,386,o),
(242,310,cs),
(241,240,o),
(236,151,o),
(210,100,cs),
(174,27,o),
(117,-4,o),
(14,-4,c),
(14,102,l),
(117,102,o),
(126,232,o),
(129,355,cs),
(133,526,o),
(132,611,o),
(135,707,c),
(621,707,l),
(621,0,l)
);
}
);
width = 703;
}
);
unicode = 1051;
},
{
glyphname = uni0414;
kernRight = _kern12;
layers = (
{
layerId = "8A13BB0F-AA4F-467F-8A3A-5853E02CF1B4";
shapes = (
{
closed = 1;
nodes = (
(17,-187,l),
(17,103,l),
(25,103,ls),
(108,103,o),
(125,197,o),
(133,316,cs),
(141,449,o),
(141,574,o),
(144,707,c),
(625,707,l),
(625,103,l),
(710,103,l),
(710,-187,l),
(595,-187,l),
(595,0,l),
(132,0,l),
(132,-187,l)
);
},
{
closed = 1;
nodes = (
(509,103,l),
(509,603,l),
(254,603,l),
(247,352,ls),
(245,287,o),
(241,179,o),
(211,103,c)
);
}
);
width = 727;
}
);
unicode = 1044;
},
{
glyphname = uni0411;
layers = (
{
layerId = "8A13BB0F-AA4F-467F-8A3A-5853E02CF1B4";
shapes = (
{
closed = 1;
nodes = (
(82,707,l),
(579,707,l),
(579,603,l),
(198,603,l),
(198,426,l),
(360,426,ls),
(517,426,o),
(619,379,o),
(619,222,cs),
(619,50,o),
(483,0,o),
(340,0,cs),
(82,0,l)
);
},
{
closed = 1;
nodes = (
(198,103,l),
(332,103,ls),
(417,103,o),
(504,115,o),
(504,219,cs),
(504,316,o),
(423,323,o),
(343,323,cs),
(198,323,l)
);
}
);
width = 669;
}
);
unicode = 1041;
},
{
glyphname = uni0416;
layers = (
{
layerId = "8A13BB0F-AA4F-467F-8A3A-5853E02CF1B4";
shapes = (
{
closed = 1;
nodes = (
(396,0,l),
(396,297,l),
(300,297,l),
(141,0,l),
(9,0,l),
(77,121,o),
(141,242,o),
(208,363,c),
(11,707,l),
(142,707,l),
(307,401,l),
(396,401,l),
(396,707,l),
(512,707,l),
(512,401,l),
(602,401,l),
(767,707,l),
(897,707,l),
(700,363,l),
(899,0,l),
(767,0,l),
(608,297,l),
(512,297,l),
(512,0,l)
);
}
);
width = 908;
}
);
unicode = 1046;
},
{
glyphname = uni0417;
kernLeft = _kern7;
kernRight = _kern8;
layers = (
{
layerId = "8A13BB0F-AA4F-467F-8A3A-5853E02CF1B4";
shapes = (
{
closed = 1;
nodes = (
(285,-7,o),
(217,-2,o),
(157,27,cs),
(97,55,o),
(47,107,o),
(39,199,c),
(152,199,l),
(157,152,o),
(190,126,o),
(225,113,cs),
(260,100,o),
(302,97,o),
(331,97,cs),
(398,97,o),
(486,116,o),
(486,209,cs),
(486,308,o),
(391,310,o),
(328,310,cs),
(238,310,l),
(238,409,l),
(318,409,l),
(384,412,o),
(460,432,o),
(460,512,cs),
(460,595,o),
(381,612,o),
(318,612,cs),
(245,612,o),
(172,583,o),
(169,516,c),
(56,516,l),
(56,655,o),
(180,715,o),
(321,715,cs),
(445,715,o),
(573,675,o),
(573,531,cs),
(573,477,o),
(552,415,o),
(479,377,c),
(559,357,o),
(602,292,o),
(602,209,cs),
(602,48,o),
(466,-7,o),
(326,-7,cs)
);
}
);
width = 646;
}
);
unicode = 1047;
},
{
glyphname = uni0418;
layers = (
{
layerId = "8A13BB0F-AA4F-467F-8A3A-5853E02CF1B4";
shapes = (
{
closed = 1;
nodes = (
(82,0,l),
(82,707,l),
(198,707,l),
(198,188,l),
(561,707,l),
(665,707,l),
(665,0,l),
(549,0,l),
(549,514,l),
(186,0,l)
);
}
);
width = 747;
}
);
unicode = 1048;
},
{
glyphname = uni0419;
layers = (
{
layerId = "8A13BB0F-AA4F-467F-8A3A-5853E02CF1B4";
shapes = (
{
closed = 1;
nodes = (
(428,848,o),
(461,873,o),
(466,917,c),
(569,917,l),
(560,814,o),
(490,761,o),
(378,761,cs),
(266,761,o),
(196,814,o),
(188,917,c),
(291,917,l),
(298,872,o),
(328,848,o),
(379,848,cs)
);
},
{
closed = 1;
nodes = (
(82,0,l),
(82,707,l),
(198,707,l),
(198,188,l),
(561,707,l),
(665,707,l),
(665,0,l),
(549,0,l),
(549,514,l),
(186,0,l)
);
}
);
width = 747;
}
);
unicode = 1049;
},
{
glyphname = uni041A;
layers = (
{
layerId = "8A13BB0F-AA4F-467F-8A3A-5853E02CF1B4";
shapes = (
{
closed = 1;
nodes = (
(198,0,l),
(82,0,l),
(82,707,l),
(198,707,l),
(198,398,l),
(289,398,l),
(507,707,l),
(640,707,l),
(388,364,l),
(643,0,l),
(508,0,l),
(300,295,l),
(198,295,l)
);
}
);
width = 652;
}
);
unicode = 1050;
},
{
glyphname = uni0423;
layers = (
{
layerId = "8A13BB0F-AA4F-467F-8A3A-5853E02CF1B4";
shapes = (
{
closed = 1;
nodes = (
(334,315,l),
(490,707,l),
(618,707,l),
(399,193,ls),
(376,140,o),
(343,83,o),
(295,47,cs),
(247,11,o),
(188,0,o),
(103,0,c),
(103,105,l),
(158,105,o),
(225,103,o),
(273,194,c),
(10,707,l),
(145,707,l)
);
}
);
width = 612;
}
);
unicode = 1059;
},
{
glyphname = uni0424;
kernLeft = _kern7;
kernRight = _kern8;
layers = (
{
layerId = "8A13BB0F-AA4F-467F-8A3A-5853E02CF1B4";
shapes = (
{
closed = 1;
nodes = (
(368,-13,l),
(368,100,l),
(310,100,ls),
(142,100,o),
(43,208,o),
(43,372,cs),
(43,543,o),
(152,641,o),
(315,641,cs),
(368,641,l),
(368,743,l),
(484,743,l),
(484,641,l),
(534,641,ls),
(696,641,o),
(807,543,o),
(809,375,cs),
(810,208,o),
(709,100,o),
(542,100,cs),
(484,100,l),
(484,-13,l)
);
},
{
closed = 1;
nodes = (
(318,544,ls),
(214,544,o),
(158,476,o),
(158,377,cs),
(158,272,o),
(209,198,o),
(318,198,cs),
(368,198,l),
(368,544,l)
);
},
{
closed = 1;
nodes = (
(484,198,l),
(536,198,ls),
(646,198,o),
(694,273,o),
(694,373,cs),
(694,473,o),
(633,544,o),
(532,544,cs),
(484,544,l)
);
}
);
width = 852;
}
);
unicode = 1060;
},
{
glyphname = uni0426;
kernRight = _kern12;
layers = (
{
layerId = "8A13BB0F-AA4F-467F-8A3A-5853E02CF1B4";
shapes = (
{
closed = 1;
nodes = (
(82,0,l),
(82,707,l),
(198,707,l),
(198,103,l),
(523,103,l),
(523,707,l),
(638,707,l),
(638,103,l),
(723,103,l),
(723,-187,l),
(608,-187,l),
(608,0,l)
);
}
);
width = 737;
}
);
unicode = 1062;
},
{
glyphname = uni0427;
layers = (
{
layerId = "8A13BB0F-AA4F-467F-8A3A-5853E02CF1B4";
shapes = (
{
closed = 1;
nodes = (
(383,342,o),
(425,346,o),
(480,354,c),
(480,707,l),
(596,707,l),
(596,0,l),
(480,0,l),
(480,250,l),
(435,242,o),
(378,238,o),
(327,238,cs),
(155,238,o),
(59,294,o),
(59,470,cs),
(59,707,l),
(175,707,l),
(175,492,ls),
(175,369,o),
(225,345,o),
(336,343,cs)
);
}
);
width = 678;
}
);
unicode = 1063;
},
{
glyphname = uni0428;
layers = (
{
layerId = "8A13BB0F-AA4F-467F-8A3A-5853E02CF1B4";
shapes = (
{
closed = 1;
nodes = (
(82,707,l),
(198,707,l),
(198,103,l),
(437,103,l),
(437,707,l),
(553,707,l),
(553,103,l),
(792,103,l),
(792,707,l),
(908,707,l),
(908,0,l),
(82,0,l)
);
}
);
width = 990;
}
);
unicode = 1064;
},
{
glyphname = uni0429;
kernRight = _kern12;
layers = (
{
layerId = "8A13BB0F-AA4F-467F-8A3A-5853E02CF1B4";
shapes = (
{
closed = 1;
nodes = (
(82,707,l),
(197,707,l),
(197,103,l),
(437,103,l),
(437,707,l),
(552,707,l),
(552,103,l),
(791,103,l),
(791,707,l),
(907,707,l),
(907,103,l),
(992,103,l),
(992,-187,l),
(877,-187,l),
(877,0,l),
(82,0,l)
);
}
);
width = 1006;
}
);
unicode = 1065;
},
{
glyphname = uni042A;
layers = (
{
layerId = "8A13BB0F-AA4F-467F-8A3A-5853E02CF1B4";
shapes = (
{
closed = 1;
nodes = (
(174,603,l),
(9,603,l),
(9,707,l),
(290,707,l),
(290,434,l),
(447,434,ls),
(593,434,o),
(705,384,o),
(705,225,cs),
(705,53,o),
(580,0,o),
(424,0,cs),
(174,0,l)
);
},
{
closed = 1;
nodes = (
(290,103,l),
(418,103,ls),
(503,103,o),
(590,119,o),
(590,222,cs),
(590,319,o),
(509,330,o),
(430,330,cs),
(290,330,l)
);
}
);
width = 750;
}
);
unicode = 1066;
},
{
glyphname = uni042B;
layers = (
{
layerId = "8A13BB0F-AA4F-467F-8A3A-5853E02CF1B4";
shapes = (
{
closed = 1;
nodes = (
(82,707,l),
(197,707,l),
(197,434,l),
(329,434,ls),
(475,434,o),
(587,383,o),
(587,225,cs),
(587,53,o),
(463,0,o),
(307,0,cs),
(82,0,l)
);
},
{
closed = 1;
nodes = (
(684,0,l),
(684,707,l),
(800,707,l),
(800,0,l)
);
},
{
closed = 1;
nodes = (
(197,103,l),
(300,103,ls),
(385,103,o),
(472,119,o),
(472,222,cs),
(472,321,o),
(393,330,o),
(312,330,cs),
(197,330,l)
);
}
);
width = 882;
}
);
unicode = 1067;
},
{
glyphname = uni042C;
layers = (
{
layerId = "8A13BB0F-AA4F-467F-8A3A-5853E02CF1B4";
shapes = (
{
closed = 1;
nodes = (
(81,707,l),
(197,707,l),
(197,434,l),
(353,434,ls),
(501,434,o),
(610,385,o),
(611,225,cs),
(613,53,o),
(484,0,o),
(330,0,cs),
(81,0,l)
);
},
{
closed = 1;
nodes = (
(197,103,l),
(325,103,ls),
(409,103,o),
(496,119,o),
(496,220,cs),
(496,319,o),
(418,330,o),
(335,330,cs),
(197,330,l)
);
}
);
width = 656;
}
);
unicode = 1068;
},
{
glyphname = uni042D;
kernLeft = _kern7;
kernRight = _kern8;
layers = (
{
layerId = "8A13BB0F-AA4F-467F-8A3A-5853E02CF1B4";
shapes = (
{
closed = 1;
nodes = (
(252,612,o),
(184,568,o),
(165,499,c),
(50,499,l),
(74,644,o),
(202,716,o),
(347,716,cs),
(571,716,o),
(670,555,o),
(670,351,cs),
(670,146,o),
(561,-7,o),
(341,-7,cs),
(197,-7,o),
(67,59,o),
(43,208,c),
(161,208,l),
(183,127,o),
(264,97,o),
(343,97,cs),
(472,97,o),
(543,185,o),
(548,303,c),
(247,303,l),
(247,404,l),
(548,404,l),
(540,517,o),
(475,612,o),
(344,612,cs)
);
}
);
width = 713;
}
);
unicode = 1069;
},
{
glyphname = uni042E;
kernRight = _kern8;
layers = (
{
layerId = "8A13BB0F-AA4F-467F-8A3A-5853E02CF1B4";
shapes = (
{
closed = 1;
nodes = (
(82,0,l),
(82,707,l),
(198,707,l),
(198,403,l),
(299,403,l),
(315,585,o),
(425,715,o),
(628,715,cs),
(848,715,o),
(965,563,o),
(965,355,cs),
(965,148,o),
(847,-7,o),
(628,-7,cs),
(429,-7,o),
(316,119,o),
(300,299,c),
(198,299,l),
(198,0,l)
);
},
{
closed = 1;
nodes = (
(477,611,o),
(415,490,o),
(415,354,cs),
(415,218,o),
(474,97,o),
(627,97,cs),
(772,97,o),
(846,212,o),
(846,354,cs),
(846,490,o),
(779,611,o),
(627,611,cs)
);
}
);
width = 1008;
}
);
unicode = 1070;
},
{
glyphname = uni042F;
layers = (
{
layerId = "8A13BB0F-AA4F-467F-8A3A-5853E02CF1B4";
shapes = (
{
closed = 1;
nodes = (
(337,252,l),
(183,0,l),
(50,0,l),
(219,268,l),
(119,291,o),
(56,361,o),
(56,474,cs),
(56,644,o),
(163,707,o),
(326,707,cs),
(594,707,l),
(594,0,l),
(479,0,l),
(479,252,l)
);
},
{
closed = 1;
nodes = (
(479,354,l),
(479,603,l),
(326,603,ls),
(223,603,o),
(170,570,o),
(171,475,cs),
(173,371,o),
(269,354,o),
(348,354,cs)
);
}
);
width = 676;
}
);
unicode = 1071;
},
{
glyphname = uni0440;
kernLeft = _kern11;
kernRight = _kern10;
layers = (
{
layerId = "8A13BB0F-AA4F-467F-8A3A-5853E02CF1B4";
shapes = (
{
closed = 1;
nodes = (
(176,-205,l),
(62,-205,l),
(62,527,l),
(170,527,l),
(176,452,l),
(215,507,o),
(281,536,o),
(349,536,cs),
(494,536,o),
(581,430,o),
(581,265,cs),
(581,107,o),
(503,-7,o),
(343,-7,cs),
(279,-7,o),
(219,12,o),
(176,60,c)
);
},
{
closed = 1;
nodes = (
(424,92,o),
(468,168,o),
(468,263,cs),
(468,360,o),
(424,434,o),
(323,434,cs),
(228,434,o),
(175,354,o),
(175,264,cs),
(175,169,o),
(222,92,o),
(325,92,cs)
);
}
);
width = 619;
}
);
unicode = 1088;
},
{
glyphname = O;
kernLeft = _kern3;
kernRight = _kern4;
layers = (
{
layerId = "8A13BB0F-AA4F-467F-8A3A-5853E02CF1B4";
shapes = (
{
closed = 1;
nodes = (
(164,-7,o),
(43,147,o),
(43,354,cs),
(43,565,o),
(167,716,o),
(385,716,cs),
(604,716,o),
(726,567,o),
(726,355,cs),
(726,147,o),
(604,-7,o),
(384,-7,cs)
);
},
{
closed = 1;
nodes = (
(234,612,o),
(162,492,o),
(162,355,cs),
(162,219,o),
(233,97,o),
(385,97,cs),
(535,97,o),
(607,214,o),
(607,354,cs),
(607,492,o),
(536,612,o),
(385,612,cs)
);
}
);
width = 769;
}
);
unicode = 79;
},
{
glyphname = a;
kernLeft = _kern27;
kernRight = _kern27;
layers = (
{
layerId = "8A13BB0F-AA4F-467F-8A3A-5853E02CF1B4";
shapes = (
{
closed = 1;
nodes = (
(402,65,l),
(367,16,o),
(308,-7,o),
(237,-7,cs),
(128,-7,o),
(44,48,o),
(44,154,cs),
(44,268,o),
(142,315,o),
(261,315,cs),
(396,315,l),
(396,392,o),
(366,437,o),
(279,438,cs),
(228,438,o),
(189,422,o),
(177,382,c),
(60,382,l),
(76,494,o),
(182,536,o),
(283,536,cs),
(348,536,o),
(406,520,o),
(447,479,cs),
(494,431,o),
(506,363,o),
(506,284,cs),
(506,0,l),
(407,0,l)
);
},
{
closed = 1;
nodes = (
(286,234,ls),
(230,234,o),
(158,225,o),
(158,161,cs),
(158,110,o),
(200,84,o),
(253,84,cs),
(337,84,o),
(396,127,o),
(396,234,c)
);
}
);
width = 566;
}
);
unicode = 97;
},
{
glyphname = c;
kernLeft = _kern5;
kernRight = _kern6;
layers = (
{
layerId = "8A13BB0F-AA4F-467F-8A3A-5853E02CF1B4";
shapes = (
{
closed = 1;
nodes = (
(124,-7,o),
(42,102,o),
(42,262,cs),
(42,420,o),
(133,536,o),
(297,536,cs),
(418,536,o),
(503,483,o),
(524,363,c),
(407,363,l),
(395,410,o),
(352,434,o),
(295,434,cs),
(193,434,o),
(154,353,o),
(154,261,cs),
(154,167,o),
(195,92,o),
(296,92,cs),
(356,92,o),
(397,121,o),
(408,165,c),
(526,165,l),
(504,43,o),
(407,-7,o),
(294,-7,cs)
);
}
);
width = 562;
}
);
unicode = 99;
},
{
glyphname = e;
kernLeft = _kern5;
kernRight = _kern6;
layers = (
{
layerId = "8A13BB0F-AA4F-467F-8A3A-5853E02CF1B4";
shapes = (
{
closed = 1;
nodes = (
(156,225,l),
(161,149,o),
(208,87,o),
(298,87,cs),
(346,87,o),
(389,102,o),
(408,145,c),
(525,145,l),
(498,37,o),
(402,-7,o),
(295,-7,cs),
(126,-7,o),
(42,100,o),
(42,264,cs),
(42,422,o),
(136,536,o),
(292,536,cs),
(455,536,o),
(535,421,o),
(535,276,cs),
(535,259,o),
(534,242,o),
(532,225,c)
);
},
{
closed = 1;
nodes = (
(424,311,l),
(421,391,o),
(369,437,o),
(293,437,cs),
(209,437,o),
(165,380,o),
(157,311,c)
);
}
);
width = 576;
}
);
unicode = 101;
},
{
glyphname = f;
layers = (
{
layerId = "8A13BB0F-AA4F-467F-8A3A-5853E02CF1B4";
shapes = (
{
closed = 1;
nodes = (
(111,0,l),
(111,428,l),
(27,428,l),
(27,527,l),
(111,527,l),
(111,589,ls),
(111,706,o),
(163,760,o),
(286,760,cs),
(358,760,l),
(358,661,l),
(293,661,ls),
(237,661,o),
(223,631,o),
(223,576,cs),
(223,527,l),
(358,527,l),
(358,428,l),
(223,428,l),
(223,0,l)
);
}
);
width = 375;
}
);
unicode = 102;
},
{
glyphname = g;
kernLeft = _kern5;
layers = (
{
layerId = "8A13BB0F-AA4F-467F-8A3A-5853E02CF1B4";
shapes = (
{
closed = 1;
nodes = (
(562,93,ls),
(562,34,o),
(564,-24,o),
(548,-84,c),
(516,-197,o),
(429,-253,o),
(304,-253,cs),
(189,-253,o),
(86,-202,o),
(67,-80,c),
(186,-80,l),
(197,-128,o),
(249,-152,o),
(305,-152,cs),
(434,-152,o),
(448,-50,o),
(448,67,c),
(415,17,o),
(364,-7,o),
(285,-7,cs),
(194,-7,o),
(138,23,o),
(99,72,cs),
(60,121,o),
(42,187,o),
(42,259,cs),
(42,418,o),
(125,536,o),
(288,536,cs),
(357,536,o),
(411,512,o),
(451,464,c),
(460,527,l),
(562,527,l)
);
},
{
closed = 1;
nodes = (
(199,434,o),
(155,356,o),
(155,261,cs),
(155,167,o),
(200,91,o),
(301,91,cs),
(403,91,o),
(449,178,o),
(449,265,cs),
(449,356,o),
(401,434,o),
(300,434,cs)
);
}
);
width = 624;
}
);
unicode = 103;
},
{
glyphname = j;
layers = (
{
layerId = "8A13BB0F-AA4F-467F-8A3A-5853E02CF1B4";
shapes = (
{
closed = 1;
nodes = (
(177,747,o),
(207,719,o),
(207,675,cs),
(207,632,o),
(177,604,o),
(134,604,cs),
(91,604,o),
(61,632,o),
(61,675,cs),
(61,719,o),
(91,747,o),
(134,747,cs)
);
},
{
closed = 1;
nodes = (
(191,527,l),
(191,-37,ls),
(191,-156,o),
(147,-211,o),
(24,-211,cs),
(-36,-211,l),
(-36,-112,l),
(3,-112,ls),
(62,-112,o),
(77,-80,o),
(77,-24,cs),
(77,527,l)
);
}
);
width = 261;
}
);
unicode = 106;
},
{
glyphname = o;
kernLeft = _kern5;
kernRight = _kern6;
layers = (
{
layerId = "8A13BB0F-AA4F-467F-8A3A-5853E02CF1B4";
shapes = (
{
closed = 1;
nodes = (
(466,536,o),
(559,426,o),
(559,264,cs),
(559,100,o),
(470,-7,o),
(299,-7,cs),
(131,-7,o),
(42,101,o),
(42,264,cs),
(42,426,o),
(133,536,o),
(299,536,cs)
);
},
{
closed = 1;
nodes = (
(402,92,o),
(445,168,o),
(445,263,cs),
(445,360,o),
(402,434,o),
(299,434,cs),
(199,434,o),
(154,360,o),
(154,263,cs),
(154,168,o),
(198,92,o),
(299,92,cs)
);
}
);
width = 601;
}
);
unicode = 111;
},
{
glyphname = r;
kernLeft = _kern29;
kernRight = _kern29;
layers = (
{
layerId = "8A13BB0F-AA4F-467F-8A3A-5853E02CF1B4";
shapes = (
{
closed = 1;
nodes = (
(62,0,l),
(62,527,l),
(169,527,l),
(175,452,l),
(216,508,o),
(271,536,o),
(341,536,cs),
(354,536,o),
(367,535,o),
(378,534,c),
(378,428,l),
(362,428,o),
(347,427,o),
(332,427,cs),
(216,424,o),
(176,346,o),
(176,247,cs),
(176,0,l)
);
}
);
width = 390;
}
);
unicode = 114;
},
{
glyphname = t;
kernLeft = _kern21;
kernRight = _kern21;
layers = (
{
layerId = "8A13BB0F-AA4F-467F-8A3A-5853E02CF1B4";
shapes = (
{
closed = 1;
nodes = (
(220,527,l),
(353,527,l),
(353,428,l),
(220,428,l),
(220,187,ls),
(220,127,o),
(237,98,o),
(297,98,cs),
(349,98,l),
(349,0,l),
(287,0,ls),
(158,0,o),
(107,50,o),
(107,171,cs),
(107,428,l),
(24,428,l),
(24,527,l),
(107,527,l),
(107,676,l),
(220,676,l)
);
}
);
width = 377;
}
);
unicode = 116;
},
{
glyphname = y2_alt;
layers = (
{
layerId = "8A13BB0F-AA4F-467F-8A3A-5853E02CF1B4";
shapes = (
{
closed = 1;
nodes = (
(440,527,l),
(562,527,l),
(414,86,ls),
(341,-132,o),
(304,-251,o),
(105,-251,cs),
(88,-251,l),
(88,-149,l),
(93,-149,o),
(97,-149,o),
(102,-149,cs),
(175,-149,o),
(218,-112,o),
(251,-33,c),
(15,527,l),
(149,527,l),
(309,108,l)
);
}
);
width = 569;
}
);
},
{
glyphname = uni0443;
layers = (
{
layerId = "8A13BB0F-AA4F-467F-8A3A-5853E02CF1B4";
shapes = (
{
closed = 1;
nodes = (
(440,527,l),
(565,527,l),
(413,84,ls),
(337,-137,o),
(305,-251,o),
(105,-251,cs),
(88,-251,l),
(88,-149,l),
(91,-149,o),
(93,-149,o),
(96,-149,cs),
(177,-149,o),
(218,-112,o),
(251,-33,c),
(17,527,l),
(151,527,l),
(310,108,l)
);
}
);
width = 572;
}
);
unicode = 1091;
},
{
glyphname = uni0451;
kernLeft = _kern9;
kernRight = _kern10;
layers = (
{
layerId = "8A13BB0F-AA4F-467F-8A3A-5853E02CF1B4";
shapes = (
{
closed = 1;
nodes = (
(222,727,o),
(252,699,o),
(252,656,cs),
(252,613,o),
(222,586,o),
(179,586,cs),
(138,586,o),
(108,613,o),
(108,656,cs),
(108,699,o),
(138,727,o),
(179,727,cs)
);
},
{
closed = 1;
nodes = (
(457,727,o),
(486,699,o),
(486,656,cs),
(486,613,o),
(457,586,o),
(414,586,cs),
(371,586,o),
(343,613,o),
(343,656,cs),
(343,699,o),
(371,727,o),
(414,727,cs)
);
},
{
closed = 1;
nodes = (
(156,225,l),
(161,149,o),
(208,87,o),
(298,87,cs),
(346,87,o),
(389,102,o),
(408,145,c),
(525,145,l),
(498,37,o),
(402,-7,o),
(296,-7,cs),
(126,-7,o),
(42,100,o),
(42,264,cs),
(42,422,o),
(135,536,o),
(293,536,cs),
(455,536,o),
(535,421,o),
(535,276,cs),
(535,259,o),
(534,242,o),
(532,225,c)
);
},
{
closed = 1;
nodes = (
(424,311,l),
(421,391,o),
(369,437,o),
(293,437,cs),
(209,437,o),
(165,380,o),
(157,311,c)
);
}
);
width = 576;
}
);
unicode = 1105;
},
{
glyphname = uni0437;
kernLeft = _kern9;
kernRight = _kern10;
layers = (
{
layerId = "8A13BB0F-AA4F-467F-8A3A-5853E02CF1B4";
shapes = (
{
closed = 1;
nodes = (
(464,263,o),
(490,218,o),
(490,166,c),
(490,165,o),
(490,163,o),
(490,162,c),
(490,27,o),
(369,-7,o),
(266,-7,cs),
(161,-7,o),
(40,30,o),
(32,155,c),
(142,155,l),
(153,102,o),
(221,87,o),
(266,87,cs),
(316,87,o),
(381,97,o),
(381,156,cs),
(381,207,o),
(338,220,o),
(281,220,cs),
(193,220,l),
(193,310,l),
(272,310,ls),
(321,310,o),
(361,328,o),
(361,377,cs),
(361,429,o),
(304,440,o),
(267,440,cs),
(223,440,o),
(163,429,o),
(158,378,c),
(49,378,l),
(60,503,o),
(170,536,o),
(269,536,cs),
(364,536,o),
(470,501,o),
(470,389,cs),
(470,338,o),
(444,302,o),
(408,282,c)
);
}
);
width = 529;
}
);
unicode = 1079;
},
{
glyphname = uni044D;
kernLeft = _kern9;
kernRight = _kern10;
layers = (
{
layerId = "8A13BB0F-AA4F-467F-8A3A-5853E02CF1B4";
shapes = (
{
closed = 1;
nodes = (
(405,309,l),
(400,382,o),
(358,434,o),
(271,434,cs),
(221,434,o),
(168,418,o),
(154,372,c),
(36,372,l),
(63,487,o),
(162,536,o),
(271,536,cs),
(436,536,o),
(516,424,o),
(516,263,cs),
(516,102,o),
(439,-7,o),
(268,-7,cs),
(170,-7,o),
(58,34,o),
(34,151,c),
(151,151,l),
(167,110,o),
(220,91,o),
(270,91,cs),
(358,91,o),
(401,143,o),
(404,216,c),
(191,216,l),
(191,309,l)
);
}
);
width = 554;
}
);
unicode = 1101;
},
{
glyphname = C;
kernLeft = _kern3;
kernRight = _kern4;
layers = (
{
layerId = "8A13BB0F-AA4F-467F-8A3A-5853E02CF1B4";
shapes = (
{
closed = 1;
nodes = (
(227,612,o),
(162,492,o),
(162,356,cs),
(162,217,o),
(230,97,o),
(379,97,cs),
(471,97,o),
(537,140,o),
(553,208,c),
(669,208,l),
(648,72,o),
(529,-7,o),
(377,-7,cs),
(156,-7,o),
(43,144,o),
(43,354,cs),
(43,560,o),
(158,716,o),
(378,716,cs),
(534,716,o),
(642,642,o),
(663,499,c),
(549,499,l),
(532,568,o),
(469,612,o),
(376,612,cs)
);
}
);
width = 706;
}
);
unicode = 67;
},
{
glyphname = S;
kernLeft = _kern3;
kernRight = _kern4;
layers = (
{
layerId = "8A13BB0F-AA4F-467F-8A3A-5853E02CF1B4";
shapes = (
{
closed = 1;
nodes = (
(269,614,o),
(192,595,o),
(192,519,cs),
(192,463,o),
(235,438,o),
(287,423,cs),
(324,412,o),
(364,403,o),
(396,396,cs),
(508,372,o),
(602,333,o),
(602,205,cs),
(602,54,o),
(486,-8,o),
(343,-8,cs),
(197,-8,o),
(71,52,o),
(52,202,c),
(172,202,l),
(193,122,o),
(274,98,o),
(343,98,cs),
(418,98,o),
(485,119,o),
(485,194,cs),
(485,247,o),
(455,267,o),
(408,280,cs),
(344,298,o),
(274,309,o),
(214,332,cs),
(135,361,o),
(75,409,o),
(75,510,cs),
(75,665,o),
(203,716,o),
(327,716,cs),
(461,716,o),
(573,658,o),
(584,515,c),
(470,515,l),
(459,586,o),
(401,611,o),
(329,613,cs)
);
}
);
width = 655;
}
);
unicode = 83;
},
{
glyphname = uni0421;
kernLeft = _kern7;
kernRight = _kern8;
layers = (
{
layerId = "8A13BB0F-AA4F-467F-8A3A-5853E02CF1B4";
shapes = (
{
closed = 1;
nodes = (
(227,612,o),
(162,492,o),
(162,356,cs),
(162,217,o),
(230,97,o),
(379,97,cs),
(471,97,o),
(537,140,o),
(553,208,c),
(669,208,l),
(648,72,o),
(529,-7,o),
(377,-7,cs),
(156,-7,o),
(43,144,o),
(43,354,cs),
(43,560,o),
(158,716,o),
(378,716,cs),
(534,716,o),
(642,642,o),
(663,499,c),
(549,499,l),
(532,568,o),
(469,612,o),
(376,612,cs)
);
}
);
width = 712;
}
);
unicode = 1057;
},
{
glyphname = G;
kernLeft = _kern3;
kernRight = _kern4;
layers = (
{
layerId = "8A13BB0F-AA4F-467F-8A3A-5853E02CF1B4";
shapes = (
{
closed = 1;
nodes = (
(224,610,o),
(162,493,o),
(162,354,cs),
(162,215,o),
(228,97,o),
(378,97,cs),
(499,97,o),
(569,167,o),
(572,268,c),
(365,268,l),
(365,366,l),
(683,366,l),
(683,315,o),
(684,265,o),
(670,209,cs),
(639,89,o),
(549,-7,o),
(377,-7,cs),
(156,-7,o),
(43,143,o),
(43,352,cs),
(43,564,o),
(155,716,o),
(376,716,cs),
(530,716,o),
(646,638,o),
(667,499,c),
(550,499,l),
(533,570,o),
(465,613,o),
(373,612,cs)
);
}
);
width = 726;
}
);
unicode = 71;
},
{
glyphname = uni041E;
kernLeft = _kern7;
kernRight = _kern8;
layers = (
{
layerId = "8A13BB0F-AA4F-467F-8A3A-5853E02CF1B4";
shapes = (
{
closed = 1;
nodes = (
(164,-7,o),
(43,147,o),
(43,354,cs),
(43,565,o),
(167,716,o),
(385,716,cs),
(604,716,o),
(726,567,o),
(726,355,cs),
(726,147,o),
(604,-7,o),
(384,-7,cs)
);
},
{
closed = 1;
nodes = (
(234,612,o),
(162,492,o),
(162,355,cs),
(162,219,o),
(233,97,o),
(385,97,cs),
(535,97,o),
(607,214,o),
(607,354,cs),
(607,492,o),
(536,612,o),
(385,612,cs)
);
}
);
width = 769;
}
);
unicode = 1054;
},
{
glyphname = Q;
kernLeft = _kern3;
kernRight = _kern4;
layers = (
{
layerId = "8A13BB0F-AA4F-467F-8A3A-5853E02CF1B4";
shapes = (
{
closed = 1;
nodes = (
(522,17,l),
(481,1,o),
(434,-7,o),
(383,-7,cs),
(163,-7,o),
(43,147,o),
(43,354,cs),
(43,565,o),
(167,716,o),
(385,716,cs),
(603,716,o),
(725,567,o),
(725,355,cs),
(725,240,o),
(689,143,o),
(618,78,c),
(715,-51,l),
(625,-120,l)
);
},
{
closed = 1;
nodes = (
(234,612,o),
(161,492,o),
(161,355,cs),
(161,219,o),
(232,97,o),
(384,97,cs),
(534,97,o),
(606,214,o),
(606,354,cs),
(606,492,o),
(535,612,o),
(384,612,cs)
);
}
);
width = 768;
}
);
unicode = 81;
},
{
glyphname = J;
layers = (
{
layerId = "8A13BB0F-AA4F-467F-8A3A-5853E02CF1B4";
shapes = (
{
closed = 1;
nodes = (
(154,216,l),
(158,145,o),
(193,96,o),
(269,96,cs),
(357,96,o),
(384,151,o),
(384,231,cs),
(384,707,l),
(500,707,l),
(500,244,ls),
(500,96,o),
(438,-7,o),
(278,-7,cs),
(129,-7,o),
(40,65,o),
(37,216,c)
);
}
);
width = 577;
}
);
unicode = 74;
},
{
glyphname = K_alt;
kernLeft = _kern16;
kernRight = _kern16;
layers = (
{
layerId = "8A13BB0F-AA4F-467F-8A3A-5853E02CF1B4";
shapes = (
{
closed = 1;
nodes = (
(82,0,l),
(82,707,l),
(198,707,l),
(198,373,l),
(507,707,l),
(643,707,l),
(345,390,l),
(643,0,l),
(508,0,l),
(264,318,l),
(198,249,l),
(198,0,l)
);
}
);
width = 652;
}
);
},
{
glyphname = K;
kernLeft = _kern1;
kernRight = _kern16;
layers = (
{
layerId = "8A13BB0F-AA4F-467F-8A3A-5853E02CF1B4";
shapes = (
{
closed = 1;
nodes = (
(82,0,l),
(82,707,l),
(198,707,l),
(198,398,l),
(288,398,l),
(506,707,l),
(640,707,l),
(388,364,l),
(643,0,l),
(507,0,l),
(299,295,l),
(198,295,l),
(198,0,l)
);
}
);
width = 652;
}
);
unicode = 75;
},
{
glyphname = k_alt;
kernLeft = _kern17;
kernRight = _kern17;
layers = (
{
layerId = "8A13BB0F-AA4F-467F-8A3A-5853E02CF1B4";
shapes = (
{
closed = 1;
nodes = (
(62,0,l),
(62,707,l),
(176,707,l),
(176,293,l),
(394,527,l),
(529,527,l),
(317,306,l),
(539,0,l),
(410,0,l),
(237,235,l),
(176,173,l),
(176,0,l)
);
}
);
width = 548;
}
);
},
{
glyphname = k;
kernLeft = _kern17;
kernRight = _kern17;
layers = (
{
layerId = "8A13BB0F-AA4F-467F-8A3A-5853E02CF1B4";
shapes = (
{
closed = 1;
nodes = (
(62,0,l),
(62,707,l),
(175,707,l),
(175,312,l),
(257,312,l),
(393,527,l),
(521,527,l),
(355,276,l),
(535,0,l),
(403,0,l),
(264,213,l),
(175,213,l),
(175,0,l)
);
}
);
width = 537;
}
);
unicode = 107;
},
{
glyphname = i_alt;
layers = (
{
layerId = "8A13BB0F-AA4F-467F-8A3A-5853E02CF1B4";
shapes = (
{
closed = 1;
nodes = (
(190,746,o),
(219,719,o),
(219,675,cs),
(219,632,o),
(190,605,o),
(147,605,cs),
(104,605,o),
(74,632,o),
(74,675,cs),
(74,719,o),
(104,746,o),
(147,746,cs)
);
},
{
closed = 1;
nodes = (
(89,0,l),
(89,428,l),
(7,428,l),
(7,527,l),
(203,527,l),
(203,0,l)
);
}
);
width = 273;
}
);
},
{
glyphname = j_alt;
layers = (
{
layerId = "8A13BB0F-AA4F-467F-8A3A-5853E02CF1B4";
shapes = (
{
closed = 1;
nodes = (
(180,747,o),
(211,719,o),
(211,675,cs),
(211,632,o),
(180,604,o),
(139,604,cs),
(96,604,o),
(65,632,o),
(65,675,cs),
(65,719,o),
(96,747,o),
(139,747,cs)
);
},
{
closed = 1;
nodes = (
(196,-37,ls),
(196,-156,o),
(144,-211,o),
(21,-211,cs),
(-23,-211,l),
(-23,-112,l),
(1,-112,ls),
(60,-112,o),
(81,-79,o),
(81,-23,cs),
(81,428,l),
(-2,428,l),
(-2,527,l),
(196,527,l)
);
}
);
width = 265;
}
);
},
{
glyphname = s_alt;
kernLeft = _kern5;
kernRight = _kern6;
layers = (
{
layerId = "8A13BB0F-AA4F-467F-8A3A-5853E02CF1B4";
shapes = (
{
closed = 1;
nodes = (
(233,440,o),
(166,432,o),
(167,381,cs),
(167,344,o),
(200,328,o),
(254,319,cs),
(308,310,o),
(370,302,o),
(415,287,cs),
(482,264,o),
(509,217,o),
(509,157,cs),
(509,32,o),
(394,-10,o),
(292,-10,cs),
(225,-10,o),
(170,0,o),
(122,27,cs),
(74,54,o),
(42,97,o),
(38,161,c),
(150,161,l),
(163,103,o),
(239,87,o),
(288,87,cs),
(291,87,o),
(293,87,o),
(295,87,cs),
(322,87,o),
(343,90,o),
(359,97,cs),
(380,106,o),
(397,120,o),
(397,147,cs),
(397,183,o),
(374,199,o),
(335,206,cs),
(275,216,o),
(207,223,o),
(152,242,cs),
(97,261,o),
(56,298,o),
(56,373,cs),
(56,495,o),
(168,536,o),
(276,536,cs),
(402,536,o),
(487,473,o),
(492,375,c),
(387,375,l),
(380,422,o),
(331,439,o),
(272,440,c)
);
}
);
width = 548;
}
);
},
{
glyphname = s;
kernLeft = _kern5;
kernRight = _kern6;
layers = (
{
layerId = "8A13BB0F-AA4F-467F-8A3A-5853E02CF1B4";
shapes = (
{
closed = 1;
nodes = (
(216,441,o),
(159,433,o),
(159,381,cs),
(159,325,o),
(245,317,o),
(289,309,cs),
(403,288,o),
(476,262,o),
(476,153,cs),
(476,32,o),
(370,-7,o),
(265,-7,cs),
(158,-7,o),
(48,33,o),
(34,155,c),
(149,155,l),
(160,102,o),
(225,87,o),
(268,87,cs),
(302,87,o),
(366,97,o),
(366,146,cs),
(366,193,o),
(321,207,o),
(264,216,cs),
(176,230,o),
(49,250,o),
(49,372,cs),
(49,499,o),
(161,536,o),
(257,536,cs),
(373,536,o),
(453,481,o),
(460,380,c),
(353,380,l),
(346,423,o),
(306,440,o),
(255,441,c)
);
}
);
width = 511;
}
);
unicode = 115;
},
{
glyphname = c_alt;
kernLeft = _kern5;
kernRight = _kern6;
layers = (
{
layerId = "8A13BB0F-AA4F-467F-8A3A-5853E02CF1B4";
shapes = (
{
closed = 1;
nodes = (
(121,-7,o),
(38,104,o),
(38,264,cs),
(38,425,o),
(131,536,o),
(294,536,cs),
(408,536,o),
(495,486,o),
(519,372,c),
(401,372,l),
(386,411,o),
(346,434,o),
(293,434,cs),
(192,434,o),
(150,357,o),
(150,263,cs),
(150,171,o),
(193,92,o),
(296,92,cs),
(340,92,o),
(380,107,o),
(397,139,c),
(518,139,l),
(489,33,o),
(398,-7,o),
(292,-7,cs)
);
}
);
width = 557;
}
);
},
{
glyphname = copyright;
layers = (
{
layerId = "8A13BB0F-AA4F-467F-8A3A-5853E02CF1B4";
shapes = (
{
closed = 1;
nodes = (
(701,722,o),
(866,556,o),
(866,308,cs),
(866,52,o),
(705,-105,o),
(461,-105,cs),
(216,-105,o),
(54,52,o),
(54,308,cs),
(54,559,o),
(220,722,o),
(461,722,cs)
);
},
{
closed = 1;
nodes = (
(274,637,o),
(145,510,o),
(145,307,cs),
(145,103,o),
(271,-21,o),
(463,-21,cs),
(655,-21,o),
(778,103,o),
(778,307,cs),
(778,510,o),
(650,637,o),
(463,637,cs)
);
},
{
closed = 1;
nodes = (
(338,96,o),
(272,183,o),
(272,309,cs),
(272,432,o),
(342,519,o),
(469,519,cs),
(565,519,o),
(630,477,o),
(647,380,c),
(551,380,l),
(542,415,o),
(512,435,o),
(469,435,cs),
(394,435,o),
(366,378,o),
(366,309,cs),
(366,238,o),
(396,181,o),
(472,181,cs),
(516,181,o),
(544,202,o),
(552,235,c),
(649,235,l),
(632,138,o),
(565,96,o),
(470,96,cs)
);
}
);
width = 920;
}
);
unicode = 169;
},
{
glyphname = ampersand;
layers = (
{
layerId = "8A13BB0F-AA4F-467F-8A3A-5853E02CF1B4";
shapes = (
{
closed = 1;
nodes = (
(481,55,l),
(428,8,o),
(362,-12,o),
(281,-12,cs),
(161,-12,o),
(62,58,o),
(62,183,cs),
(62,275,o),
(117,335,o),
(197,378,c),
(152,422,o),
(124,472,o),
(124,531,cs),
(124,647,o),
(209,713,o),
(317,713,cs),
(417,713,o),
(498,656,o),
(498,552,cs),
(498,465,o),
(430,402,o),
(354,359,c),
(484,208,l),
(503,243,o),
(514,282,o),
(519,322,c),
(623,322,l),
(616,255,o),
(594,192,o),
(554,133,c),
(675,0,l),
(532,0,l)
);
},
{
closed = 1;
nodes = (
(329,449,o),
(393,491,o),
(393,541,cs),
(393,588,o),
(362,617,o),
(315,617,cs),
(264,617,o),
(228,590,o),
(228,538,cs),
(228,488,o),
(262,457,o),
(289,425,c)
);
},
{
closed = 1;
nodes = (
(258,307,l),
(210,280,o),
(171,244,o),
(171,189,cs),
(171,117,o),
(235,86,o),
(298,86,cs),
(341,86,o),
(383,100,o),
(418,128,c)
);
}
);
width = 694;
}
);
unicode = 38;
},
{
glyphname = dollar;
layers = (
{
layerId = "8A13BB0F-AA4F-467F-8A3A-5853E02CF1B4";
shapes = (
{
closed = 1;
nodes = (
(283,846,l),
(391,846,l),
(391,712,l),
(507,699,o),
(585,630,o),
(592,507,c),
(482,507,l),
(471,586,o),
(414,613,o),
(333,613,cs),
(267,613,o),
(197,588,o),
(197,518,cs),
(197,425,o),
(291,417,o),
(374,402,cs),
(507,377,o),
(609,344,o),
(609,205,cs),
(609,64,o),
(506,2,o),
(386,-6,c),
(386,-137,l),
(279,-137,l),
(279,-3,l),
(154,13,o),
(65,86,o),
(54,210,c),
(170,210,l),
(186,125,o),
(268,98,o),
(343,98,cs),
(414,98,o),
(494,120,o),
(494,198,cs),
(494,289,o),
(377,290,o),
(297,307,cs),
(170,335,o),
(77,385,o),
(77,512,cs),
(77,642,o),
(177,700,o),
(283,713,c)
);
}
);
width = 664;
}
);
unicode = 36;
},
{
glyphname = parenleft;
layers = (
{
layerId = "8A13BB0F-AA4F-467F-8A3A-5853E02CF1B4";
shapes = (
{
closed = 1;
nodes = (
(359,813,l),
(225,650,o),
(174,479,o),
(174,304,cs),
(174,128,o),
(227,-40,o),
(358,-203,c),
(230,-203,l),
(115,-59,o),
(60,131,o),
(60,304,cs),
(60,478,o),
(117,669,o),
(231,813,c)
);
}
);
width = 324;
}
);
unicode = 40;
},
{
glyphname = parenright;
layers = (
{
layerId = "8A13BB0F-AA4F-467F-8A3A-5853E02CF1B4";
shapes = (
{
closed = 1;
nodes = (
(-35,-203,l),
(97,-40,o),
(150,130,o),
(150,305,cs),
(150,481,o),
(97,650,o),
(-34,813,c),
(93,813,l),
(207,669,o),
(264,479,o),
(264,305,cs),
(264,131,o),
(206,-60,o),
(92,-203,c)
);
}
);
width = 324;
}
);
unicode = 41;
},
{
glyphname = cent;
layers = (
{
layerId = "8A13BB0F-AA4F-467F-8A3A-5853E02CF1B4";
shapes = (
{
closed = 1;
nodes = (
(249,-5,l),
(117,18,o),
(54,120,o),
(54,263,cs),
(54,404,o),
(123,507,o),
(249,531,c),
(249,675,l),
(358,675,l),
(358,533,l),
(453,520,o),
(520,467,o),
(537,363,c),
(419,363,l),
(408,408,o),
(366,435,o),
(310,435,cs),
(207,435,o),
(167,357,o),
(167,263,cs),
(167,171,o),
(206,91,o),
(311,91,cs),
(370,91,o),
(410,119,o),
(421,163,c),
(539,163,l),
(520,58,o),
(450,6,o),
(358,-7,c),
(358,-155,l),
(249,-155,l)
);
}
);
width = 593;
}
);
unicode = 162;
},
{
glyphname = section;
layers = (
{
layerId = "8A13BB0F-AA4F-467F-8A3A-5853E02CF1B4";
shapes = (
{
closed = 1;
nodes = (
(243,623,o),
(180,619,o),
(180,564,cs),
(180,519,o),
(240,510,o),
(274,503,cs),
(319,493,o),
(373,486,o),
(408,474,cs),
(473,452,o),
(497,408,o),
(497,347,cs),
(497,308,o),
(479,272,o),
(451,247,c),
(482,224,o),
(497,189,o),
(497,148,cs),
(497,32,o),
(390,-7,o),
(286,-7,cs),
(171,-7,o),
(62,29,o),
(54,154,c),
(161,154,l),
(177,96,o),
(238,81,o),
(281,81,cs),
(328,81,o),
(386,87,o),
(386,142,cs),
(386,173,o),
(355,183,o),
(326,190,cs),
(311,194,o),
(282,200,o),
(227,210,cs),
(147,224,o),
(68,257,o),
(68,355,cs),
(68,400,o),
(85,436,o),
(119,464,c),
(91,488,o),
(74,520,o),
(74,561,cs),
(74,677,o),
(183,714,o),
(279,714,cs),
(383,714,o),
(476,670,o),
(484,563,c),
(383,563,l),
(375,604,o),
(325,623,o),
(279,623,cs)
);
},
{
closed = 1;
nodes = (
(188,412,o),
(175,389,o),
(175,366,cs),
(176,332,o),
(203,314,o),
(240,305,cs),
(276,296,o),
(323,289,o),
(360,282,c),
(379,293,o),
(393,313,o),
(393,338,cs),
(393,375,o),
(364,391,o),
(329,399,cs),
(272,411,o),
(238,416,o),
(205,425,c)
);
}
);
width = 552;
}
);
unicode = 167;
},
{
glyphname = uni04C1;
layers = (
{
layerId = "8A13BB0F-AA4F-467F-8A3A-5853E02CF1B4";
shapes = (
{
closed = 1;
nodes = (
(502,859,o),
(532,879,o),
(539,922,c),
(639,922,l),
(630,823,o),
(562,777,o),
(454,777,cs),
(347,777,o),
(279,823,o),
(271,922,c),
(371,922,l),
(378,879,o),
(408,859,o),
(455,859,cs)
);
},
{
closed = 1;
nodes = (
(396,0,l),
(396,297,l),
(313,297,l),
(142,0,l),
(9,0,l),
(221,363,l),
(11,707,l),
(144,707,l),
(320,401,l),
(396,401,l),
(396,707,l),
(512,707,l),
(512,401,l),
(589,401,l),
(766,707,l),
(897,707,l),
(687,363,l),
(899,0,l),
(766,0,l),
(595,297,l),
(512,297,l),
(512,0,l)
);
}
);
width = 908;
}
);
unicode = 1217;
},
{
glyphname = uni04C2;
layers = (
{
layerId = "8A13BB0F-AA4F-467F-8A3A-5853E02CF1B4";
shapes = (
{
closed = 1;
nodes = (
(448,674,o),
(478,695,o),
(485,738,c),
(586,738,l),
(577,638,o),
(508,592,o),
(401,592,cs),
(293,592,o),
(224,638,o),
(216,738,c),
(317,738,l),
(324,695,o),
(354,674,o),
(401,674,cs)
);
},
{
closed = 1;
nodes = (
(457,0,l),
(344,0,l),
(344,213,l),
(280,213,l),
(144,0,l),
(9,0,l),
(193,276,l),
(23,527,l),
(152,527,l),
(289,311,l),
(344,311,l),
(344,527,l),
(457,527,l),
(457,311,l),
(512,311,l),
(649,527,l),
(778,527,l),
(608,276,l),
(792,0,l),
(658,0,l),
(521,213,l),
(457,213,l)
);
}
);
width = 801;
}
);
unicode = 1218;
},
{
glyphname = w_alt;
kernLeft = _kern20;
kernRight = _kern20;
layers = (
{
layerId = "8A13BB0F-AA4F-467F-8A3A-5853E02CF1B4";
shapes = (
{
closed = 1;
nodes = (
(538,118,l),
(649,527,l),
(770,527,l),
(607,0,l),
(471,0,l),
(390,272,l),
(311,0,l),
(172,0,l),
(9,527,l),
(135,527,l),
(245,118,l),
(335,409,l),
(448,409,l)
);
}
);
width = 779;
}
);
},
{
glyphname = W_alt;
kernLeft = _kern19;
kernRight = _kern19;
layers = (
{
layerId = "8A13BB0F-AA4F-467F-8A3A-5853E02CF1B4";
shapes = (
{
closed = 1;
nodes = (
(529,548,l),
(633,115,l),
(757,707,l),
(881,707,l),
(714,0,l),
(550,0,l),
(449,431,l),
(348,0,l),
(182,0,l),
(9,707,l),
(140,707,l),
(267,115,l),
(373,548,l)
);
}
);
width = 890;
}
);
},
{
glyphname = zero;
layers = (
{
layerId = "8A13BB0F-AA4F-467F-8A3A-5853E02CF1B4";
shapes = (
{
closed = 1;
nodes = (
(606,138,o),
(518,-6,o),
(329,-6,cs),
(141,-6,o),
(52,135,o),
(52,347,cs),
(52,567,o),
(136,716,o),
(329,716,cs),
(516,716,o),
(606,570,o),
(606,354,cs)
);
},
{
closed = 1;
nodes = (
(167,207,o),
(206,97,o),
(329,97,cs),
(450,97,o),
(490,207,o),
(490,354,cs),
(490,499,o),
(450,612,o),
(329,612,cs),
(206,612,o),
(167,499,o),
(167,354,cs)
);
}
);
width = 657;
}
);
unicode = 48;
},
{
glyphname = one;
layers = (
{
layerId = "8A13BB0F-AA4F-467F-8A3A-5853E02CF1B4";
shapes = (
{
closed = 1;
nodes = (
(280,0,l),
(164,0,l),
(164,544,l),
(20,544,l),
(20,623,l),
(99,626,o),
(160,644,o),
(195,707,c),
(280,707,l)
);
}
);
width = 382;
}
);
unicode = 49;
},
{
glyphname = two;
layers = (
{
layerId = "8A13BB0F-AA4F-467F-8A3A-5853E02CF1B4";
shapes = (
{
closed = 1;
nodes = (
(220,264,ls),
(284,320,o),
(391,394,o),
(391,491,cs),
(391,563,o),
(347,611,o),
(267,611,cs),
(203,611,o),
(156,579,o),
(145,530,c),
(31,530,l),
(36,591,o),
(68,639,o),
(112,670,cs),
(156,701,o),
(206,715,o),
(274,715,cs),
(401,715,o),
(506,646,o),
(506,505,cs),
(506,394,o),
(442,319,o),
(370,258,cs),
(275,176,o),
(225,138,o),
(183,103,c),
(506,103,l),
(506,0,l),
(25,0,l),
(25,95,l)
);
}
);
width = 551;
}
);
unicode = 50;
},
{
glyphname = three;
layers = (
{
layerId = "8A13BB0F-AA4F-467F-8A3A-5853E02CF1B4";
shapes = (
{
closed = 1;
nodes = (
(164,-7,o),
(47,46,o),
(28,182,c),
(145,182,l),
(166,114,o),
(236,97,o),
(294,97,cs),
(355,97,o),
(435,116,o),
(435,208,cs),
(435,293,o),
(361,310,o),
(292,310,cs),
(222,310,l),
(222,408,l),
(263,408,ls),
(328,408,o),
(409,432,o),
(409,512,cs),
(409,590,o),
(351,612,o),
(288,612,cs),
(233,612,o),
(179,590,o),
(164,529,c),
(50,529,l),
(66,660,o),
(170,716,o),
(293,716,cs),
(413,716,o),
(523,666,o),
(523,530,cs),
(523,474,o),
(500,415,o),
(427,378,c),
(511,355,o),
(552,293,o),
(552,209,cs),
(552,56,o),
(432,-7,o),
(294,-7,cs)
);
}
);
width = 604;
}
);
unicode = 51;
},
{
glyphname = four;
layers = (
{
layerId = "8A13BB0F-AA4F-467F-8A3A-5853E02CF1B4";
shapes = (
{
closed = 1;
nodes = (
(517,707,l),
(517,238,l),
(598,238,l),
(598,136,l),
(517,136,l),
(517,0,l),
(402,0,l),
(402,136,l),
(37,136,l),
(37,219,l),
(368,707,l)
);
},
{
closed = 1;
nodes = (
(171,238,l),
(402,238,l),
(402,584,l)
);
}
);
width = 630;
}
);
unicode = 52;
},
{
glyphname = seven;
layers = (
{
layerId = "8A13BB0F-AA4F-467F-8A3A-5853E02CF1B4";
shapes = (
{
closed = 1;
nodes = (
(85,0,l),
(358,603,l),
(7,603,l),
(7,707,l),
(489,707,l),
(489,617,l),
(214,0,l)
);
}
);
width = 507;
}
);
unicode = 55;
},
{
glyphname = eight;
layers = (
{
layerId = "8A13BB0F-AA4F-467F-8A3A-5853E02CF1B4";
shapes = (
{
closed = 1;
nodes = (
(569,43,o),
(438,-8,o),
(311,-8,cs),
(180,-8,o),
(52,47,o),
(52,198,cs),
(52,279,o),
(87,341,o),
(167,372,c),
(98,407,o),
(76,472,o),
(76,526,cs),
(76,662,o),
(189,716,o),
(312,716,cs),
(433,716,o),
(546,662,o),
(546,526,cs),
(546,472,o),
(522,407,o),
(454,374,c),
(534,343,o),
(569,279,o),
(569,198,cs)
);
},
{
closed = 1;
nodes = (
(246,614,o),
(191,586,o),
(191,513,cs),
(191,441,o),
(243,408,o),
(311,408,cs),
(376,408,o),
(430,440,o),
(430,509,cs),
(430,585,o),
(376,614,o),
(311,614,cs)
);
},
{
closed = 1;
nodes = (
(238,315,o),
(168,285,o),
(168,205,cs),
(168,117,o),
(251,94,o),
(311,94,cs),
(372,94,o),
(452,117,o),
(452,205,cs),
(452,285,o),
(382,315,o),
(310,315,cs)
);
}
);
width = 621;
}
);
unicode = 56;
},
{
glyphname = nine;
layers = (
{
layerId = "8A13BB0F-AA4F-467F-8A3A-5853E02CF1B4";
shapes = (
{
closed = 1;
nodes = (
(419,278,o),
(348,252,o),
(278,252,cs),
(146,252,o),
(51,337,o),
(51,478,cs),
(51,623,o),
(159,714,o),
(299,714,cs),
(398,714,o),
(473,665,o),
(512,598,cs),
(551,530,o),
(567,440,o),
(568,353,cs),
(570,171,o),
(506,-7,o),
(293,-7,cs),
(178,-7,o),
(75,48,o),
(56,167,c),
(174,167,l),
(191,119,o),
(242,96,o),
(293,96,cs),
(371,96,o),
(417,143,o),
(439,202,cs),
(455,246,o),
(458,293,o),
(458,338,c)
);
},
{
closed = 1;
nodes = (
(165,404,o),
(216,354,o),
(296,354,cs),
(370,354,o),
(429,401,o),
(430,474,cs),
(432,549,o),
(380,611,o),
(299,611,cs),
(222,611,o),
(166,562,o),
(165,485,c)
);
}
);
width = 619;
}
);
unicode = 57;
},
{
glyphname = uni0430;
kernLeft = _kern27;
kernRight = _kern27;
layers = (
{
layerId = "8A13BB0F-AA4F-467F-8A3A-5853E02CF1B4";
shapes = (
{
closed = 1;
nodes = (
(402,65,l),
(367,16,o),
(308,-7,o),
(237,-7,cs),
(128,-7,o),
(44,48,o),
(44,154,cs),
(44,268,o),
(142,315,o),
(261,315,cs),
(396,315,l),
(396,392,o),
(366,437,o),
(279,438,c),
(228,438,o),
(189,422,o),
(177,382,c),
(60,382,l),
(76,494,o),
(182,536,o),
(283,536,cs),
(348,536,o),
(406,520,o),
(447,479,cs),
(494,431,o),
(506,363,o),
(506,284,cs),
(506,0,l),
(407,0,l)
);
},
{
closed = 1;
nodes = (
(286,234,ls),
(230,234,o),
(158,225,o),
(158,161,cs),
(158,110,o),
(200,84,o),
(253,84,cs),
(337,84,o),
(396,127,o),
(396,234,c)
);
}
);
width = 566;
}
);
unicode = 1072;
},
{
glyphname = uni0435;
kernLeft = _kern9;
kernRight = _kern10;
layers = (
{
layerId = "8A13BB0F-AA4F-467F-8A3A-5853E02CF1B4";
shapes = (
{
closed = 1;
nodes = (
(156,225,l),
(161,149,o),
(207,87,o),
(297,87,cs),
(345,87,o),
(389,102,o),
(408,145,c),
(525,145,l),
(498,37,o),
(402,-7,o),
(295,-7,cs),
(126,-7,o),
(42,100,o),
(42,264,cs),
(42,422,o),
(136,536,o),
(292,536,cs),
(455,536,o),
(535,421,o),
(535,276,cs),
(535,259,o),
(534,242,o),
(532,225,c)
);
},
{
closed = 1;
nodes = (
(424,311,l),
(420,394,o),
(369,437,o),
(293,437,cs),
(209,437,o),
(165,380,o),
(157,311,c)
);
}
);
width = 576;
}
);
unicode = 1077;
},
{
glyphname = uni043E;
kernLeft = _kern9;
kernRight = _kern10;
layers = (
{
layerId = "8A13BB0F-AA4F-467F-8A3A-5853E02CF1B4";
shapes = (
{
closed = 1;
nodes = (
(466,536,o),
(559,426,o),
(559,264,cs),
(559,100,o),
(470,-7,o),
(299,-7,cs),
(131,-7,o),
(42,101,o),
(42,264,cs),
(42,426,o),
(133,536,o),
(299,536,cs)
);
},
{
closed = 1;
nodes = (
(402,92,o),
(445,168,o),
(445,263,cs),
(445,360,o),
(402,434,o),
(299,434,cs),
(199,434,o),
(154,360,o),
(154,263,cs),
(154,168,o),
(198,92,o),
(299,92,cs)
);
}
);
width = 601;
}
);
unicode = 1086;
},
{
glyphname = uni0441;
kernLeft = _kern9;
kernRight = _kern10;
layers = (
{
layerId = "8A13BB0F-AA4F-467F-8A3A-5853E02CF1B4";
shapes = (
{
closed = 1;
nodes = (
(125,-7,o),
(42,102,o),
(42,262,cs),
(42,420,o),
(133,536,o),
(297,536,cs),
(412,536,o),
(503,486,o),
(524,363,c),
(406,363,l),
(394,408,o),
(352,434,o),
(295,434,cs),
(193,434,o),
(154,353,o),
(154,261,cs),
(154,167,o),
(196,92,o),
(297,92,cs),
(357,92,o),
(398,121,o),
(409,165,c),
(526,165,l),
(504,43,o),
(407,-7,o),
(294,-7,cs)
);
}
);
width = 562;
}
);
unicode = 1089;
},
{
glyphname = uni0218;
layers = (
{
layerId = "8A13BB0F-AA4F-467F-8A3A-5853E02CF1B4";
shapes = (
{
closed = 1;
nodes = (
(258,613,o),
(183,595,o),
(183,519,cs),
(183,466,o),
(222,438,o),
(275,424,cs),
(336,408,o),
(373,401,o),
(388,397,cs),
(497,369,o),
(592,335,o),
(592,205,cs),
(592,54,o),
(476,-8,o),
(333,-8,cs),
(186,-8,o),
(62,52,o),
(43,202,c),
(162,202,l),
(183,122,o),
(260,98,o),
(334,98,cs),
(409,98,o),
(475,121,o),
(475,194,cs),
(475,249,o),
(442,267,o),
(398,280,cs),
(254,320,o),
(65,331,o),
(65,513,cs),
(65,665,o),
(194,716,o),
(317,716,cs),
(450,716,o),
(564,660,o),
(575,515,c),
(460,515,l),
(452,586,o),
(391,610,o),
(319,613,c)
);
},
{
closed = 1;
nodes = (
(283,-186,o),
(259,-165,o),
(259,-132,cs),
(259,-97,o),
(286,-74,o),
(321,-74,cs),
(368,-74,o),
(390,-111,o),
(390,-152,cs),
(390,-213,o),
(342,-283,o),
(281,-304,c),
(257,-270,l),
(284,-251,o),
(310,-222,o),
(318,-189,c)
);
}
);
width = 636;
}
);
unicode = 536;
},
{
glyphname = uni0219;
kernLeft = _kern5;
kernRight = _kern6;
layers = (
{
layerId = "8A13BB0F-AA4F-467F-8A3A-5853E02CF1B4";
shapes = (
{
closed = 1;
nodes = (
(220,441,o),
(163,433,o),
(163,381,cs),
(163,354,o),
(182,330,o),
(253,317,cs),
(388,293,o),
(480,275,o),
(480,153,cs),
(480,32,o),
(374,-7,o),
(272,-7,cs),
(165,-7,o),
(51,31,o),
(38,155,c),
(154,155,l),
(167,102,o),
(228,87,o),
(270,87,cs),
(295,87,o),
(370,88,o),
(370,145,cs),
(370,204,o),
(299,210,o),
(217,227,cs),
(139,243,o),
(53,268,o),
(53,372,cs),
(53,499,o),
(165,536,o),
(261,536,cs),
(377,536,o),
(457,481,o),
(464,380,c),
(357,380,l),
(350,423,o),
(310,438,o),
(259,441,c)
);
},
{
closed = 1;
nodes = (
(235,-187,o),
(211,-166,o),
(211,-133,cs),
(211,-98,o),
(238,-74,o),
(273,-74,cs),
(321,-74,o),
(343,-112,o),
(343,-153,cs),
(343,-215,o),
(294,-281,o),
(233,-305,c),
(209,-271,l),
(236,-252,o),
(262,-223,o),
(270,-190,c)
);
}
);
width = 520;
}
);
unicode = 537;
},
{
glyphname = uni021A;
kernLeft = _kern28;
kernRight = _kern28;
layers = (
{
layerId = "8A13BB0F-AA4F-467F-8A3A-5853E02CF1B4";
shapes = (
{
closed = 1;
nodes = (
(347,0,l),
(231,0,l),
(231,603,l),
(9,603,l),
(9,707,l),
(569,707,l),
(569,603,l),
(347,603,l)
);
},
{
closed = 1;
nodes = (
(250,-186,o),
(226,-165,o),
(226,-132,cs),
(226,-97,o),
(253,-74,o),
(288,-74,cs),
(335,-74,o),
(357,-111,o),
(357,-152,cs),
(357,-213,o),
(309,-283,o),
(248,-304,c),
(224,-270,l),
(251,-251,o),
(277,-222,o),
(285,-189,c)
);
}
);
width = 578;
}
);
unicode = 538;
},
{
glyphname = uni021B;
kernLeft = _kern21;
kernRight = _kern21;
layers = (
{
layerId = "8A13BB0F-AA4F-467F-8A3A-5853E02CF1B4";
shapes = (
{
closed = 1;
nodes = (
(220,527,l),
(354,527,l),
(354,428,l),
(220,428,l),
(220,185,ls),
(220,126,o),
(242,98,o),
(305,98,cs),
(346,98,l),
(346,0,l),
(288,0,ls),
(157,0,o),
(107,50,o),
(107,171,cs),
(107,428,l),
(24,428,l),
(24,527,l),
(107,527,l),
(107,676,l),
(220,676,l)
);
},
{
closed = 1;
nodes = (
(177,-187,o),
(153,-166,o),
(153,-133,cs),
(153,-98,o),
(180,-74,o),
(215,-74,cs),
(262,-74,o),
(284,-112,o),
(284,-153,cs),
(284,-215,o),
(236,-281,o),
(175,-305,c),
(151,-271,l),
(178,-252,o),
(204,-223,o),
(212,-190,c)
);
}
);
width = 388;
}
);
unicode = 539;
},
{
glyphname = question;
layers = (
{
layerId = "8A13BB0F-AA4F-467F-8A3A-5853E02CF1B4";
shapes = (
{
closed = 1;
nodes = (
(190,218,l),
(187,229,o),
(188,238,o),
(188,249,cs),
(188,371,o),
(358,417,o),
(358,525,cs),
(358,585,o),
(319,612,o),
(251,612,cs),
(200,612,o),
(151,590,o),
(143,534,c),
(32,534,l),
(37,638,o),
(118,716,o),
(258,716,cs),
(371,716,o),
(472,665,o),
(472,537,cs),
(472,477,o),
(449,434,o),
(410,391,cs),
(361,337,o),
(298,298,o),
(298,225,cs),
(298,218,l)
);
},
{
closed = 1;
nodes = (
(290,137,o),
(318,107,o),
(318,63,cs),
(318,20,o),
(290,-8,o),
(245,-8,cs),
(200,-8,o),
(171,19,o),
(171,63,cs),
(171,107,o),
(200,137,o),
(245,137,cs)
);
}
);
width = 522;
}
);
unicode = 63;
},
{
glyphname = uni2116;
layers = (
{
layerId = "8A13BB0F-AA4F-467F-8A3A-5853E02CF1B4";
shapes = (
{
closed = 1;
nodes = (
(753,392,o),
(698,464,o),
(698,556,cs),
(698,652,o),
(753,719,o),
(857,719,cs),
(959,719,o),
(1014,651,o),
(1014,556,cs),
(1014,464,o),
(957,392,o),
(857,392,cs)
);
},
{
closed = 1;
nodes = (
(54,0,l),
(54,707,l),
(180,707,l),
(498,179,l),
(498,707,l),
(613,707,l),
(613,0,l),
(488,0,l),
(169,526,l),
(169,0,l)
);
},
{
closed = 1;
nodes = (
(806,632,o),
(788,596,o),
(788,556,cs),
(788,513,o),
(806,479,o),
(857,479,cs),
(905,479,o),
(923,513,o),
(923,556,cs),
(923,596,o),
(905,632,o),
(857,632,cs)
);
},
{
closed = 1;
nodes = (
(709,348,l),
(1002,348,l),
(1002,260,l),
(709,260,l)
);
}
);
width = 1068;
}
);
unicode = 8470;
},
{
glyphname = uni0401;
layers = (
{
layerId = "8A13BB0F-AA4F-467F-8A3A-5853E02CF1B4";
shapes = (
{
closed = 1;
nodes = (
(256,928,o),
(286,903,o),
(286,859,cs),
(286,815,o),
(258,789,o),
(215,789,cs),
(172,789,o),
(143,815,o),
(143,859,cs),
(143,903,o),
(174,928,o),
(215,928,cs)
);
},
{
closed = 1;
nodes = (
(493,928,o),
(523,903,o),
(523,859,cs),
(523,815,o),
(495,789,o),
(452,789,cs),
(408,789,o),
(380,815,o),
(380,859,cs),
(380,903,o),
(409,928,o),
(452,928,cs)
);
},
{
closed = 1;
nodes = (
(82,707,l),
(573,707,l),
(573,603,l),
(198,603,l),
(198,400,l),
(530,400,l),
(530,296,l),
(198,296,l),
(198,103,l),
(573,103,l),
(573,0,l),
(82,0,l)
);
}
);
width = 616;
}
);
unicode = 1025;
},
{
glyphname = asciitilde;
layers = (
{
layerId = "8A13BB0F-AA4F-467F-8A3A-5853E02CF1B4";
shapes = (
{
closed = 1;
nodes = (
(82,257,l),
(82,260,o),
(82,264,o),
(82,267,cs),
(82,351,o),
(107,458,o),
(230,458,cs),
(334,458,o),
(381,346,o),
(431,346,cs),
(477,346,o),
(476,420,o),
(476,452,c),
(581,452,l),
(581,356,o),
(555,251,o),
(431,251,cs),
(386,251,o),
(343,279,o),
(312,307,cs),
(281,335,o),
(256,363,o),
(231,363,cs),
(186,363,o),
(188,286,o),
(188,257,c)
);
}
);
width = 663;
}
);
unicode = 126;
},
{
glyphname = trademark;
layers = (
{
layerId = "8A13BB0F-AA4F-467F-8A3A-5853E02CF1B4";
shapes = (
{
closed = 1;
nodes = (
(571,707,l),
(666,707,l),
(666,421,l),
(588,421,l),
(588,602,l),
(522,477,l),
(489,477,l),
(423,602,l),
(423,421,l),
(344,421,l),
(344,707,l),
(442,707,l),
(507,585,l)
);
},
{
closed = 1;
nodes = (
(146,634,l),
(54,634,l),
(54,707,l),
(319,707,l),
(319,634,l),
(225,634,l),
(225,421,l),
(146,421,l)
);
}
);
width = 720;
}
);
unicode = 8482;
},
{
glyphname = registered;
layers = (
{
layerId = "8A13BB0F-AA4F-467F-8A3A-5853E02CF1B4";
shapes = (
{
closed = 1;
nodes = (
(355,738,o),
(429,666,o),
(429,545,cs),
(429,424,o),
(355,356,o),
(239,356,cs),
(122,356,o),
(47,424,o),
(47,545,cs),
(47,666,o),
(123,738,o),
(239,738,cs)
);
},
{
closed = 1;
nodes = (
(152,691,o),
(98,636,o),
(98,545,cs),
(98,454,o),
(152,405,o),
(239,405,cs),
(324,405,o),
(378,454,o),
(378,545,cs),
(378,636,o),
(326,691,o),
(239,691,cs)
);
},
{
closed = 1;
nodes = (
(333,452,l),
(279,452,l),
(232,521,l),
(210,521,l),
(210,452,l),
(165,452,l),
(165,649,l),
(246,649,ls),
(289,649,o),
(320,635,o),
(320,586,cs),
(320,557,o),
(308,537,o),
(283,527,c)
);
},
{
closed = 1;
nodes = (
(246,561,ls),
(261,561,o),
(275,569,o),
(275,585,cs),
(275,602,o),
(263,607,o),
(248,607,cs),
(210,607,l),
(210,561,l)
);
}
);
width = 476;
}
);
unicode = 174;
},
{
glyphname = degree;
layers = (
{
layerId = "8A13BB0F-AA4F-467F-8A3A-5853E02CF1B4";
shapes = (
{
closed = 1;
nodes = (
(275,787,o),
(335,733,o),
(335,643,cs),
(335,552,o),
(275,504,o),
(194,504,cs),
(111,504,o),
(54,552,o),
(54,643,cs),
(54,732,o),
(115,787,o),
(195,787,cs)
);
},
{
closed = 1;
nodes = (
(234,574,o),
(261,599,o),
(261,644,cs),
(261,691,o),
(234,716,o),
(195,716,cs),
(156,716,o),
(127,691,o),
(127,644,cs),
(127,599,o),
(155,574,o),
(195,574,cs)
);
}
);
width = 389;
}
);
unicode = 176;
},
{
glyphname = bullet;
layers = (
{
layerId = "8A13BB0F-AA4F-467F-8A3A-5853E02CF1B4";
shapes = (
{
closed = 1;
nodes = (
(253,491,o),
(308,444,o),
(308,363,cs),
(308,286,o),
(253,239,o),
(181,239,cs),
(109,239,o),
(54,286,o),
(54,363,cs),
(54,444,o),
(109,491,o),
(181,491,cs)
);
}
);
width = 362;
}
);
unicode = 8226;
},
{
glyphname = uni27F5;
layers = (
{
layerId = "8A13BB0F-AA4F-467F-8A3A-5853E02CF1B4";
shapes = (
{
closed = 1;
nodes = (
(1324,318,l),
(1324,220,l),
(241,220,l),
(455,26,l),
(392,-51,l),
(54,270,l),
(392,591,l),
(454,513,l),
(239,318,l)
);
}
);
width = 1378;
}
);
unicode = 10229;
},
{
glyphname = uni27F6;
layers = (
{
layerId = "8A13BB0F-AA4F-467F-8A3A-5853E02CF1B4";
shapes = (
{
closed = 1;
nodes = (
(1137,220,l),
(54,220,l),
(54,318,l),
(1137,318,l),
(923,512,l),
(985,591,l),
(1324,269,l),
(986,-51,l),
(923,26,l)
);
}
);
width = 1378;
}
);
unicode = 10230;
},
{
glyphname = arrowup;
layers = (
{
layerId = "8A13BB0F-AA4F-467F-8A3A-5853E02CF1B4";
shapes = (
{
closed = 1;
nodes = (
(410,0,l),
(314,0,l),
(314,478,l),
(129,255,l),
(54,317,l),
(362,672,l),
(671,317,l),
(595,255,l),
(410,478,l)
);
}
);
width = 725;
}
);
unicode = 8593;
},
{
glyphname = arrowdown;
layers = (
{
layerId = "8A13BB0F-AA4F-467F-8A3A-5853E02CF1B4";
shapes = (
{
closed = 1;
nodes = (
(130,416,l),
(315,194,l),
(315,672,l),
(411,672,l),
(411,194,l),
(596,416,l),
(671,354,l),
(363,0,l),
(54,354,l)
);
}
);
width = 725;
}
);
unicode = 8595;
},
{
glyphname = uni21BA;
layers = (
{
layerId = "8A13BB0F-AA4F-467F-8A3A-5853E02CF1B4";
shapes = (
{
closed = 1;
nodes = (
(676,661,l),
(779,588,o),
(829,460,o),
(829,337,cs),
(829,112,o),
(671,-45,o),
(444,-45,cs),
(221,-45,o),
(55,109,o),
(55,346,cs),
(55,474,o),
(105,586,o),
(204,669,c),
(275,590,l),
(202,523,o),
(166,429,o),
(166,341,cs),
(166,187,o),
(283,60,o),
(446,60,cs),
(606,60,o),
(718,180,o),
(718,337,cs),
(718,434,o),
(680,534,o),
(603,596,c),
(600,385,l),
(509,385,l),
(516,767,l),
(901,721,l),
(887,629,l)
);
}
);
width = 955;
}
);
unicode = 8634;
},
{
glyphname = uni21BB;
layers = (
{
layerId = "8A13BB0F-AA4F-467F-8A3A-5853E02CF1B4";
shapes = (
{
closed = 1;
nodes = (
(68,629,l),
(54,721,l),
(439,767,l),
(446,385,l),
(355,385,l),
(352,596,l),
(274,533,o),
(237,432,o),
(237,334,cs),
(237,175,o),
(355,60,o),
(514,60,cs),
(677,60,o),
(789,187,o),
(789,341,cs),
(789,429,o),
(754,523,o),
(679,590,c),
(751,669,l),
(850,586,o),
(900,474,o),
(900,346,cs),
(900,109,o),
(734,-45,o),
(511,-45,cs),
(295,-45,o),
(125,107,o),
(125,326,cs),
(125,457,o),
(172,579,o),
(278,661,c)
);
}
);
width = 955;
}
);
unicode = 8635;
},
{
glyphname = uni21B7;
layers = (
{
layerId = "8A13BB0F-AA4F-467F-8A3A-5853E02CF1B4";
shapes = (
{
closed = 1;
nodes = (
(939,191,l),
(976,106,l),
(616,-33,l),
(510,341,l),
(599,361,l),
(655,152,l),
(692,203,o),
(715,278,o),
(715,346,cs),
(715,507,o),
(606,630,o),
(440,630,cs),
(284,630,o),
(175,517,o),
(164,365,c),
(54,365,l),
(65,577,o),
(217,736,o),
(440,736,cs),
(675,736,o),
(824,572,o),
(824,347,cs),
(824,264,o),
(799,182,o),
(751,114,c)
);
}
);
width = 1030;
}
);
unicode = 8631;
},
{
glyphname = uni21B6;
layers = (
{
layerId = "8A13BB0F-AA4F-467F-8A3A-5853E02CF1B4";
shapes = (
{
closed = 1;
nodes = (
(279,114,l),
(231,182,o),
(206,264,o),
(206,347,cs),
(206,572,o),
(355,736,o),
(590,736,cs),
(815,736,o),
(963,577,o),
(976,365,c),
(866,365,l),
(855,517,o),
(746,630,o),
(590,630,cs),
(424,630,o),
(315,507,o),
(315,346,cs),
(315,278,o),
(336,203,o),
(375,152,c),
(431,361,l),
(521,341,l),
(415,-33,l),
(54,106,l),
(91,191,l)
);
}
);
width = 1030;
}
);
unicode = 8630;
},
{
glyphname = five;
layers = (
{
layerId = "8A13BB0F-AA4F-467F-8A3A-5853E02CF1B4";
shapes = (
{
closed = 1;
nodes = (
(73,311,l),
(111,707,l),
(537,707,l),
(537,604,l),
(208,604,l),
(188,420,l),
(227,445,o),
(268,460,o),
(331,460,cs),
(472,460,o),
(565,375,o),
(565,234,cs),
(565,82,o),
(452,-8,o),
(306,-8,cs),
(183,-8,o),
(76,49,o),
(57,183,c),
(172,183,l),
(188,127,o),
(248,97,o),
(304,97,cs),
(384,97,o),
(447,136,o),
(447,228,cs),
(447,313,o),
(392,360,o),
(311,360,cs),
(260,360,o),
(219,342,o),
(186,311,c)
);
}
);
width = 614;
}
);
unicode = 53;
},
{
glyphname = six;
layers = (
{
layerId = "8A13BB0F-AA4F-467F-8A3A-5853E02CF1B4";
shapes = (
{
closed = 1;
nodes = (
(207,430,o),
(271,456,o),
(340,456,cs),
(480,456,o),
(571,369,o),
(571,229,cs),
(571,89,o),
(465,-6,o),
(329,-6,cs),
(125,-6,o),
(54,158,o),
(53,332,cs),
(52,463,o),
(80,571,o),
(160,648,cs),
(203,689,o),
(263,715,o),
(340,715,cs),
(456,715,o),
(545,659,o),
(568,540,c),
(452,540,l),
(433,589,o),
(387,612,o),
(336,612,cs),
(293,612,o),
(258,597,o),
(231,570,cs),
(183,522,o),
(163,443,o),
(163,374,c)
);
},
{
closed = 1;
nodes = (
(455,301,o),
(404,354,o),
(324,354,cs),
(249,354,o),
(189,301,o),
(189,225,cs),
(189,156,o),
(246,96,o),
(323,96,cs),
(400,96,o),
(455,146,o),
(455,221,cs)
);
}
);
width = 620;
}
);
unicode = 54;
},
{
glyphname = cedilla;
layers = (
{
layerId = "8A13BB0F-AA4F-467F-8A3A-5853E02CF1B4";
shapes = (
{
closed = 1;
nodes = (
(321,16,l),
(304,-50,l),
(313,-49,o),
(317,-49,o),
(324,-49,cs),
(375,-49,o),
(409,-77,o),
(409,-133,cs),
(409,-222,o),
(333,-255,o),
(261,-255,cs),
(246,-255,o),
(230,-254,o),
(212,-252,c),
(213,-185,l),
(224,-186,o),
(234,-187,o),
(245,-187,cs),
(293,-187,o),
(323,-174,o),
(323,-143,cs),
(323,-118,o),
(304,-108,o),
(268,-108,cs),
(249,-108,o),
(229,-109,o),
(214,-112,c),
(247,16,l)
);
}
);
width = 605;
}
);
unicode = 184;
},
{
glyphname = dotlessi;
layers = (
{
layerId = "8A13BB0F-AA4F-467F-8A3A-5853E02CF1B4";
shapes = (
{
closed = 1;
nodes = (
(176,0,l),
(62,0,l),
(62,527,l),
(176,527,l)
);
}
);
width = 238;
}
);
unicode = 305;
},
{
glyphname = ccedilla;
kernLeft = _kern5;
kernRight = _kern6;
layers = (
{
layerId = "8A13BB0F-AA4F-467F-8A3A-5853E02CF1B4";
shapes = (
{
closed = 1;
nodes = (
(331,-120,o),
(306,-110,o),
(277,-110,cs),
(257,-110,o),
(237,-111,o),
(221,-114,c),
(248,-4,l),
(107,12,o),
(39,116,o),
(39,262,cs),
(39,420,o),
(130,536,o),
(294,536,cs),
(415,536,o),
(500,483,o),
(521,363,c),
(403,363,l),
(391,410,o),
(349,434,o),
(292,434,cs),
(189,434,o),
(151,353,o),
(151,261,cs),
(151,167,o),
(195,92,o),
(295,92,cs),
(355,92,o),
(395,121,o),
(406,165,c),
(523,165,l),
(504,54,o),
(420,3,o),
(323,-5,c),
(312,-51,l),
(323,-50,o),
(330,-50,o),
(333,-50,cs),
(384,-50,o),
(418,-81,o),
(418,-138,cs),
(418,-226,o),
(341,-259,o),
(264,-259,cs),
(250,-259,o),
(235,-258,o),
(219,-256,c),
(220,-188,l),
(229,-189,o),
(243,-190,o),
(251,-190,cs),
(300,-190,o),
(331,-178,o),
(331,-145,cs)
);
}
);
width = 559;
}
);
unicode = 231;
},
{
glyphname = uni0162;
kernLeft = _kern28;
kernRight = _kern28;
layers = (
{
layerId = "8A13BB0F-AA4F-467F-8A3A-5853E02CF1B4";
shapes = (
{
closed = 1;
nodes = (
(327,0,l),
(314,-50,l),
(325,-49,o),
(329,-49,o),
(334,-49,cs),
(383,-49,o),
(420,-79,o),
(420,-135,cs),
(420,-221,o),
(347,-255,o),
(271,-255,cs),
(257,-255,o),
(241,-254,o),
(223,-252,c),
(224,-186,l),
(236,-187,o),
(247,-188,o),
(258,-188,cs),
(305,-188,o),
(334,-176,o),
(334,-143,cs),
(334,-112,o),
(302,-107,o),
(272,-107,cs),
(255,-107,o),
(237,-108,o),
(225,-112,c),
(255,0,l),
(234,0,l),
(234,603,l),
(9,603,l),
(9,707,l),
(574,707,l),
(574,603,l),
(350,603,l),
(350,0,l)
);
}
);
width = 583;
}
);
unicode = 354;
},
{
glyphname = uni0163;
kernLeft = _kern21;
kernRight = _kern21;
layers = (
{
layerId = "8A13BB0F-AA4F-467F-8A3A-5853E02CF1B4";
shapes = (
{
closed = 1;
nodes = (
(220,527,l),
(353,527,l),
(353,428,l),
(220,428,l),
(220,185,ls),
(220,125,o),
(243,98,o),
(304,98,cs),
(343,98,l),
(343,0,l),
(260,0,l),
(244,-51,l),
(256,-50,o),
(258,-50,o),
(265,-50,cs),
(316,-50,o),
(351,-77,o),
(351,-136,cs),
(351,-222,o),
(278,-259,o),
(198,-259,cs),
(184,-259,o),
(169,-258,o),
(153,-256,c),
(154,-188,l),
(166,-191,o),
(176,-191,o),
(187,-191,cs),
(235,-191,o),
(264,-178,o),
(264,-145,cs),
(264,-118,o),
(241,-110,o),
(208,-110,cs),
(193,-110,o),
(170,-111,o),
(155,-114,c),
(190,14,l),
(130,37,o),
(107,88,o),
(107,171,cs),
(107,428,l),
(24,428,l),
(24,527,l),
(107,527,l),
(107,676,l),
(220,676,l)
);
}
);
width = 387;
}
);
unicode = 355;
},
{
glyphname = Ccedilla;
kernLeft = _kern3;
kernRight = _kern4;
layers = (
{
layerId = "8A13BB0F-AA4F-467F-8A3A-5853E02CF1B4";
shapes = (
{
closed = 1;
nodes = (
(224,612,o),
(162,490,o),
(162,356,cs),
(162,217,o),
(228,97,o),
(378,97,cs),
(470,97,o),
(536,137,o),
(552,208,c),
(670,208,l),
(648,79,o),
(543,3,o),
(404,-5,c),
(393,-50,l),
(406,-49,o),
(409,-49,o),
(413,-49,cs),
(464,-49,o),
(499,-77,o),
(499,-133,cs),
(499,-221,o),
(426,-255,o),
(350,-255,cs),
(336,-255,o),
(320,-254,o),
(302,-252,c),
(303,-187,l),
(314,-188,o),
(323,-188,o),
(332,-188,cs),
(383,-188,o),
(413,-176,o),
(413,-143,cs),
(413,-115,o),
(385,-107,o),
(353,-107,cs),
(332,-107,o),
(315,-109,o),
(304,-112,c),
(332,-4,l),
(140,15,o),
(43,159,o),
(43,354,cs),
(43,560,o),
(158,716,o),
(378,716,cs),
(534,716,o),
(642,642,o),
(663,499,c),
(549,499,l),
(532,568,o),
(469,612,o),
(376,612,cs)
);
}
);
width = 713;
}
);
unicode = 199;
},
{
glyphname = scedilla;
kernLeft = _kern5;
kernRight = _kern6;
layers = (
{
layerId = "8A13BB0F-AA4F-467F-8A3A-5853E02CF1B4";
shapes = (
{
closed = 1;
nodes = (
(220,441,o),
(163,433,o),
(163,381,cs),
(163,346,o),
(191,329,o),
(236,321,cs),
(299,309,o),
(363,298,o),
(408,277,cs),
(452,256,o),
(480,221,o),
(480,153,cs),
(480,43,o),
(391,-3,o),
(292,-6,c),
(280,-52,l),
(287,-51,o),
(293,-51,o),
(300,-51,cs),
(352,-51,o),
(387,-79,o),
(387,-136,cs),
(387,-224,o),
(314,-258,o),
(237,-258,cs),
(223,-258,o),
(207,-257,o),
(189,-255,c),
(190,-188,l),
(201,-189,o),
(211,-190,o),
(222,-190,cs),
(270,-190,o),
(300,-179,o),
(300,-146,cs),
(300,-119,o),
(278,-111,o),
(247,-111,cs),
(224,-111,o),
(206,-112,o),
(191,-115,c),
(219,-3,l),
(132,8,o),
(46,50,o),
(38,155,c),
(154,155,l),
(167,102,o),
(229,87,o),
(271,87,cs),
(313,87,o),
(370,94,o),
(370,145,cs),
(370,165,o),
(363,179,o),
(348,189,cs),
(319,208,o),
(266,216,o),
(212,227,cs),
(133,243,o),
(53,273,o),
(53,372,cs),
(53,497,o),
(162,536,o),
(261,536,cs),
(377,536,o),
(457,481,o),
(464,380,c),
(357,380,l),
(350,423,o),
(310,441,o),
(259,441,cs)
);
}
);
width = 520;
}
);
unicode = 351;
},
{
glyphname = uni21A9;
layers = (
{
layerId = "8A13BB0F-AA4F-467F-8A3A-5853E02CF1B4";
shapes = (
{
closed = 1;
nodes = (
(452,-196,l),
(392,-273,l),
(54,49,l),
(393,370,l),
(452,291,l),
(239,97,l),
(776,97,ls),
(915,97,o),
(1001,203,o),
(1001,339,cs),
(1001,471,o),
(914,579,o),
(776,579,cs),
(180,579,l),
(180,676,l),
(780,676,ls),
(977,676,o),
(1105,531,o),
(1105,338,cs),
(1105,144,o),
(977,0,o),
(780,0,cs),
(239,0,l)
);
}
);
width = 1159;
}
);
unicode = 8617;
},
{
glyphname = uni2713;
layers = (
{
layerId = "8A13BB0F-AA4F-467F-8A3A-5853E02CF1B4";
shapes = (
{
closed = 1;
nodes = (
(924,826,l),
(1004,748,l),
(383,-7,l),
(54,372,l),
(133,449,l),
(384,165,l)
);
}
);
width = 1058;
}
);
unicode = 10003;
},
{
glyphname = divide;
layers = (
{
layerId = "8A13BB0F-AA4F-467F-8A3A-5853E02CF1B4";
shapes = (
{
closed = 1;
nodes = (
(300,617,o),
(327,589,o),
(327,546,cs),
(327,503,o),
(300,477,o),
(257,477,cs),
(214,477,o),
(188,503,o),
(188,546,cs),
(188,589,o),
(214,617,o),
(257,617,cs)
);
},
{
closed = 1;
nodes = (
(54,408,l),
(462,408,l),
(462,313,l),
(54,313,l)
);
},
{
closed = 1;
nodes = (
(300,239,o),
(327,212,o),
(327,169,cs),
(327,126,o),
(300,99,o),
(257,99,cs),
(214,99,o),
(188,126,o),
(188,169,cs),
(188,212,o),
(214,239,o),
(257,239,cs)
);
}
);
width = 516;
}
);
unicode = 247;
},
{
glyphname = multiply;
layers = (
{
layerId = "8A13BB0F-AA4F-467F-8A3A-5853E02CF1B4";
shapes = (
{
closed = 1;
nodes = (
(263,292,l),
(116,143,l),
(50,210,l),
(196,357,l),
(50,504,l),
(116,571,l),
(263,423,l),
(409,570,l),
(476,504,l),
(329,357,l),
(476,211,l),
(409,143,l)
);
}
);
width = 526;
}
);
unicode = 215;
},
{
glyphname = yen;
layers = (
{
layerId = "8A13BB0F-AA4F-467F-8A3A-5853E02CF1B4";
shapes = (
{
closed = 1;
nodes = (
(531,707,l),
(663,707,l),
(448,337,l),
(556,337,l),
(556,250,l),
(407,250,l),
(407,173,l),
(556,173,l),
(556,86,l),
(407,86,l),
(407,0,l),
(291,0,l),
(291,86,l),
(141,86,l),
(141,173,l),
(291,173,l),
(291,250,l),
(141,250,l),
(141,337,l),
(249,337,l),
(34,707,l),
(167,707,l),
(351,373,l)
);
}
);
width = 697;
}
);
unicode = 165;
},
{
glyphname = uni20BD;
layers = (
{
layerId = "8A13BB0F-AA4F-467F-8A3A-5853E02CF1B4";
shapes = (
{
closed = 1;
nodes = (
(54,174,l),
(143,174,l),
(143,252,l),
(54,252,l),
(54,350,l),
(143,350,l),
(143,707,l),
(400,707,ls),
(557,707,o),
(660,645,o),
(660,477,cs),
(660,321,o),
(536,252,o),
(395,252,cs),
(259,252,l),
(259,174,l),
(460,174,l),
(460,82,l),
(259,82,l),
(259,0,l),
(143,0,l),
(143,82,l),
(54,82,l)
);
},
{
closed = 1;
nodes = (
(390,350,ls),
(474,350,o),
(545,388,o),
(545,477,cs),
(545,577,o),
(487,603,o),
(391,603,cs),
(259,603,l),
(259,350,l)
);
}
);
width = 704;
}
);
unicode = 8381;
},
{
glyphname = uni20B4;
layers = (
{
layerId = "8A13BB0F-AA4F-467F-8A3A-5853E02CF1B4";
shapes = (
{
closed = 1;
nodes = (
(410,714,o),
(518,671,o),
(518,550,cs),
(518,517,o),
(508,480,o),
(485,457,c),
(538,457,l),
(538,376,l),
(418,376,l),
(313,305,l),
(538,305,l),
(538,225,l),
(213,225,l),
(198,217,o),
(187,192,o),
(187,173,cs),
(187,112,o),
(245,93,o),
(296,93,cs),
(351,93,o),
(398,104,o),
(409,161,c),
(521,161,l),
(516,36,o),
(405,-10,o),
(286,-10,cs),
(180,-10,o),
(73,40,o),
(73,155,cs),
(73,175,o),
(79,206,o),
(94,225,c),
(42,225,l),
(42,305,l),
(156,305,l),
(261,376,l),
(42,376,l),
(42,457,l),
(367,457,l),
(387,468,o),
(408,505,o),
(408,532,cs),
(408,581,o),
(370,610,o),
(307,611,c),
(258,611,o),
(199,598,o),
(191,538,c),
(76,538,l),
(84,666,o),
(193,714,o),
(311,714,cs)
);
}
);
width = 580;
}
);
unicode = 8372;
},
{
glyphname = sterling;
layers = (
{
layerId = "8A13BB0F-AA4F-467F-8A3A-5853E02CF1B4";
shapes = (
{
closed = 1;
nodes = (
(459,386,l),
(459,286,l),
(249,286,l),
(249,103,l),
(551,103,l),
(551,0,l),
(54,0,l),
(54,103,l),
(137,103,l),
(137,286,l),
(54,286,l),
(54,386,l),
(137,386,l),
(137,514,ls),
(137,645,o),
(217,716,o),
(348,716,cs),
(467,716,o),
(538,661,o),
(545,548,c),
(437,548,l),
(431,597,o),
(404,621,o),
(349,621,cs),
(289,621,o),
(249,593,o),
(249,514,cs),
(249,386,l)
);
}
);
width = 605;
}
);
unicode = 163;
},
{
glyphname = Scedilla;
kernLeft = _kern3;
kernRight = _kern4;
layers = (
{
layerId = "8A13BB0F-AA4F-467F-8A3A-5853E02CF1B4";
shapes = (
{
closed = 1;
nodes = (
(258,613,o),
(183,595,o),
(183,519,cs),
(183,434,o),
(285,418,o),
(358,403,cs),
(483,377,o),
(592,345,o),
(592,205,cs),
(592,61,o),
(485,-4,o),
(350,-7,c),
(340,-52,l),
(353,-51,o),
(357,-51,o),
(361,-51,cs),
(410,-51,o),
(446,-79,o),
(446,-135,cs),
(446,-222,o),
(373,-257,o),
(296,-257,cs),
(281,-257,o),
(266,-256,o),
(249,-254,c),
(250,-187,l),
(261,-188,o),
(271,-189,o),
(282,-189,cs),
(330,-189,o),
(360,-179,o),
(360,-144,cs),
(360,-117,o),
(335,-109,o),
(303,-109,cs),
(280,-109,o),
(264,-111,o),
(251,-114,c),
(278,-4,l),
(154,9,o),
(59,71,o),
(43,202,c),
(162,202,l),
(183,122,o),
(260,98,o),
(334,98,cs),
(409,98,o),
(475,121,o),
(475,194,c),
(475,195,o),
(475,196,o),
(475,197,c),
(475,244,o),
(442,267,o),
(398,280,cs),
(250,324,o),
(65,324,o),
(65,513,cs),
(65,665,o),
(194,716,o),
(317,716,cs),
(450,716,o),
(564,659,o),
(575,515,c),
(460,515,l),
(452,586,o),
(391,613,o),
(319,613,cs)
);
}
);
width = 636;
}
);
unicode = 350;
},
{
glyphname = t_alt;
kernLeft = _kern21;
kernRight = _kern21;
layers = (
{
layerId = "8A13BB0F-AA4F-467F-8A3A-5853E02CF1B4";
shapes = (
{
closed = 1;
nodes = (
(220,527,l),
(353,527,l),
(353,428,l),
(220,428,l),
(220,185,ls),
(220,126,o),
(243,98,o),
(304,98,cs),
(343,98,l),
(343,0,l),
(287,0,ls),
(158,0,o),
(107,50,o),
(107,171,cs),
(107,428,l),
(24,428,l),
(24,527,l),
(109,527,l),
(129,676,l),
(220,676,l)
);
}
);
width = 387;
}
);
},
{
glyphname = alt_1;
layers = (
{
layerId = "8A13BB0F-AA4F-467F-8A3A-5853E02CF1B4";
shapes = (
{
closed = 1;
nodes = (
(338,103,l),
(493,103,l),
(493,0,l),
(42,0,l),
(42,103,l),
(222,103,l),
(222,544,l),
(61,544,l),
(61,621,l),
(139,624,o),
(213,637,o),
(253,707,c),
(338,707,l)
);
}
);
width = 507;
}
);
},
{
glyphname = uni2117;
layers = (
{
layerId = "8A13BB0F-AA4F-467F-8A3A-5853E02CF1B4";
shapes = (
{
closed = 1;
nodes = (
(701,722,o),
(866,556,o),
(866,308,cs),
(866,52,o),
(705,-105,o),
(461,-105,cs),
(216,-105,o),
(54,52,o),
(54,308,cs),
(54,559,o),
(220,722,o),
(461,722,cs)
);
},
{
closed = 1;
nodes = (
(274,637,o),
(145,510,o),
(145,307,cs),
(145,103,o),
(271,-21,o),
(463,-21,cs),
(655,-21,o),
(778,103,o),
(778,307,cs),
(778,510,o),
(650,637,o),
(463,637,cs)
);
},
{
closed = 1;
nodes = (
(406,75,l),
(319,75,l),
(319,522,l),
(487,522,ls),
(590,522,o),
(654,476,o),
(654,372,cs),
(654,265,o),
(585,211,o),
(484,211,cs),
(406,211,l)
);
},
{
closed = 1;
nodes = (
(480,290,ls),
(531,290,o),
(568,314,o),
(568,371,cs),
(568,419,o),
(535,442,o),
(484,442,cs),
(406,442,l),
(406,290,l)
);
}
);
width = 920;
}
);
unicode = 8471;
},
{
glyphname = colon.uc;
layers = (
{
layerId = "8A13BB0F-AA4F-467F-8A3A-5853E02CF1B4";
shapes = (
{
closed = 1;
nodes = (
(179,593,o),
(208,563,o),
(208,519,cs),
(208,472,o),
(178,446,o),
(135,446,cs),
(91,446,o),
(62,472,o),
(62,519,cs),
(62,563,o),
(91,593,o),
(135,593,cs)
);
},
{
closed = 1;
nodes = (
(179,235,o),
(208,205,o),
(208,161,cs),
(208,116,o),
(178,88,o),
(135,88,cs),
(91,88,o),
(62,116,o),
(62,161,cs),
(62,205,o),
(91,235,o),
(135,235,cs)
);
}
);
width = 270;
}
);
},
{
glyphname = y_alt;
layers = (
{
layerId = "8A13BB0F-AA4F-467F-8A3A-5853E02CF1B4";
shapes = (
{
closed = 1;
nodes = (
(551,527,l),
(551,34,ls),
(551,-18,o),
(547,-81,o),
(523,-130,cs),
(487,-207,o),
(415,-254,o),
(296,-254,cs),
(181,-254,o),
(81,-203,o),
(62,-81,c),
(181,-81,l),
(192,-129,o),
(242,-153,o),
(297,-153,cs),
(432,-153,o),
(438,-45,o),
(438,68,c),
(405,12,o),
(347,-8,o),
(276,-8,cs),
(117,-8,o),
(64,90,o),
(64,234,cs),
(64,527,l),
(178,527,l),
(178,255,ls),
(178,168,o),
(196,91,o),
(303,91,cs),
(407,91,o),
(438,181,o),
(438,274,cs),
(438,527,l)
);
}
);
width = 613;
}
);
},
{
glyphname = u_alt;
layers = (
{
layerId = "8A13BB0F-AA4F-467F-8A3A-5853E02CF1B4";
shapes = (
{
closed = 1;
nodes = (
(538,527,l),
(538,0,l),
(439,0,l),
(431,72,l),
(414,43,o),
(388,22,o),
(354,8,cs),
(325,-3,o),
(294,-8,o),
(261,-8,cs),
(104,-8,o),
(57,94,o),
(57,234,cs),
(57,527,l),
(171,527,l),
(171,252,ls),
(171,172,o),
(183,91,o),
(290,91,cs),
(391,91,o),
(425,180,o),
(425,274,cs),
(425,527,l)
);
}
);
width = 600;
}
);
},
{
glyphname = be_alt;
layers = (
{
layerId = "8A13BB0F-AA4F-467F-8A3A-5853E02CF1B4";
shapes = (
{
closed = 1;
nodes = (
(39,391,o),
(43,477,o),
(76,546,cs),
(101,598,o),
(139,634,o),
(185,660,cs),
(256,700,o),
(346,720,o),
(427,751,cs),
(454,762,o),
(476,774,o),
(492,793,c),
(555,715,l),
(541,678,o),
(491,653,o),
(434,635,cs),
(377,617,o),
(310,598,o),
(262,580,cs),
(185,552,o),
(157,499,o),
(154,420,c),
(199,471,o),
(260,493,o),
(327,493,cs),
(467,493,o),
(556,399,o),
(556,256,cs),
(556,99,o),
(459,-7,o),
(299,-7,cs),
(99,-7,o),
(39,155,o),
(39,312,cs)
);
},
{
closed = 1;
nodes = (
(392,92,o),
(443,165,o),
(443,244,cs),
(443,329,o),
(391,391,o),
(307,391,cs),
(216,391,o),
(160,332,o),
(160,239,cs),
(160,164,o),
(209,92,o),
(301,92,cs)
);
}
);
width = 594;
}
);
},
{
glyphname = g_alt;
layers = (
{
layerId = "8A13BB0F-AA4F-467F-8A3A-5853E02CF1B4";
shapes = (
{
closed = 1;
nodes = (
(456,527,l),
(558,527,l),
(558,29,ls),
(558,-35,o),
(548,-108,o),
(509,-163,cs),
(468,-220,o),
(400,-254,o),
(297,-254,cs),
(213,-254,o),
(135,-234,o),
(70,-189,c),
(83,-158,o),
(100,-121,o),
(111,-90,c),
(154,-122,o),
(217,-151,o),
(286,-151,cs),
(363,-151,o),
(403,-122,o),
(426,-71,cs),
(445,-28,o),
(445,11,o),
(445,39,cs),
(445,48,o),
(445,57,o),
(444,66,c),
(412,15,o),
(350,-7,o),
(278,-7,cs),
(116,-7,o),
(38,110,o),
(38,259,cs),
(38,420,o),
(121,535,o),
(284,535,cs),
(341,535,o),
(406,514,o),
(447,465,c)
);
},
{
closed = 1;
nodes = (
(195,432,o),
(151,358,o),
(151,261,cs),
(151,167,o),
(196,91,o),
(297,91,cs),
(399,91,o),
(445,178,o),
(445,265,cs),
(445,358,o),
(397,432,o),
(296,432,cs)
);
}
);
width = 620;
}
);
},
{
glyphname = y;
layers = (
{
layerId = "8A13BB0F-AA4F-467F-8A3A-5853E02CF1B4";
shapes = (
{
closed = 1;
nodes = (
(549,527,l),
(549,84,ls),
(549,24,o),
(551,-40,o),
(531,-100,cs),
(500,-196,o),
(422,-253,o),
(287,-253,cs),
(207,-253,o),
(132,-234,o),
(67,-185,c),
(110,-89,l),
(154,-124,o),
(210,-151,o),
(283,-151,cs),
(422,-151,o),
(436,-45,o),
(436,66,c),
(402,13,o),
(342,-7,o),
(273,-7,cs),
(110,-7,o),
(62,94,o),
(62,232,cs),
(62,527,l),
(175,527,l),
(175,254,ls),
(175,169,o),
(194,91,o),
(298,91,cs),
(405,91,o),
(435,183,o),
(435,275,cs),
(435,527,l)
);
}
);
width = 611;
}
);
unicode = 121;
},
{
glyphname = t2.alt;
layers = (
{
layerId = "8A13BB0F-AA4F-467F-8A3A-5853E02CF1B4";
shapes = (
{
closed = 1;
nodes = (
(220,527,l),
(378,527,l),
(378,428,l),
(220,428,l),
(220,196,ls),
(220,145,o),
(229,93,o),
(292,93,cs),
(320,93,o),
(344,101,o),
(364,118,c),
(402,33,l),
(367,6,o),
(319,-6,o),
(275,-6,cs),
(160,-6,o),
(107,50,o),
(107,174,cs),
(107,428,l),
(24,428,l),
(24,527,l),
(107,527,l),
(107,677,l),
(220,677,l)
);
}
);
width = 412;
}
);
},
{
glyphname = f_alt;
layers = (
{
layerId = "8A13BB0F-AA4F-467F-8A3A-5853E02CF1B4";
shapes = (
{
closed = 1;
nodes = (
(107,0,l),
(107,428,l),
(24,428,l),
(24,527,l),
(107,527,l),
(107,586,ls),
(107,703,o),
(168,761,o),
(279,761,cs),
(323,761,o),
(362,751,o),
(397,727,c),
(358,640,l),
(339,653,o),
(319,661,o),
(290,661,cs),
(238,661,o),
(220,628,o),
(220,572,cs),
(220,527,l),
(364,527,l),
(364,428,l),
(220,428,l),
(220,0,l)
);
}
);
width = 369;
}
);
},
{
glyphname = hyphen.uc;
layers = (
{
layerId = "8A13BB0F-AA4F-467F-8A3A-5853E02CF1B4";
shapes = (
{
closed = 1;
nodes = (
(69,398,l),
(388,398,l),
(388,300,l),
(69,300,l)
);
}
);
width = 457;
}
);
},
{
glyphname = uni00AD.uc;
layers = (
{
layerId = "8A13BB0F-AA4F-467F-8A3A-5853E02CF1B4";
shapes = (
{
closed = 1;
nodes = (
(69,398,l),
(388,398,l),
(388,300,l),
(69,300,l)
);
}
);
width = 457;
}
);
},
{
glyphname = endash.uc;
layers = (
{
layerId = "8A13BB0F-AA4F-467F-8A3A-5853E02CF1B4";
shapes = (
{
closed = 1;
nodes = (
(69,398,l),
(533,398,l),
(533,300,l),
(69,300,l)
);
}
);
width = 602;
}
);
},
{
glyphname = emdash.uc;
layers = (
{
layerId = "8A13BB0F-AA4F-467F-8A3A-5853E02CF1B4";
shapes = (
{
closed = 1;
nodes = (
(69,398,l),
(736,398,l),
(736,300,l),
(69,300,l)
);
}
);
width = 805;
}
);
},
{
glyphname = a_alt;
kernLeft = _kern27;
kernRight = _kern27;
layers = (
{
layerId = "8A13BB0F-AA4F-467F-8A3A-5853E02CF1B4";
shapes = (
{
closed = 1;
nodes = (
(398,61,l),
(361,17,o),
(287,-6,o),
(224,-6,cs),
(125,-6,o),
(44,42,o),
(44,145,cs),
(44,224,o),
(91,273,o),
(162,295,cs),
(233,317,o),
(320,321,o),
(395,324,c),
(395,397,o),
(359,438,o),
(278,438,cs),
(239,438,o),
(189,423,o),
(178,382,c),
(60,382,l),
(76,494,o),
(182,536,o),
(283,536,cs),
(356,536,o),
(419,517,o),
(458,468,cs),
(497,421,o),
(506,355,o),
(506,286,cs),
(506,0,l),
(405,0,l)
);
},
{
closed = 1;
nodes = (
(157,99,o),
(207,85,o),
(248,85,cs),
(328,85,o),
(397,135,o),
(397,239,c),
(366,240,o),
(303,237,o),
(252,226,cs),
(200,215,o),
(157,194,o),
(157,149,cs)
);
}
);
width = 566;
}
);
},
{
glyphname = D;
kernLeft = _kern1;
kernRight = _kern4;
layers = (
{
layerId = "8A13BB0F-AA4F-467F-8A3A-5853E02CF1B4";
shapes = (
{
closed = 1;
nodes = (
(82,707,l),
(338,707,ls),
(563,707,o),
(682,573,o),
(682,353,cs),
(682,133,o),
(565,0,o),
(342,0,cs),
(82,0,l)
);
},
{
closed = 1;
nodes = (
(198,603,l),
(198,103,l),
(339,103,ls),
(493,103,o),
(563,202,o),
(563,353,cs),
(563,510,o),
(485,603,o),
(338,603,cs)
);
}
);
width = 726;
}
);
unicode = 68;
},
{
glyphname = B;
kernLeft = _kern1;
layers = (
{
layerId = "8A13BB0F-AA4F-467F-8A3A-5853E02CF1B4";
shapes = (
{
closed = 1;
nodes = (
(81,707,l),
(362,707,ls),
(470,707,o),
(591,677,o),
(591,530,cs),
(591,462,o),
(565,407,o),
(501,376,c),
(592,355,o),
(626,294,o),
(626,210,cs),
(626,38,o),
(471,0,o),
(341,0,cs),
(81,0,l)
);
},
{
closed = 1;
nodes = (
(197,603,l),
(197,409,l),
(329,409,ls),
(397,409,o),
(479,421,o),
(479,511,cs),
(479,595,o),
(416,603,o),
(349,603,cs)
);
},
{
closed = 1;
nodes = (
(339,103,ls),
(413,103,o),
(510,112,o),
(510,211,cs),
(510,314,o),
(398,308,o),
(327,308,c),
(197,308,l),
(197,103,l)
);
}
);
width = 670;
}
);
unicode = 66;
},
{
glyphname = uni0490;
kernLeft = _kern23;
kernRight = _kern23;
layers = (
{
layerId = "8A13BB0F-AA4F-467F-8A3A-5853E02CF1B4";
shapes = (
{
closed = 1;
nodes = (
(82,0,l),
(82,707,l),
(439,707,l),
(439,832,l),
(555,832,l),
(555,603,l),
(198,603,l),
(198,0,l)
);
}
);
width = 579;
}
);
unicode = 1168;
},
{
glyphname = uni0491;
kernLeft = _kern24;
kernRight = _kern24;
layers = (
{
layerId = "8A13BB0F-AA4F-467F-8A3A-5853E02CF1B4";
shapes = (
{
closed = 1;
nodes = (
(62,0,l),
(62,527,l),
(332,527,l),
(332,668,l),
(443,668,l),
(443,428,l),
(176,428,l),
(176,0,l)
);
}
);
width = 461;
}
);
unicode = 1169;
},
{
glyphname = uni0404;
layers = (
{
layerId = "8A13BB0F-AA4F-467F-8A3A-5853E02CF1B4";
shapes = (
{
closed = 1;
nodes = (
(242,612,o),
(173,523,o),
(165,404,c),
(466,404,l),
(466,303,l),
(165,303,l),
(170,180,o),
(246,97,o),
(373,97,cs),
(450,97,o),
(531,126,o),
(552,208,c),
(669,208,l),
(645,59,o),
(508,-7,o),
(369,-7,cs),
(151,-7,o),
(43,143,o),
(43,351,cs),
(43,563,o),
(153,716,o),
(373,716,cs),
(515,716,o),
(637,647,o),
(661,499,c),
(548,499,l),
(527,579,o),
(447,612,o),
(370,612,cs)
);
}
);
width = 712;
}
);
unicode = 1028;
},
{
glyphname = uni0454;
layers = (
{
layerId = "8A13BB0F-AA4F-467F-8A3A-5853E02CF1B4";
shapes = (
{
closed = 1;
nodes = (
(363,309,l),
(363,216,l),
(150,216,l),
(153,135,o),
(208,91,o),
(287,91,cs),
(332,91,o),
(384,106,o),
(403,151,c),
(519,151,l),
(497,41,o),
(388,-7,o),
(287,-7,cs),
(117,-7,o),
(38,102,o),
(38,263,cs),
(38,420,o),
(120,536,o),
(287,536,cs),
(399,536,o),
(490,487,o),
(517,372,c),
(400,372,l),
(388,419,o),
(328,434,o),
(284,434,cs),
(204,434,o),
(156,389,o),
(149,309,c)
);
}
);
width = 553;
}
);
unicode = 1108;
},
{
glyphname = uni0406;
layers = (
{
layerId = "8A13BB0F-AA4F-467F-8A3A-5853E02CF1B4";
shapes = (
{
closed = 1;
nodes = (
(198,0,l),
(82,0,l),
(82,707,l),
(198,707,l)
);
}
);
width = 280;
}
);
unicode = 1030;
},
{
glyphname = uni0456;
layers = (
{
layerId = "8A13BB0F-AA4F-467F-8A3A-5853E02CF1B4";
shapes = (
{
closed = 1;
nodes = (
(168,746,o),
(199,719,o),
(199,675,cs),
(199,632,o),
(168,605,o),
(127,605,cs),
(83,605,o),
(54,632,o),
(54,675,cs),
(54,719,o),
(83,746,o),
(127,746,cs)
);
},
{
closed = 1;
nodes = (
(69,0,l),
(69,527,l),
(183,527,l),
(183,0,l)
);
}
);
width = 253;
}
);
unicode = 1110;
},
{
glyphname = uni0407;
layers = (
{
layerId = "8A13BB0F-AA4F-467F-8A3A-5853E02CF1B4";
shapes = (
{
closed = 1;
nodes = (
(198,0,l),
(82,0,l),
(82,707,l),
(198,707,l)
);
},
{
closed = 1;
nodes = (
(256,883,o),
(283,857,o),
(283,817,cs),
(283,776,o),
(256,751,o),
(219,751,cs),
(180,751,o),
(155,776,o),
(155,817,cs),
(155,857,o),
(180,883,o),
(219,883,cs)
);
},
{
closed = 1;
nodes = (
(100,883,o),
(126,857,o),
(126,817,cs),
(126,776,o),
(100,751,o),
(61,751,cs),
(22,751,o),
(-3,776,o),
(-3,817,cs),
(-3,857,o),
(22,883,o),
(61,883,cs)
);
}
);
width = 280;
}
);
unicode = 1031;
},
{
glyphname = uni0457;
layers = (
{
layerId = "8A13BB0F-AA4F-467F-8A3A-5853E02CF1B4";
shapes = (
{
closed = 1;
nodes = (
(70,0,l),
(70,527,l),
(184,527,l),
(184,0,l)
);
},
{
closed = 1;
nodes = (
(243,733,o),
(270,706,o),
(270,666,cs),
(270,626,o),
(243,600,o),
(206,600,cs),
(167,600,o),
(142,625,o),
(142,666,cs),
(142,707,o),
(167,733,o),
(206,733,cs)
);
},
{
closed = 1;
nodes = (
(86,733,o),
(113,706,o),
(113,666,cs),
(113,626,o),
(86,600,o),
(47,600,cs),
(8,600,o),
(-17,625,o),
(-17,666,cs),
(-17,707,o),
(8,733,o),
(47,733,cs)
);
}
);
width = 253;
}
);
unicode = 1111;
},
{
glyphname = t0163.alt;
layers = (
{
layerId = "8A13BB0F-AA4F-467F-8A3A-5853E02CF1B4";
shapes = (
{
closed = 1;
nodes = (
(220,527,l),
(378,527,l),
(378,428,l),
(220,428,l),
(220,196,ls),
(220,145,o),
(229,93,o),
(292,93,cs),
(320,93,o),
(344,101,o),
(364,118,c),
(402,33,l),
(367,6,o),
(319,-6,o),
(275,-6,cs),
(268,-6,o),
(262,-6,o),
(256,-5,c),
(242,-51,l),
(245,-50,o),
(249,-50,o),
(252,-50,cs),
(263,-50,ls),
(312,-50,o),
(349,-77,o),
(349,-136,cs),
(349,-222,o),
(276,-259,o),
(196,-259,cs),
(182,-259,o),
(167,-258,o),
(151,-256,c),
(152,-189,l),
(164,-190,o),
(174,-191,o),
(185,-191,cs),
(233,-191,o),
(262,-178,o),
(262,-145,cs),
(262,-117,o),
(237,-110,o),
(209,-110,cs),
(188,-110,o),
(168,-111,o),
(153,-114,c),
(187,10,l),
(122,41,o),
(107,106,o),
(107,174,cs),
(107,428,l),
(24,428,l),
(24,527,l),
(107,527,l),
(107,677,l),
(220,677,l)
);
}
);
width = 412;
}
);
},
{
glyphname = t021b.alt;
layers = (
{
layerId = "8A13BB0F-AA4F-467F-8A3A-5853E02CF1B4";
shapes = (
{
closed = 1;
nodes = (
(190,-187,o),
(166,-166,o),
(166,-133,cs),
(166,-98,o),
(193,-74,o),
(228,-74,cs),
(275,-74,o),
(297,-112,o),
(297,-153,cs),
(297,-215,o),
(249,-281,o),
(188,-305,c),
(164,-271,l),
(191,-252,o),
(217,-223,o),
(225,-190,c)
);
},
{
closed = 1;
nodes = (
(220,527,l),
(378,527,l),
(378,428,l),
(220,428,l),
(220,196,ls),
(220,145,o),
(229,93,o),
(292,93,cs),
(320,93,o),
(344,101,o),
(364,118,c),
(402,33,l),
(367,6,o),
(319,-6,o),
(275,-6,cs),
(160,-6,o),
(107,50,o),
(107,174,cs),
(107,428,l),
(24,428,l),
(24,527,l),
(107,527,l),
(107,677,l),
(220,677,l)
);
}
);
width = 412;
}
);
},
{
glyphname = map;
layers = (
{
layerId = "8A13BB0F-AA4F-467F-8A3A-5853E02CF1B4";
shapes = (
{
closed = 1;
nodes = (
(59,684,ls),
(60,685,o),
(62,686,o),
(63,686,c),
(102,686,ls),
(104,686,o),
(105,686,o),
(106,687,cs),
(125,706,ls),
(126,707,o),
(128,708,o),
(129,708,c),
(225,708,l),
(226,708,o),
(228,707,o),
(229,706,cs),
(275,660,ls),
(276,659,o),
(277,659,o),
(278,659,c),
(311,659,ls),
(314,659,o),
(316,657,o),
(316,654,cs),
(316,629,ls),
(316,626,o),
(318,624,o),
(322,624,cs),
(328,624,ls),
(330,624,o),
(331,624,o),
(332,625,c),
(348,642,l),
(349,643,o),
(350,643,o),
(352,643,cs),
(384,643,ls),
(387,643,o),
(389,641,o),
(389,638,cs),
(389,612,l),
(389,611,o),
(390,609,o),
(391,608,cs),
(411,588,l),
(413,585,o),
(415,585,o),
(418,588,cs),
(428,598,ls),
(429,599,o),
(430,599,o),
(432,599,cs),
(438,599,ls),
(442,599,o),
(444,597,o),
(444,594,cs),
(444,515,l),
(444,514,o),
(443,512,o),
(442,511,cs),
(436,505,ls),
(433,502,o),
(433,500,o),
(436,497,cs),
(495,438,ls),
(496,437,o),
(497,437,o),
(498,437,c),
(510,437,ls),
(513,437,o),
(515,435,o),
(515,432,cs),
(515,398,l),
(515,361,l),
(515,360,o),
(516,358,o),
(517,357,cs),
(539,335,ls),
(540,334,o),
(542,333,o),
(543,333,c),
(555,333,ls),
(557,333,o),
(558,333,o),
(559,332,c),
(575,315,l),
(576,314,o),
(577,312,o),
(577,311,c),
(577,274,l),
(577,273,o),
(576,271,o),
(575,270,c),
(569,265,ls),
(566,262,o),
(566,260,o),
(569,257,cs),
(590,237,ls),
(591,236,o),
(591,235,o),
(591,233,cs),
(591,230,o),
(589,228,o),
(586,228,cs),
(567,228,l),
(553,228,l),
(552,228,o),
(551,228,o),
(550,229,cs),
(541,238,l),
(538,240,o),
(536,240,o),
(534,238,cs),
(523,227,l),
(520,225,o),
(517,225,o),
(515,227,cs),
(500,242,ls),
(498,244,o),
(495,244,o),
(492,242,c),
(465,215,ls),
(464,214,o),
(463,213,o),
(462,213,c),
(453,213,ls),
(450,213,o),
(448,215,o),
(448,219,cs),
(448,253,ls),
(448,258,o),
(442,260,o),
(439,257,cs),
(417,235,ls),
(416,234,o),
(416,233,o),
(416,232,c),
(416,205,ls),
(416,203,o),
(416,202,o),
(417,201,cs),
(427,191,l),
(429,188,o),
(429,186,o),
(427,184,cs),
(407,164,ls),
(406,163,o),
(406,162,o),
(406,160,cs),
(406,135,l),
(406,134,o),
(405,132,o),
(404,131,cs),
(382,109,ls),
(381,108,o),
(381,107,o),
(381,106,c),
(381,94,l),
(381,93,o),
(380,91,o),
(379,90,cs),
(367,78,ls),
(366,77,o),
(365,76,o),
(364,76,c),
(355,76,l),
(354,76,o),
(353,76,o),
(352,75,cs),
(342,65,ls),
(341,64,o),
(340,62,o),
(340,61,c),
(340,23,ls),
(340,19,o),
(338,17,o),
(335,17,cs),
(315,17,ls),
(313,17,o),
(312,17,o),
(311,16,c),
(297,1,l),
(296,1,o),
(296,0,o),
(293,0,cs),
(290,0,ls),
(287,0,o),
(285,2,o),
(285,5,cs),
(285,28,l),
(285,29,o),
(284,31,o),
(283,32,cs),
(274,41,l),
(271,43,o),
(271,45,o),
(274,48,cs),
(286,60,l),
(290,63,o),
(290,65,o),
(286,68,c),
(274,80,ls),
(273,81,o),
(273,82,o),
(273,84,cs),
(273,169,ls),
(273,171,o),
(273,172,o),
(274,173,c),
(288,186,l),
(289,187,o),
(289,188,o),
(289,190,cs),
(289,309,ls),
(289,311,o),
(289,312,o),
(288,313,c),
(275,325,l),
(274,326,o),
(274,327,o),
(274,329,cs),
(274,352,ls),
(274,354,o),
(273,355,o),
(272,355,c),
(226,402,ls),
(225,403,o),
(224,405,o),
(224,406,c),
(224,427,ls),
(224,429,o),
(224,430,o),
(223,431,cs),
(177,477,ls),
(176,478,o),
(175,479,o),
(175,480,c),
(175,506,ls),
(175,508,o),
(175,509,o),
(174,510,cs),
(143,540,ls),
(142,541,o),
(142,542,o),
(142,544,cs),
(142,573,l),
(142,574,o),
(141,576,o),
(140,577,cs),
(119,598,ls),
(118,599,o),
(117,601,o),
(117,602,c),
(117,628,ls),
(117,630,o),
(117,631,o),
(116,632,cs),
(93,655,ls),
(92,656,o),
(90,657,o),
(89,657,c),
(47,657,ls),
(44,657,o),
(42,659,o),
(42,662,cs),
(42,664,ls),
(42,666,o),
(42,667,o),
(43,668,cs)
);
}
);
width = 673;
}
);
},
{
glyphname = logo;
layers = (
{
layerId = "8A13BB0F-AA4F-467F-8A3A-5853E02CF1B4";
shapes = (
{
closed = 1;
nodes = (
(790,499,o),
(786,495,o),
(779,493,c),
(779,482,o),
(770,474,o),
(759,474,c),
(757,464,o),
(751,459,o),
(740,459,cs),
(735,459,o),
(731,461,o),
(726,464,c),
(714,477,ls),
(710,481,o),
(708,486,o),
(708,491,cs),
(708,517,l),
(683,537,l),
(565,537,l),
(539,511,l),
(539,475,l),
(683,475,ls),
(689,475,o),
(694,473,o),
(697,470,cs),
(722,444,ls),
(726,440,o),
(728,435,o),
(728,430,cs),
(728,419,o),
(720,411,o),
(709,411,cs),
(671,411,ls),
(666,411,o),
(661,413,o),
(657,417,cs),
(637,436,l),
(528,436,l),
(434,342,l),
(431,342,o),
(426,335,o),
(419,335,cs),
(411,335,o),
(406,342,o),
(403,342,c),
(310,436,l),
(200,436,l),
(180,417,l),
(177,413,o),
(172,411,o),
(166,411,cs),
(129,411,ls),
(118,411,o),
(108,419,o),
(108,430,cs),
(108,435,o),
(110,439,o),
(115,444,cs),
(140,470,l),
(145,473,o),
(149,475,o),
(154,475,cs),
(191,475,l),
(192,475,l),
(298,475,l),
(298,511,l),
(272,537,l),
(154,537,l),
(129,517,l),
(129,491,ls),
(129,486,o),
(127,481,o),
(123,477,cs),
(111,464,l),
(106,461,o),
(102,459,o),
(97,459,cs),
(86,459,o),
(79,464,o),
(78,474,c),
(67,474,o),
(59,482,o),
(59,493,c),
(50,496,o),
(42,501,o),
(42,512,cs),
(42,517,o),
(44,521,o),
(49,526,cs),
(61,539,ls),
(65,543,o),
(70,545,o),
(75,545,cs),
(102,545,l),
(102,545,o),
(103,546,o),
(104,547,c),
(135,572,ls),
(138,575,o),
(142,576,o),
(147,576,cs),
(186,576,l),
(189,585,o),
(195,589,o),
(204,589,cs),
(209,589,o),
(214,587,o),
(218,583,cs),
(225,576,l),
(280,576,ls),
(285,576,o),
(289,574,o),
(294,571,c),
(298,566,l),
(298,586,l),
(272,613,l),
(137,613,l),
(117,593,l),
(112,590,o),
(108,588,o),
(103,588,cs),
(91,588,ls),
(86,588,o),
(82,590,o),
(77,593,c),
(64,606,l),
(61,611,o),
(59,615,o),
(59,620,cs),
(59,625,o),
(60,629,o),
(63,632,c),
(60,635,o),
(59,640,o),
(59,645,cs),
(59,650,o),
(61,654,o),
(64,659,c),
(77,671,ls),
(81,675,o),
(86,677,o),
(91,677,cs),
(103,677,ls),
(108,677,o),
(113,675,o),
(117,671,cs),
(137,652,l),
(172,652,l),
(172,680,l),
(156,680,o),
(147,706,o),
(147,721,cs),
(147,758,ls),
(147,769,o),
(155,778,o),
(166,778,cs),
(217,778,ls),
(228,778,o),
(236,769,o),
(236,758,cs),
(236,721,ls),
(236,706,o),
(227,680,o),
(211,680,c),
(211,652,l),
(236,652,l),
(235,653,o),
(235,655,o),
(235,657,cs),
(235,668,o),
(243,677,o),
(255,677,cs),
(260,677,o),
(265,675,o),
(269,671,cs),
(305,635,l),
(308,638,o),
(313,639,o),
(318,639,cs),
(329,639,o),
(337,631,o),
(337,620,cs),
(337,464,l),
(399,402,l),
(399,473,l),
(367,505,ls),
(363,509,o),
(361,514,o),
(361,519,cs),
(361,530,o),
(370,538,o),
(381,538,cs),
(386,538,o),
(390,536,o),
(395,533,c),
(399,528,l),
(399,612,l),
(304,707,l),
(300,710,o),
(298,714,o),
(298,721,cs),
(298,739,l),
(292,739,ls),
(281,739,o),
(273,747,o),
(273,758,cs),
(273,769,o),
(281,778,o),
(292,778,cs),
(298,778,l),
(298,784,ls),
(298,795,o),
(307,803,o),
(318,803,cs),
(329,803,o),
(337,795,o),
(337,784,cs),
(337,778,l),
(343,778,ls),
(354,778,o),
(362,769,o),
(362,758,cs),
(362,747,o),
(354,739,o),
(343,739,cs),
(337,739,l),
(337,729,l),
(399,667,l),
(399,787,l),
(398,788,o),
(397,789,o),
(397,790,c),
(342,845,ls),
(338,849,o),
(336,854,o),
(336,859,cs),
(336,864,o),
(338,869,o),
(342,873,cs),
(354,886,ls),
(357,889,o),
(358,889,o),
(361,890,c),
(361,910,ls),
(361,915,o),
(363,920,o),
(367,924,cs),
(380,936,l),
(383,940,o),
(387,942,o),
(393,942,cs),
(397,942,o),
(401,941,o),
(404,939,c),
(408,943,o),
(413,945,o),
(419,945,cs),
(424,945,o),
(429,943,o),
(433,939,c),
(436,941,o),
(439,942,o),
(444,942,cs),
(449,942,o),
(454,940,o),
(458,936,cs),
(470,924,ls),
(474,920,o),
(476,915,o),
(476,910,cs),
(476,890,l),
(479,889,o),
(481,887,o),
(483,886,c),
(495,873,ls),
(499,869,o),
(501,864,o),
(501,859,cs),
(501,854,o),
(499,849,o),
(495,845,cs),
(440,790,l),
(440,789,o),
(439,788,o),
(438,787,c),
(438,667,l),
(500,729,l),
(500,739,l),
(494,739,ls),
(483,739,o),
(475,747,o),
(475,758,cs),
(475,769,o),
(483,778,o),
(494,778,cs),
(500,778,l),
(500,784,ls),
(500,795,o),
(508,803,o),
(519,803,cs),
(530,803,o),
(539,795,o),
(539,784,cs),
(539,778,l),
(545,778,ls),
(556,778,o),
(564,769,o),
(564,758,cs),
(564,747,o),
(556,739,o),
(545,739,cs),
(539,739,l),
(539,721,ls),
(539,714,o),
(537,710,o),
(533,707,c),
(438,612,l),
(438,528,l),
(443,533,ls),
(446,536,o),
(451,538,o),
(456,538,cs),
(471,538,o),
(476,528,o),
(476,519,cs),
(476,514,o),
(474,509,o),
(470,505,cs),
(438,473,l),
(438,402,l),
(500,464,l),
(500,620,ls),
(500,631,o),
(508,639,o),
(519,639,cs),
(524,639,o),
(529,638,o),
(532,635,c),
(569,671,l),
(572,675,o),
(576,677,o),
(583,677,cs),
(594,677,o),
(602,668,o),
(602,657,c),
(602,656,o),
(601,655,o),
(601,652,c),
(626,652,l),
(626,680,l),
(610,680,o),
(601,706,o),
(601,721,cs),
(601,758,ls),
(601,769,o),
(609,778,o),
(620,778,cs),
(671,778,ls),
(682,778,o),
(690,769,o),
(690,758,cs),
(690,721,ls),
(690,706,o),
(681,680,o),
(665,680,c),
(665,652,l),
(701,652,l),
(720,671,ls),
(724,675,o),
(729,677,o),
(734,677,cs),
(746,677,ls),
(751,677,o),
(756,675,o),
(760,671,cs),
(773,659,ls),
(777,655,o),
(779,650,o),
(779,645,cs),
(779,641,o),
(777,637,o),
(774,632,c),
(777,629,o),
(779,625,o),
(779,620,cs),
(779,615,o),
(777,610,o),
(773,606,cs),
(760,593,l),
(755,590,o),
(751,588,o),
(746,588,cs),
(734,588,ls),
(729,588,o),
(725,590,o),
(720,593,c),
(701,613,l),
(565,613,l),
(539,586,l),
(539,566,l),
(543,571,l),
(548,574,o),
(552,576,o),
(557,576,cs),
(612,576,l),
(619,583,ls),
(623,587,o),
(628,589,o),
(633,589,cs),
(642,589,o),
(648,585,o),
(651,576,c),
(690,576,ls),
(695,576,o),
(699,575,o),
(702,572,cs),
(733,547,l),
(734,546,o),
(735,546,o),
(736,545,c),
(762,545,ls),
(767,545,o),
(772,543,o),
(776,539,cs),
(788,526,ls),
(792,522,o),
(794,517,o),
(794,512,cs),
(794,509,o),
(794,506,o),
(793,505,c)
);
},
{
closed = 1;
nodes = (
(270,13,ls),
(270,4,o),
(266,0,o),
(258,0,cs),
(197,0,ls),
(189,0,o),
(185,4,o),
(185,13,cs),
(185,362,ls),
(185,371,o),
(189,375,o),
(197,375,cs),
(258,375,ls),
(266,375,o),
(273,372,o),
(279,366,cs),
(411,234,ls),
(412,233,o),
(414,232,o),
(417,232,cs),
(420,232,o),
(423,233,o),
(424,234,cs),
(556,366,ls),
(562,372,o),
(569,375,o),
(577,375,cs),
(638,375,ls),
(646,375,o),
(650,371,o),
(650,362,cs),
(650,13,ls),
(650,4,o),
(646,0,o),
(638,0,cs),
(577,0,ls),
(568,0,o),
(564,4,o),
(564,13,cs),
(564,232,ls),
(564,234,o),
(563,235,o),
(560,235,c),
(559,235,o),
(559,235,o),
(558,234,cs),
(440,116,l),
(433,110,o),
(425,107,o),
(418,107,c),
(417,107,l),
(410,107,o),
(402,110,o),
(395,116,c),
(277,234,ls),
(276,235,o),
(275,235,o),
(274,235,c),
(271,235,o),
(270,234,o),
(270,232,cs)
);
},
{
closed = 1;
nodes = (
(1012,381,o),
(1096,307,o),
(1096,188,cs),
(1096,74,o),
(1012,-6,o),
(897,-6,cs),
(782,-6,o),
(698,68,o),
(698,188,cs),
(698,296,o),
(778,381,o),
(897,381,cs)
);
},
{
closed = 1;
nodes = (
(968,74,o),
(1005,125,o),
(1005,188,cs),
(1005,256,o),
(957,301,o),
(897,301,cs),
(834,301,o),
(789,256,o),
(789,188,cs),
(789,123,o),
(837,74,o),
(897,74,cs)
);
},
{
closed = 1;
nodes = (
(1140,366,ls),
(1140,372,o),
(1143,375,o),
(1149,375,cs),
(1216,375,ls),
(1222,375,o),
(1225,372,o),
(1225,366,cs),
(1225,85,ls),
(1225,82,o),
(1227,81,o),
(1230,81,cs),
(1369,81,ls),
(1375,81,o),
(1378,78,o),
(1378,72,cs),
(1378,9,ls),
(1378,3,o),
(1375,0,o),
(1369,0,cs),
(1149,0,ls),
(1143,0,o),
(1140,3,o),
(1140,9,cs)
);
},
{
closed = 1;
nodes = (
(1426,366,ls),
(1426,372,o),
(1429,375,o),
(1435,375,cs),
(1456,375,o),
(1521,376,o),
(1544,376,cs),
(1694,376,o),
(1754,290,o),
(1754,191,cs),
(1754,86,o),
(1681,-1,o),
(1540,-1,cs),
(1520,-1,o),
(1471,0,o),
(1435,0,cs),
(1429,0,o),
(1426,3,o),
(1426,9,cs)
);
},
{
closed = 1;
nodes = (
(1513,295,o),
(1511,293,o),
(1511,290,cs),
(1511,85,ls),
(1511,77,o),
(1531,80,o),
(1542,80,cs),
(1617,80,o),
(1663,119,o),
(1663,191,cs),
(1663,260,o),
(1612,296,o),
(1543,296,cs),
(1535,296,o),
(1525,296,o),
(1516,295,c)
);
},
{
closed = 1;
nodes = (
(2111,381,o),
(2195,307,o),
(2195,188,cs),
(2195,74,o),
(2111,-6,o),
(1996,-6,cs),
(1881,-6,o),
(1797,68,o),
(1797,188,cs),
(1797,296,o),
(1877,381,o),
(1996,381,cs)
);
},
{
closed = 1;
nodes = (
(2067,74,o),
(2104,125,o),
(2104,188,cs),
(2104,256,o),
(2056,301,o),
(1996,301,cs),
(1933,301,o),
(1888,256,o),
(1888,188,cs),
(1888,123,o),
(1936,74,o),
(1996,74,cs)
);
},
{
closed = 1;
nodes = (
(2413,9,l),
(2410,3,o),
(2406,0,o),
(2400,0,cs),
(2351,0,ls),
(2346,0,o),
(2342,3,o),
(2339,9,cs),
(2193,366,l),
(2192,367,o),
(2192,368,o),
(2192,369,c),
(2192,373,o),
(2194,375,o),
(2198,375,cs),
(2274,375,ls),
(2279,375,o),
(2283,372,o),
(2286,366,c),
(2377,132,l),
(2377,131,o),
(2378,130,o),
(2379,130,c),
(2380,131,o),
(2380,131,o),
(2380,132,c),
(2467,366,l),
(2470,372,o),
(2474,375,o),
(2480,375,cs),
(2550,375,ls),
(2554,375,o),
(2556,373,o),
(2556,369,c),
(2556,368,o),
(2555,367,o),
(2555,366,c)
);
},
{
closed = 1;
nodes = (
(2626,367,l),
(2629,372,o),
(2633,375,o),
(2638,375,cs),
(2694,375,ls),
(2699,375,o),
(2703,372,o),
(2706,367,c),
(2847,9,l),
(2847,8,o),
(2848,7,o),
(2848,6,c),
(2848,2,o),
(2846,0,o),
(2842,0,cs),
(2772,0,ls),
(2766,0,o),
(2762,3,o),
(2761,9,c),
(2736,75,ls),
(2735,78,o),
(2733,79,o),
(2730,79,cs),
(2597,79,ls),
(2594,79,o),
(2592,78,o),
(2591,75,cs),
(2567,9,l),
(2564,3,o),
(2560,0,o),
(2555,0,cs),
(2490,0,ls),
(2486,0,o),
(2484,2,o),
(2484,6,c),
(2484,7,o),
(2484,8,o),
(2485,9,c)
);
},
{
closed = 1;
nodes = (
(2625,163,l),
(2625,162,l),
(2625,160,o),
(2626,159,o),
(2628,159,cs),
(2699,159,ls),
(2701,159,o),
(2702,160,o),
(2702,162,c),
(2702,163,l),
(2665,261,l),
(2664,262,l),
(2663,261,o),
(2662,261,o),
(2662,261,c)
);
}
);
width = 2930;
}
);
},
{
glyphname = a00E2.alt;
kernLeft = _kern27;
kernRight = _kern27;
layers = (
{
layerId = "8A13BB0F-AA4F-467F-8A3A-5853E02CF1B4";
shapes = (
{
closed = 1;
nodes = (
(327,790,l),
(473,601,l),
(366,601,l),
(292,699,l),
(219,601,l),
(112,601,l),
(257,790,l)
);
},
{
closed = 1;
nodes = (
(398,61,l),
(351,10,o),
(293,-6,o),
(230,-6,cs),
(129,-6,o),
(44,42,o),
(44,145,cs),
(44,224,o),
(93,274,o),
(163,295,cs),
(233,316,o),
(320,321,o),
(395,324,c),
(395,397,o),
(359,438,o),
(278,438,cs),
(239,438,o),
(189,423,o),
(178,382,c),
(60,382,l),
(76,494,o),
(182,536,o),
(283,536,cs),
(356,536,o),
(419,517,o),
(458,468,cs),
(497,421,o),
(506,355,o),
(506,286,cs),
(506,0,l),
(405,0,l)
);
},
{
closed = 1;
nodes = (
(157,97,o),
(214,85,o),
(248,85,cs),
(328,85,o),
(397,135,o),
(397,239,c),
(366,240,o),
(303,237,o),
(252,226,cs),
(200,215,o),
(157,194,o),
(157,149,cs)
);
}
);
width = 566;
}
);
},
{
glyphname = a0103.alt;
kernLeft = _kern27;
kernRight = _kern27;
layers = (
{
layerId = "8A13BB0F-AA4F-467F-8A3A-5853E02CF1B4";
shapes = (
{
closed = 1;
nodes = (
(339,683,o),
(368,703,o),
(373,750,c),
(474,750,l),
(467,649,o),
(398,601,o),
(293,601,cs),
(185,601,o),
(115,643,o),
(108,750,c),
(208,750,l),
(212,703,o),
(243,683,o),
(291,683,cs)
);
},
{
closed = 1;
nodes = (
(398,61,l),
(351,10,o),
(293,-6,o),
(230,-6,cs),
(129,-6,o),
(44,42,o),
(44,145,cs),
(44,224,o),
(93,274,o),
(163,295,cs),
(233,316,o),
(320,321,o),
(395,324,c),
(395,397,o),
(359,438,o),
(278,438,cs),
(239,438,o),
(189,423,o),
(178,382,c),
(60,382,l),
(76,494,o),
(182,536,o),
(283,536,cs),
(356,536,o),
(419,517,o),
(458,468,cs),
(497,421,o),
(506,355,o),
(506,286,cs),
(506,0,l),
(405,0,l)
);
},
{
closed = 1;
nodes = (
(157,97,o),
(214,85,o),
(248,85,cs),
(328,85,o),
(397,135,o),
(397,239,c),
(366,240,o),
(303,237,o),
(252,226,cs),
(200,215,o),
(157,194,o),
(157,149,cs)
);
}
);
width = 566;
}
);
},
{
glyphname = a00E4.alt;
kernLeft = _kern27;
kernRight = _kern27;
layers = (
{
layerId = "8A13BB0F-AA4F-467F-8A3A-5853E02CF1B4";
shapes = (
{
closed = 1;
nodes = (
(221,729,o),
(250,702,o),
(250,659,cs),
(250,616,o),
(221,588,o),
(178,588,cs),
(135,588,o),
(106,616,o),
(106,659,cs),
(106,702,o),
(135,729,o),
(178,729,cs)
);
},
{
closed = 1;
nodes = (
(448,729,o),
(477,702,o),
(477,659,cs),
(477,616,o),
(448,588,o),
(405,588,cs),
(364,588,o),
(334,616,o),
(334,659,cs),
(334,702,o),
(364,729,o),
(405,729,cs)
);
},
{
closed = 1;
nodes = (
(398,61,l),
(351,10,o),
(293,-6,o),
(230,-6,cs),
(129,-6,o),
(44,42,o),
(44,145,cs),
(44,224,o),
(93,274,o),
(163,295,cs),
(233,316,o),
(320,321,o),
(395,324,c),
(395,397,o),
(359,438,o),
(278,438,cs),
(239,438,o),
(189,423,o),
(178,382,c),
(60,382,l),
(76,494,o),
(182,536,o),
(283,536,cs),
(356,536,o),
(419,517,o),
(458,468,cs),
(497,421,o),
(506,355,o),
(506,286,cs),
(506,0,l),
(405,0,l)
);
},
{
closed = 1;
nodes = (
(157,97,o),
(214,85,o),
(248,85,cs),
(328,85,o),
(397,135,o),
(397,239,c),
(366,240,o),
(303,237,o),
(252,226,cs),
(200,215,o),
(157,194,o),
(157,149,cs)
);
}
);
width = 566;
}
);
},
{
glyphname = a2_alt;
kernLeft = _kern9;
layers = (
{
layerId = "8A13BB0F-AA4F-467F-8A3A-5853E02CF1B4";
shapes = (
{
closed = 1;
nodes = (
(561,0,l),
(451,0,l),
(447,58,l),
(408,13,o),
(348,-8,o),
(283,-8,cs),
(116,-8,o),
(42,116,o),
(42,260,cs),
(42,414,o),
(121,535,o),
(293,535,cs),
(354,535,o),
(413,515,o),
(450,471,c),
(456,527,l),
(561,527,l)
);
},
{
closed = 1;
nodes = (
(197,433,o),
(155,359,o),
(155,262,cs),
(155,167,o),
(198,91,o),
(301,91,cs),
(400,91,o),
(447,174,o),
(447,262,cs),
(447,355,o),
(406,433,o),
(299,433,cs)
);
}
);
width = 623;
}
);
},
{
glyphname = logom;
layers = (
{
layerId = "8A13BB0F-AA4F-467F-8A3A-5853E02CF1B4";
shapes = (
{
closed = 1;
nodes = (
(793,502,o),
(788,498,o),
(781,496,c),
(781,485,o),
(773,477,o),
(762,477,c),
(761,470,o),
(757,465,o),
(749,463,cs),
(733,458,o),
(722,474,o),
(717,479,cs),
(708,488,o),
(710,493,o),
(710,520,c),
(685,540,l),
(567,540,l),
(540,514,l),
(540,478,l),
(686,478,ls),
(691,478,o),
(696,476,o),
(700,472,cs),
(725,447,ls),
(737,435,o),
(728,413,o),
(711,413,cs),
(657,413,o),
(671,407,o),
(639,439,c),
(529,439,l),
(434,344,l),
(425,333,o),
(412,333,o),
(404,344,c),
(309,439,l),
(199,439,l),
(179,419,ls),
(175,415,o),
(170,413,o),
(165,413,cs),
(127,413,ls),
(110,413,o),
(101,434,o),
(113,447,c),
(138,472,ls),
(142,476,o),
(147,478,o),
(152,478,cs),
(298,478,l),
(298,514,l),
(271,540,l),
(153,540,l),
(128,520,l),
(128,493,o),
(130,488,o),
(121,479,cs),
(118,476,o),
(114,472,o),
(109,467,cs),
(98,456,o),
(79,461,o),
(76,477,c),
(65,477,o),
(57,485,o),
(57,496,c),
(49,498,o),
(44,502,o),
(42,510,cs),
(38,525,o),
(54,536,o),
(59,541,cs),
(68,550,o),
(73,548,o),
(100,548,c),
(134,575,ls),
(137,578,o),
(141,580,o),
(146,580,cs),
(185,580,l),
(190,593,o),
(206,596,o),
(217,587,c),
(224,580,l),
(279,580,ls),
(288,580,o),
(291,576,o),
(298,569,c),
(298,590,l),
(271,616,l),
(135,616,l),
(109,590,o),
(115,591,o),
(89,591,cs),
(78,591,o),
(71,600,o),
(62,609,c),
(55,618,o),
(54,627,o),
(61,636,c),
(47,653,o),
(66,666,o),
(75,675,cs),
(82,683,o),
(91,681,o),
(102,681,cs),
(107,681,o),
(112,679,o),
(116,675,cs),
(135,656,l),
(171,656,l),
(171,684,l),
(155,691,o),
(145,706,o),
(145,725,cs),
(145,763,ls),
(145,774,o),
(154,783,o),
(165,783,cs),
(216,783,ls),
(227,783,o),
(236,774,o),
(236,763,cs),
(236,725,ls),
(236,706,o),
(226,691,o),
(210,684,c),
(210,656,l),
(235,656,l),
(230,675,o),
(254,692,o),
(268,675,c),
(305,639,l),
(306,640,o),
(307,640,o),
(308,641,c),
(311,642,o),
(314,643,o),
(317,643,cs),
(328,643,o),
(337,634,o),
(337,623,cs),
(337,467,l),
(399,404,l),
(399,476,l),
(367,508,ls),
(349,526,o),
(376,555,o),
(395,536,c),
(399,531,l),
(399,615,l),
(304,711,ls),
(296,719,o),
(298,730,o),
(298,743,c),
(292,743,ls),
(265,743,o),
(265,783,o),
(292,783,cs),
(298,783,l),
(298,788,ls),
(298,814,o),
(337,814,o),
(337,788,cs),
(337,783,l),
(343,783,ls),
(369,783,o),
(369,743,o),
(343,743,cs),
(337,743,l),
(337,733,l),
(399,671,l),
(399,792,ls),
(399,795,o),
(349,844,o),
(342,851,cs),
(334,858,o),
(334,871,o),
(342,879,cs),
(347,884,o),
(354,893,o),
(361,896,c),
(361,927,o),
(358,920,o),
(380,942,cs),
(387,950,o),
(395,951,o),
(404,945,c),
(415,954,o),
(429,952,o),
(434,945,c),
(449,955,o),
(461,939,o),
(471,929,cs),
(479,921,o),
(477,909,o),
(477,896,c),
(484,893,o),
(491,884,o),
(496,879,cs),
(504,871,o),
(504,858,o),
(496,851,cs),
(489,844,o),
(439,795,o),
(439,792,cs),
(439,671,l),
(501,733,l),
(501,743,l),
(495,743,ls),
(468,743,o),
(468,783,o),
(495,783,cs),
(501,783,l),
(501,788,ls),
(501,814,o),
(540,814,o),
(540,788,cs),
(540,783,l),
(546,783,ls),
(572,783,o),
(572,743,o),
(546,743,cs),
(540,743,l),
(540,730,o),
(542,719,o),
(535,711,c),
(439,615,l),
(439,531,l),
(444,538,o),
(448,542,o),
(457,542,cs),
(476,542,o),
(483,520,o),
(471,508,cs),
(439,476,l),
(439,404,l),
(501,467,l),
(501,623,ls),
(501,640,o),
(520,650,o),
(533,639,c),
(570,675,l),
(584,692,o),
(608,675,o),
(603,656,c),
(628,656,l),
(628,684,l),
(612,691,o),
(602,706,o),
(602,725,cs),
(602,763,ls),
(602,774,o),
(611,783,o),
(622,783,cs),
(673,783,ls),
(684,783,o),
(693,774,o),
(693,763,cs),
(693,725,ls),
(693,706,o),
(683,691,o),
(667,684,c),
(667,656,l),
(703,656,l),
(729,682,o),
(723,681,o),
(749,681,cs),
(760,681,o),
(767,672,o),
(776,663,c),
(783,654,o),
(784,645,o),
(777,636,c),
(790,620,o),
(772,606,o),
(763,597,cs),
(756,590,o),
(747,591,o),
(736,591,cs),
(731,591,o),
(726,593,o),
(722,597,cs),
(703,616,l),
(567,616,l),
(540,590,l),
(540,569,l),
(547,576,o),
(550,580,o),
(559,580,cs),
(614,580,l),
(621,587,o),
(624,592,o),
(635,592,cs),
(644,592,o),
(650,588,o),
(653,580,c),
(692,580,ls),
(697,580,o),
(701,578,o),
(704,575,cs),
(738,548,l),
(777,548,o),
(769,551,o),
(791,529,cs),
(798,523,o),
(799,516,o),
(796,508,cs)
);
},
{
closed = 1;
nodes = (
(270,13,ls),
(270,4,o),
(266,0,o),
(257,0,cs),
(196,0,ls),
(187,0,o),
(183,4,o),
(183,13,cs),
(183,364,ls),
(183,373,o),
(187,377,o),
(196,377,cs),
(257,377,ls),
(264,377,o),
(272,374,o),
(279,368,c),
(411,235,l),
(416,231,o),
(420,231,o),
(424,235,cs),
(557,368,l),
(564,374,o),
(572,377,o),
(579,377,cs),
(640,377,ls),
(648,377,o),
(652,373,o),
(652,364,cs),
(652,13,ls),
(652,4,o),
(648,0,o),
(640,0,cs),
(579,0,ls),
(570,0,o),
(566,4,o),
(566,13,cs),
(566,233,ls),
(566,236,o),
(562,239,o),
(559,236,cs),
(440,116,l),
(428,105,o),
(408,105,o),
(396,116,c),
(276,236,ls),
(273,239,o),
(270,236,o),
(270,233,cs)
);
}
);
width = 839;
}
);
},
{
glyphname = plusminus;
layers = (
{
associatedMasterId = "8A13BB0F-AA4F-467F-8A3A-5853E02CF1B4";
layerId = "61B3C976-30D5-44EF-B8B8-D130E4272387";
name = img;
width = 564;
},
{
layerId = "8A13BB0F-AA4F-467F-8A3A-5853E02CF1B4";
shapes = (
{
closed = 1;
nodes = (
(69,486,l),
(233,486,l),
(233,653,l),
(330,653,l),
(330,486,l),
(495,486,l),
(495,388,l),
(330,388,l),
(330,264,l),
(233,264,l),
(233,388,l),
(69,388,l)
);
},
{
closed = 1;
nodes = (
(69,223,l),
(495,223,l),
(495,125,l),
(69,125,l)
);
}
);
width = 564;
}
);
unicode = 177;
},
{
glyphname = greaterequal;
layers = (
{
associatedMasterId = "8A13BB0F-AA4F-467F-8A3A-5853E02CF1B4";
layerId = "61B3C976-30D5-44EF-B8B8-D130E4272387";
name = img;
width = 531;
},
{
layerId = "8A13BB0F-AA4F-467F-8A3A-5853E02CF1B4";
shapes = (
{
closed = 1;
nodes = (
(64,223,l),
(467,223,l),
(467,125,l),
(64,125,l)
);
},
{
closed = 1;
nodes = (
(467,416,l),
(64,238,l),
(64,343,l),
(311,449,l),
(64,552,l),
(64,659,l),
(467,481,l)
);
}
);
width = 531;
}
);
unicode = 8805;
},
{
glyphname = lessequal;
layers = (
{
associatedMasterId = "8A13BB0F-AA4F-467F-8A3A-5853E02CF1B4";
layerId = "61B3C976-30D5-44EF-B8B8-D130E4272387";
name = img;
width = 531;
},
{
layerId = "8A13BB0F-AA4F-467F-8A3A-5853E02CF1B4";
shapes = (
{
closed = 1;
nodes = (
(64,223,l),
(467,223,l),
(467,125,l),
(64,125,l)
);
},
{
closed = 1;
nodes = (
(64,481,l),
(467,659,l),
(467,553,l),
(220,448,l),
(467,344,l),
(467,238,l),
(64,415,l)
);
}
);
width = 531;
}
);
unicode = 8804;
},
{
glyphname = twosuperior;
layers = (
{
associatedMasterId = "8A13BB0F-AA4F-467F-8A3A-5853E02CF1B4";
layerId = "61B3C976-30D5-44EF-B8B8-D130E4272387";
name = img;
width = 363;
},
{
layerId = "8A13BB0F-AA4F-467F-8A3A-5853E02CF1B4";
shapes = (
{
closed = 1;
nodes = (
(309,484,l),
(309,403,l),
(53,403,l),
(53,475,l),
(86,502,o),
(119,528,o),
(151,557,cs),
(177,581,o),
(225,615,o),
(225,654,cs),
(225,681,o),
(207,694,o),
(182,694,cs),
(154,694,o),
(137,684,o),
(132,655,c),
(50,655,l),
(53,735,o),
(110,776,o),
(186,776,cs),
(257,776,o),
(313,735,o),
(313,659,cs),
(313,611,o),
(287,575,o),
(254,543,cs),
(231,522,o),
(207,503,o),
(183,484,c)
);
}
);
width = 363;
}
);
unicode = 178;
},
{
glyphname = threesuperior;
layers = (
{
associatedMasterId = "8A13BB0F-AA4F-467F-8A3A-5853E02CF1B4";
layerId = "61B3C976-30D5-44EF-B8B8-D130E4272387";
name = img;
width = 391;
},
{
layerId = "8A13BB0F-AA4F-467F-8A3A-5853E02CF1B4";
shapes = (
{
closed = 1;
nodes = (
(324,588,o),
(340,555,o),
(340,516,cs),
(339,433,o),
(275,400,o),
(200,400,cs),
(120,400,o),
(55,437,o),
(50,523,c),
(137,523,l),
(144,491,o),
(169,481,o),
(198,481,cs),
(225,481,o),
(248,489,o),
(248,520,cs),
(248,545,o),
(230,553,o),
(207,553,cs),
(162,553,l),
(162,627,l),
(193,627,ls),
(217,627,o),
(236,637,o),
(236,664,c),
(235,687,o),
(215,695,o),
(195,695,cs),
(170,695,o),
(151,685,o),
(146,658,c),
(60,658,l),
(67,738,o),
(123,776,o),
(199,776,cs),
(263,776,o),
(327,748,o),
(327,675,cs),
(327,646,o),
(312,619,o),
(289,603,c)
);
}
);
width = 391;
}
);
unicode = 179;
},
{
glyphname = notequal;
layers = (
{
associatedMasterId = "8A13BB0F-AA4F-467F-8A3A-5853E02CF1B4";
layerId = "61B3C976-30D5-44EF-B8B8-D130E4272387";
name = img;
width = 554;
},
{
layerId = "8A13BB0F-AA4F-467F-8A3A-5853E02CF1B4";
shapes = (
{
closed = 1;
nodes = (
(64,534,l),
(304,534,l),
(380,703,l),
(490,703,l),
(414,534,l),
(490,534,l),
(490,436,l),
(370,436,l),
(299,278,l),
(490,278,l),
(490,180,l),
(255,180,l),
(174,0,l),
(64,0,l),
(145,180,l),
(64,180,l),
(64,278,l),
(189,278,l),
(260,436,l),
(64,436,l)
);
}
);
width = 554;
}
);
unicode = 8800;
},
{
glyphname = approxequal;
layers = (
{
associatedMasterId = "8A13BB0F-AA4F-467F-8A3A-5853E02CF1B4";
layerId = "61B3C976-30D5-44EF-B8B8-D130E4272387";
name = img;
width = 627;
},
{
layerId = "8A13BB0F-AA4F-467F-8A3A-5853E02CF1B4";
shapes = (
{
closed = 1;
nodes = (
(64,162,l),
(67,252,o),
(94,335,o),
(212,335,cs),
(315,335,o),
(363,232,o),
(413,232,cs),
(453,232,o),
(458,285,o),
(458,317,c),
(563,317,l),
(560,228,o),
(528,144,o),
(413,144,cs),
(317,144,o),
(261,247,o),
(213,247,cs),
(173,247,o),
(170,194,o),
(170,162,c)
);
},
{
closed = 1;
nodes = (
(64,385,l),
(67,474,o),
(94,557,o),
(212,557,cs),
(315,557,o),
(363,455,o),
(413,455,cs),
(453,455,o),
(458,508,o),
(458,540,c),
(563,540,l),
(560,451,o),
(528,367,o),
(413,367,cs),
(317,367,o),
(261,470,o),
(213,470,cs),
(173,470,o),
(170,417,o),
(170,385,c)
);
}
);
width = 627;
}
);
unicode = 8776;
},
{
glyphname = tab_1;
layers = (
{
layerId = "8A13BB0F-AA4F-467F-8A3A-5853E02CF1B4";
shapes = (
{
closed = 1;
nodes = (
(393,103,l),
(560,103,l),
(560,0,l),
(89,0,l),
(89,103,l),
(277,103,l),
(277,544,l),
(113,544,l),
(113,621,l),
(152,622,o),
(190,625,o),
(226,638,cs),
(261,651,o),
(289,674,o),
(308,707,c),
(393,707,l)
);
}
);
width = 664;
}
);
},
{
glyphname = I_alt;
layers = (
{
layerId = "8A13BB0F-AA4F-467F-8A3A-5853E02CF1B4";
shapes = (
{
closed = 1;
nodes = (
(244,104,l),
(244,603,l),
(40,603,l),
(40,707,l),
(564,707,l),
(564,603,l),
(360,603,l),
(360,104,l),
(564,104,l),
(564,0,l),
(40,0,l),
(40,104,l)
);
}
);
width = 604;
}
);
},
{
glyphname = l_alt;
layers = (
{
layerId = "8A13BB0F-AA4F-467F-8A3A-5853E02CF1B4";
shapes = (
{
closed = 1;
nodes = (
(176,187,ls),
(176,158,o),
(181,137,o),
(190,123,cs),
(202,106,o),
(224,98,o),
(257,98,cs),
(297,98,l),
(297,0,l),
(242,0,ls),
(177,0,o),
(130,13,o),
(103,40,cs),
(76,67,o),
(62,111,o),
(62,171,cs),
(62,707,l),
(176,707,l)
);
}
);
width = 321;
}
);
},
{
glyphname = l2_alt;
layers = (
{
layerId = "8A13BB0F-AA4F-467F-8A3A-5853E02CF1B4";
shapes = (
{
closed = 1;
nodes = (
(176,196,ls),
(176,146,o),
(186,94,o),
(248,93,cs),
(279,93,o),
(300,101,o),
(320,118,c),
(358,33,l),
(323,6,o),
(278,-6,o),
(234,-6,cs),
(110,-6,o),
(62,55,o),
(62,175,cs),
(62,707,l),
(176,707,l)
);
}
);
width = 368;
}
);
},
{
glyphname = uniE000;
layers = (
{
layerId = "8A13BB0F-AA4F-467F-8A3A-5853E02CF1B4";
shapes = (
{
closed = 1;
nodes = (
(609,138,o),
(521,-6,o),
(332,-6,cs),
(144,-6,o),
(55,135,o),
(55,347,cs),
(55,567,o),
(139,716,o),
(332,716,cs),
(519,716,o),
(609,570,o),
(609,354,cs)
);
},
{
closed = 1;
nodes = (
(170,207,o),
(209,97,o),
(332,97,cs),
(453,97,o),
(493,207,o),
(493,354,cs),
(493,499,o),
(453,612,o),
(332,612,cs),
(209,612,o),
(170,499,o),
(170,354,cs)
);
}
);
width = 664;
}
);
unicode = 57344;
},
{
glyphname = uniE001;
layers = (
{
layerId = "8A13BB0F-AA4F-467F-8A3A-5853E02CF1B4";
shapes = (
{
closed = 1;
nodes = (
(392,0,l),
(276,0,l),
(276,544,l),
(132,544,l),
(132,623,l),
(211,626,o),
(272,644,o),
(307,707,c),
(392,707,l)
);
}
);
width = 664;
}
);
unicode = 57345;
},
{
glyphname = uniE002;
layers = (
{
layerId = "8A13BB0F-AA4F-467F-8A3A-5853E02CF1B4";
shapes = (
{
closed = 1;
nodes = (
(283,264,ls),
(315,292,o),
(357,326,o),
(392,361,cs),
(427,396,o),
(454,440,o),
(454,491,cs),
(454,563,o),
(410,611,o),
(330,611,cs),
(266,611,o),
(219,579,o),
(208,530,c),
(94,530,l),
(99,591,o),
(130,640,o),
(174,671,cs),
(218,702,o),
(269,715,o),
(337,715,cs),
(464,715,o),
(569,646,o),
(569,505,cs),
(569,394,o),
(505,319,o),
(433,258,cs),
(338,176,o),
(289,141,o),
(246,103,c),
(569,103,l),
(569,0,l),
(88,0,l),
(88,95,l)
);
}
);
width = 664;
}
);
unicode = 57346;
},
{
glyphname = uniE003;
layers = (
{
layerId = "8A13BB0F-AA4F-467F-8A3A-5853E02CF1B4";
shapes = (
{
closed = 1;
nodes = (
(203,-7,o),
(86,46,o),
(67,182,c),
(184,182,l),
(205,114,o),
(275,97,o),
(333,97,cs),
(394,97,o),
(474,116,o),
(474,208,cs),
(474,293,o),
(400,310,o),
(331,310,cs),
(261,310,l),
(261,408,l),
(302,408,ls),
(367,408,o),
(448,432,o),
(448,512,cs),
(448,590,o),
(390,611,o),
(327,612,cs),
(269,612,o),
(217,590,o),
(203,529,c),
(89,529,l),
(105,660,o),
(209,716,o),
(332,716,cs),
(452,716,o),
(562,666,o),
(562,530,cs),
(562,474,o),
(539,415,o),
(466,378,c),
(550,355,o),
(591,293,o),
(591,209,cs),
(591,56,o),
(471,-7,o),
(333,-7,cs)
);
}
);
width = 664;
}
);
unicode = 57347;
},
{
glyphname = uniE004;
layers = (
{
layerId = "8A13BB0F-AA4F-467F-8A3A-5853E02CF1B4";
shapes = (
{
closed = 1;
nodes = (
(532,707,l),
(532,238,l),
(613,238,l),
(613,136,l),
(532,136,l),
(532,0,l),
(417,0,l),
(417,136,l),
(52,136,l),
(52,219,l),
(383,707,l)
);
},
{
closed = 1;
nodes = (
(186,238,l),
(417,238,l),
(417,584,l)
);
}
);
width = 664;
}
);
unicode = 57348;
},
{
glyphname = uniE005;
layers = (
{
layerId = "8A13BB0F-AA4F-467F-8A3A-5853E02CF1B4";
shapes = (
{
closed = 1;
nodes = (
(99,311,l),
(137,707,l),
(563,707,l),
(563,604,l),
(234,604,l),
(214,420,l),
(253,445,o),
(294,460,o),
(357,460,cs),
(498,460,o),
(591,375,o),
(591,234,cs),
(591,82,o),
(478,-8,o),
(332,-8,cs),
(209,-8,o),
(102,49,o),
(83,183,c),
(198,183,l),
(214,127,o),
(274,97,o),
(330,97,cs),
(410,97,o),
(473,136,o),
(473,228,cs),
(473,313,o),
(418,360,o),
(337,360,cs),
(286,360,o),
(245,342,o),
(212,311,c)
);
}
);
width = 664;
}
);
unicode = 57349;
},
{
glyphname = uniE006;
layers = (
{
layerId = "8A13BB0F-AA4F-467F-8A3A-5853E02CF1B4";
shapes = (
{
closed = 1;
nodes = (
(211,430,o),
(275,456,o),
(344,456,cs),
(484,456,o),
(575,369,o),
(575,229,cs),
(575,89,o),
(469,-6,o),
(333,-6,cs),
(129,-6,o),
(57,155,o),
(57,331,cs),
(57,451,o),
(84,571,o),
(164,648,cs),
(207,689,o),
(267,715,o),
(344,715,cs),
(460,715,o),
(549,659,o),
(572,540,c),
(456,540,l),
(437,589,o),
(391,612,o),
(340,612,cs),
(297,612,o),
(262,597,o),
(235,570,cs),
(187,522,o),
(167,443,o),
(167,374,c)
);
},
{
closed = 1;
nodes = (
(459,301,o),
(408,354,o),
(328,354,cs),
(253,354,o),
(193,301,o),
(193,225,cs),
(193,156,o),
(250,96,o),
(327,96,cs),
(404,96,o),
(459,146,o),
(459,221,cs)
);
}
);
width = 664;
}
);
unicode = 57350;
},
{
glyphname = uniE007;
layers = (
{
layerId = "8A13BB0F-AA4F-467F-8A3A-5853E02CF1B4";
shapes = (
{
closed = 1;
nodes = (
(178,0,l),
(451,603,l),
(100,603,l),
(100,707,l),
(582,707,l),
(582,617,l),
(307,0,l)
);
}
);
width = 664;
}
);
unicode = 57351;
},
{
glyphname = uniE008;
layers = (
{
layerId = "8A13BB0F-AA4F-467F-8A3A-5853E02CF1B4";
shapes = (
{
closed = 1;
nodes = (
(589,43,o),
(458,-8,o),
(331,-8,cs),
(200,-8,o),
(72,47,o),
(72,198,cs),
(72,279,o),
(107,341,o),
(187,372,c),
(118,407,o),
(96,472,o),
(96,526,cs),
(96,662,o),
(209,716,o),
(332,716,cs),
(453,716,o),
(566,662,o),
(566,526,cs),
(566,472,o),
(542,407,o),
(474,374,c),
(554,343,o),
(589,279,o),
(589,198,cs)
);
},
{
closed = 1;
nodes = (
(266,614,o),
(211,586,o),
(211,513,cs),
(211,441,o),
(263,408,o),
(331,408,cs),
(396,408,o),
(450,440,o),
(450,509,cs),
(450,585,o),
(397,614,o),
(331,614,cs)
);
},
{
closed = 1;
nodes = (
(258,315,o),
(188,285,o),
(188,205,cs),
(188,117,o),
(271,94,o),
(331,94,cs),
(392,94,o),
(472,117,o),
(472,205,cs),
(472,285,o),
(402,315,o),
(330,315,cs)
);
}
);
width = 664;
}
);
unicode = 57352;
},
{
glyphname = uniE009;
layers = (
{
layerId = "8A13BB0F-AA4F-467F-8A3A-5853E02CF1B4";
shapes = (
{
closed = 1;
nodes = (
(455,278,o),
(384,252,o),
(314,252,cs),
(182,252,o),
(86,337,o),
(86,478,cs),
(86,623,o),
(195,714,o),
(335,714,c),
(434,715,o),
(509,665,o),
(548,596,cs),
(587,527,o),
(604,437,o),
(604,350,cs),
(604,168,o),
(543,-7,o),
(330,-7,cs),
(215,-7,o),
(111,48,o),
(92,167,c),
(210,167,l),
(227,119,o),
(278,96,o),
(329,96,cs),
(468,96,o),
(496,228,o),
(494,338,c)
);
},
{
closed = 1;
nodes = (
(201,403,o),
(252,354,o),
(332,354,cs),
(406,354,o),
(466,402,o),
(466,475,cs),
(466,550,o),
(416,611,o),
(335,611,cs),
(258,611,o),
(202,561,o),
(201,484,c)
);
}
);
width = 664;
}
);
unicode = 57353;
},
{
glyphname = arrowright;
layers = (
{
layerId = "8A13BB0F-AA4F-467F-8A3A-5853E02CF1B4";
shapes = (
{
closed = 1;
nodes = (
(26,288,l),
(26,384,l),
(504,384,l),
(281,569,l),
(343,644,l),
(698,336,l),
(343,27,l),
(281,103,l),
(504,288,l)
);
}
);
width = 725;
}
);
unicode = 8594;
},
{
glyphname = arrowleft;
layers = (
{
layerId = "8A13BB0F-AA4F-467F-8A3A-5853E02CF1B4";
shapes = (
{
closed = 1;
nodes = (
(698,384,l),
(698,288,l),
(220,288,l),
(443,103,l),
(381,28,l),
(26,336,l),
(381,645,l),
(443,569,l),
(220,384,l)
);
}
);
width = 725;
}
);
unicode = 8592;
},
{
glyphname = uni2197;
layers = (
{
layerId = "8A13BB0F-AA4F-467F-8A3A-5853E02CF1B4";
shapes = (
{
closed = 1;
nodes = (
(158,64,l),
(90,132,l),
(428,470,l),
(140,443,l),
(131,540,l),
(600,574,l),
(567,104,l),
(469,114,l),
(496,402,l)
);
}
);
width = 725;
}
);
unicode = 8599;
},
{
glyphname = uni2198;
layers = (
{
layerId = "8A13BB0F-AA4F-467F-8A3A-5853E02CF1B4";
shapes = (
{
closed = 1;
nodes = (
(90,540,l),
(158,608,l),
(496,270,l),
(469,558,l),
(566,567,l),
(600,98,l),
(130,131,l),
(140,229,l),
(428,202,l)
);
}
);
width = 725;
}
);
unicode = 8600;
},
{
glyphname = uni2199;
layers = (
{
layerId = "8A13BB0F-AA4F-467F-8A3A-5853E02CF1B4";
shapes = (
{
closed = 1;
nodes = (
(566,608,l),
(634,540,l),
(296,202,l),
(584,229,l),
(593,132,l),
(124,98,l),
(157,568,l),
(255,558,l),
(228,270,l)
);
}
);
width = 725;
}
);
unicode = 8601;
},
{
glyphname = uni2196;
layers = (
{
layerId = "8A13BB0F-AA4F-467F-8A3A-5853E02CF1B4";
shapes = (
{
closed = 1;
nodes = (
(634,132,l),
(566,64,l),
(228,402,l),
(255,114,l),
(158,105,l),
(124,574,l),
(594,541,l),
(584,443,l),
(296,470,l)
);
}
);
width = 725;
}
);
unicode = 8598;
},
{
glyphname = uniE010;
layers = (
{
layerId = "8A13BB0F-AA4F-467F-8A3A-5853E02CF1B4";
shapes = (
{
closed = 1;
nodes = (
(191,139,o),
(221,110,o),
(221,65,cs),
(221,18,o),
(191,-8,o),
(148,-8,cs),
(105,-8,o),
(75,18,o),
(75,65,cs),
(75,110,o),
(105,139,o),
(148,139,cs)
);
}
);
width = 296;
}
);
unicode = 57360;
},
{
glyphname = uniE011;
layers = (
{
layerId = "8A13BB0F-AA4F-467F-8A3A-5853E02CF1B4";
shapes = (
{
closed = 1;
nodes = (
(100,-5,o),
(71,20,o),
(71,63,cs),
(71,110,o),
(104,135,o),
(148,135,cs),
(201,135,o),
(227,91,o),
(227,42,cs),
(227,-36,o),
(176,-124,o),
(98,-149,c),
(68,-108,l),
(100,-85,o),
(129,-49,o),
(140,-8,c)
);
}
);
width = 303;
}
);
unicode = 57361;
},
{
glyphname = uniE012;
layers = (
{
layerId = "8A13BB0F-AA4F-467F-8A3A-5853E02CF1B4";
shapes = (
{
closed = 1;
nodes = (
(192,496,o),
(221,466,o),
(221,422,cs),
(221,375,o),
(191,349,o),
(148,349,cs),
(104,349,o),
(75,375,o),
(75,422,cs),
(75,466,o),
(104,496,o),
(148,496,cs)
);
},
{
closed = 1;
nodes = (
(192,138,o),
(221,108,o),
(221,64,cs),
(221,19,o),
(191,-9,o),
(148,-9,cs),
(104,-9,o),
(75,19,o),
(75,64,cs),
(75,108,o),
(104,138,o),
(148,138,cs)
);
}
);
width = 296;
}
);
unicode = 57362;
},
{
glyphname = uniE013;
layers = (
{
layerId = "8A13BB0F-AA4F-467F-8A3A-5853E02CF1B4";
shapes = (
{
closed = 1;
nodes = (
(194,496,o),
(223,466,o),
(223,422,cs),
(223,375,o),
(194,349,o),
(150,349,cs),
(105,349,o),
(77,375,o),
(77,422,cs),
(77,466,o),
(105,496,o),
(150,496,cs)
);
},
{
closed = 1;
nodes = (
(99,-4,o),
(72,23,o),
(72,64,cs),
(72,111,o),
(106,136,o),
(143,136,cs),
(145,136,o),
(147,136,o),
(149,136,cs),
(208,136,o),
(228,82,o),
(228,35,cs),
(228,-40,o),
(168,-125,o),
(99,-149,c),
(69,-107,l),
(102,-84,o),
(131,-47,o),
(140,-7,c)
);
}
);
width = 303;
}
);
unicode = 57363;
},
{
glyphname = uniE014;
layers = (
{
layerId = "8A13BB0F-AA4F-467F-8A3A-5853E02CF1B4";
shapes = (
{
closed = 1;
nodes = (
(189,455,l),
(104,455,l),
(91,707,l),
(202,707,l)
);
}
);
width = 293;
}
);
unicode = 57364;
},
{
glyphname = uniE015;
layers = (
{
layerId = "8A13BB0F-AA4F-467F-8A3A-5853E02CF1B4";
shapes = (
{
closed = 1;
nodes = (
(148,455,l),
(63,455,l),
(50,707,l),
(161,707,l)
);
},
{
closed = 1;
nodes = (
(317,455,l),
(232,455,l),
(219,707,l),
(331,707,l)
);
}
);
width = 381;
}
);
unicode = 57365;
},
{
glyphname = uniE016;
layers = (
{
layerId = "8A13BB0F-AA4F-467F-8A3A-5853E02CF1B4";
shapes = (
{
closed = 1;
nodes = (
(97,596,o),
(71,621,o),
(71,661,cs),
(71,706,o),
(105,731,o),
(146,731,cs),
(201,731,o),
(222,683,o),
(222,633,cs),
(222,561,o),
(163,477,o),
(97,456,c),
(68,496,l),
(101,519,o),
(128,554,o),
(137,593,c)
);
}
);
width = 297;
}
);
unicode = 57366;
},
{
glyphname = uniE017;
layers = (
{
layerId = "8A13BB0F-AA4F-467F-8A3A-5853E02CF1B4";
shapes = (
{
closed = 1;
nodes = (
(50,596,o),
(25,621,o),
(25,661,cs),
(25,707,o),
(57,731,o),
(100,731,cs),
(156,731,o),
(176,685,o),
(176,633,cs),
(176,561,o),
(118,477,o),
(51,456,c),
(22,496,l),
(55,519,o),
(82,554,o),
(91,593,c)
);
},
{
closed = 1;
nodes = (
(255,596,o),
(230,621,o),
(230,661,cs),
(230,707,o),
(262,731,o),
(305,731,cs),
(358,731,o),
(381,684,o),
(381,637,cs),
(381,565,o),
(323,477,o),
(256,456,c),
(227,496,l),
(260,519,o),
(287,554,o),
(296,593,c)
);
}
);
width = 404;
}
);
unicode = 57367;
},
{
glyphname = uniE018;
layers = (
{
layerId = "8A13BB0F-AA4F-467F-8A3A-5853E02CF1B4";
shapes = (
{
closed = 1;
nodes = (
(194,610,o),
(220,584,o),
(220,545,cs),
(220,500,o),
(188,475,o),
(148,475,cs),
(88,475,o),
(69,526,o),
(69,573,cs),
(69,648,o),
(129,724,o),
(194,751,c),
(223,711,l),
(190,688,o),
(163,653,o),
(154,613,c)
);
}
);
width = 298;
}
);
unicode = 57368;
},
{
glyphname = uniE019;
layers = (
{
layerId = "8A13BB0F-AA4F-467F-8A3A-5853E02CF1B4";
shapes = (
{
closed = 1;
nodes = (
(353,610,o),
(379,584,o),
(379,545,cs),
(379,500,o),
(346,475,o),
(310,475,cs),
(250,475,o),
(227,519,o),
(227,573,cs),
(227,646,o),
(285,727,o),
(353,751,c),
(382,711,l),
(349,688,o),
(321,653,o),
(312,613,c)
);
},
{
closed = 1;
nodes = (
(148,610,o),
(174,584,o),
(174,545,cs),
(174,500,o),
(141,475,o),
(104,475,cs),
(44,475,o),
(22,519,o),
(22,573,cs),
(22,646,o),
(80,727,o),
(148,751,c),
(177,711,l),
(144,688,o),
(116,653,o),
(107,613,c)
);
}
);
width = 405;
}
);
unicode = 57369;
},
{
glyphname = uniE020;
layers = (
{
layerId = "8A13BB0F-AA4F-467F-8A3A-5853E02CF1B4";
shapes = (
{
closed = 1;
nodes = (
(97,1,o),
(71,27,o),
(71,67,cs),
(71,113,o),
(104,135,o),
(146,135,cs),
(195,135,o),
(222,89,o),
(222,44,cs),
(222,-29,o),
(163,-118,o),
(97,-139,c),
(68,-100,l),
(101,-76,o),
(128,-42,o),
(137,-2,c)
);
}
);
width = 298;
}
);
unicode = 57376;
},
{
glyphname = uniE021;
layers = (
{
layerId = "8A13BB0F-AA4F-467F-8A3A-5853E02CF1B4";
shapes = (
{
closed = 1;
nodes = (
(51,1,o),
(25,27,o),
(25,67,cs),
(25,112,o),
(57,136,o),
(100,136,cs),
(151,136,o),
(176,89,o),
(176,44,cs),
(176,-29,o),
(117,-118,o),
(51,-139,c),
(22,-100,l),
(55,-76,o),
(82,-42,o),
(91,-2,c)
);
},
{
closed = 1;
nodes = (
(256,1,o),
(230,27,o),
(230,67,cs),
(230,112,o),
(262,136,o),
(305,136,cs),
(356,136,o),
(381,89,o),
(381,44,cs),
(381,-29,o),
(322,-118,o),
(256,-139,c),
(227,-100,l),
(260,-76,o),
(287,-42,o),
(296,-2,c)
);
}
);
width = 404;
}
);
unicode = 57377;
},
{
glyphname = uniE022;
layers = (
{
layerId = "8A13BB0F-AA4F-467F-8A3A-5853E02CF1B4";
shapes = (
{
closed = 1;
nodes = (
(192,593,o),
(221,563,o),
(221,519,cs),
(221,472,o),
(191,446,o),
(148,446,cs),
(104,446,o),
(75,472,o),
(75,519,cs),
(75,563,o),
(104,593,o),
(148,593,cs)
);
},
{
closed = 1;
nodes = (
(192,235,o),
(221,205,o),
(221,161,cs),
(221,116,o),
(191,88,o),
(148,88,cs),
(104,88,o),
(75,116,o),
(75,161,cs),
(75,205,o),
(104,235,o),
(148,235,cs)
);
}
);
width = 296;
}
);
unicode = 57378;
},
{
glyphname = uni1E9E;
layers = (
{
layerId = "8A13BB0F-AA4F-467F-8A3A-5853E02CF1B4";
shapes = (
{
closed = 1;
nodes = (
(82,501,ls),
(82,644,o),
(192,716,o),
(340,716,cs),
(448,716,o),
(565,660,o),
(589,553,c),
(455,388,l),
(506,367,o),
(562,342,o),
(606,309,cs),
(651,274,o),
(681,231,o),
(681,166,cs),
(681,61,o),
(605,-7,o),
(482,-7,cs),
(366,-7,o),
(284,51,o),
(273,155,c),
(385,155,l),
(392,114,o),
(431,97,o),
(482,97,cs),
(530,97,o),
(567,124,o),
(567,167,cs),
(567,228,o),
(498,270,o),
(420,299,cs),
(306,342,l),
(462,549,l),
(441,597,o),
(380,612,o),
(335,612,cs),
(260,612,o),
(198,572,o),
(198,491,cs),
(198,0,l),
(82,0,l)
);
}
);
width = 731;
}
);
unicode = 7838;
},
{
glyphname = germandbls;
kernLeft = _kern1;
layers = (
{
associatedMasterId = "8A13BB0F-AA4F-467F-8A3A-5853E02CF1B4";
layerId = "61B3C976-30D5-44EF-B8B8-D130E4272387";
name = img;
width = 640;
},
{
layerId = "8A13BB0F-AA4F-467F-8A3A-5853E02CF1B4";
shapes = (
{
closed = 1;
nodes = (
(62,556,ls),
(62,688,o),
(153,753,o),
(281,753,cs),
(377,753,o),
(484,703,o),
(484,595,cs),
(484,543,o),
(461,508,o),
(428,469,cs),
(400,437,o),
(373,410,o),
(373,381,cs),
(373,353,o),
(393,339,o),
(417,330,cs),
(505,296,ls),
(569,271,o),
(605,231,o),
(604,159,c),
(604,45,o),
(520,-7,o),
(413,-7,cs),
(310,-7,o),
(233,45,o),
(222,152,c),
(333,152,l),
(341,105,o),
(374,87,o),
(413,87,c),
(460,86,o),
(490,109,o),
(490,156,cs),
(490,193,o),
(463,211,o),
(420,227,cs),
(358,250,ls),
(302,271,o),
(263,304,o),
(263,369,cs),
(263,401,o),
(275,427,o),
(294,452,cs),
(323,492,o),
(366,529,o),
(366,580,cs),
(366,628,o),
(320,652,o),
(276,652,cs),
(216,652,o),
(176,614,o),
(176,554,cs),
(176,0,l),
(62,0,l)
);
}
);
width = 640;
}
);
unicode = 223;
},
{
glyphname = questiondown;
layers = (
{
associatedMasterId = "8A13BB0F-AA4F-467F-8A3A-5853E02CF1B4";
layerId = "61B3C976-30D5-44EF-B8B8-D130E4272387";
name = img;
width = 522;
},
{
layerId = "8A13BB0F-AA4F-467F-8A3A-5853E02CF1B4";
shapes = (
{
closed = 1;
nodes = (
(332,309,l),
(335,286,o),
(334,286,o),
(334,278,cs),
(334,220,o),
(293,173,o),
(250,135,cs),
(205,95,o),
(164,53,o),
(164,2,cs),
(164,-58,o),
(203,-85,o),
(271,-85,cs),
(322,-85,o),
(371,-63,o),
(379,-7,c),
(490,-7,l),
(485,-111,o),
(404,-189,o),
(264,-189,cs),
(152,-189,o),
(50,-138,o),
(50,-10,cs),
(50,50,o),
(73,93,o),
(112,136,cs),
(161,190,o),
(224,229,o),
(224,302,cs),
(224,309,l)
);
},
{
closed = 1;
nodes = (
(232,391,o),
(204,421,o),
(204,465,cs),
(204,508,o),
(232,536,o),
(277,536,cs),
(322,536,o),
(351,509,o),
(351,465,cs),
(351,421,o),
(322,391,o),
(277,391,cs)
);
}
);
width = 522;
}
);
unicode = 191;
},
{
glyphname = exclamdown;
layers = (
{
associatedMasterId = "8A13BB0F-AA4F-467F-8A3A-5853E02CF1B4";
layerId = "61B3C976-30D5-44EF-B8B8-D130E4272387";
name = img;
width = 290;
},
{
layerId = "8A13BB0F-AA4F-467F-8A3A-5853E02CF1B4";
shapes = (
{
closed = 1;
nodes = (
(194,303,l),
(207,-179,l),
(84,-179,l),
(97,303,l)
);
},
{
closed = 1;
nodes = (
(101,391,o),
(72,421,o),
(72,465,cs),
(72,508,o),
(102,536,o),
(145,536,cs),
(189,536,o),
(218,508,o),
(218,465,cs),
(218,421,o),
(189,391,o),
(145,391,cs)
);
}
);
width = 290;
}
);
unicode = 161;
},
{
glyphname = ordfeminine;
layers = (
{
associatedMasterId = "8A13BB0F-AA4F-467F-8A3A-5853E02CF1B4";
layerId = "61B3C976-30D5-44EF-B8B8-D130E4272387";
name = img;
width = 368;
},
{
layerId = "8A13BB0F-AA4F-467F-8A3A-5853E02CF1B4";
shapes = (
{
closed = 1;
nodes = (
(246,455,l),
(221,430,o),
(190,417,o),
(152,417,cs),
(93,417,o),
(45,450,o),
(45,513,cs),
(45,589,o),
(108,607,o),
(172,607,cs),
(242,607,l),
(242,643,o),
(224,665,o),
(181,666,cs),
(158,666,o),
(134,659,o),
(130,636,c),
(54,636,l),
(65,704,o),
(120,733,o),
(184,733,cs),
(277,733,o),
(313,674,o),
(313,587,cs),
(313,421,l),
(250,421,l)
);
},
{
closed = 1;
nodes = (
(186,550,ls),
(160,550,o),
(118,553,o),
(118,517,cs),
(118,489,o),
(142,481,o),
(166,481,cs),
(213,482,o),
(241,502,o),
(242,550,c)
);
}
);
width = 368;
}
);
unicode = 170;
},
{
glyphname = ordmasculine;
layers = (
{
associatedMasterId = "8A13BB0F-AA4F-467F-8A3A-5853E02CF1B4";
layerId = "61B3C976-30D5-44EF-B8B8-D130E4272387";
name = img;
width = 385;
},
{
layerId = "8A13BB0F-AA4F-467F-8A3A-5853E02CF1B4";
shapes = (
{
closed = 1;
nodes = (
(289,731,o),
(330,660,o),
(330,572,cs),
(330,484,o),
(288,415,o),
(192,415,cs),
(96,415,o),
(55,484,o),
(55,572,cs),
(55,660,o),
(96,731,o),
(193,731,cs)
);
},
{
closed = 1;
nodes = (
(140,663,o),
(128,616,o),
(128,573,cs),
(128,529,o),
(139,482,o),
(192,482,cs),
(245,482,o),
(256,529,o),
(256,573,cs),
(256,616,o),
(245,663,o),
(193,663,cs)
);
}
);
width = 385;
}
);
unicode = 186;
},
{
glyphname = macron;
layers = (
{
associatedMasterId = "8A13BB0F-AA4F-467F-8A3A-5853E02CF1B4";
layerId = "61B3C976-30D5-44EF-B8B8-D130E4272387";
name = img;
width = 572;
},
{
layerId = "8A13BB0F-AA4F-467F-8A3A-5853E02CF1B4";
shapes = (
{
closed = 1;
nodes = (
(455,722,l),
(455,629,l),
(117,629,l),
(117,722,l)
);
}
);
width = 572;
}
);
unicode = 175;
},
{
glyphname = paragraph;
layers = (
{
associatedMasterId = "8A13BB0F-AA4F-467F-8A3A-5853E02CF1B4";
layerId = "61B3C976-30D5-44EF-B8B8-D130E4272387";
name = img;
width = 687;
},
{
layerId = "8A13BB0F-AA4F-467F-8A3A-5853E02CF1B4";
shapes = (
{
closed = 1;
nodes = (
(657,606,l),
(566,606,l),
(566,0,l),
(455,0,l),
(455,606,l),
(366,606,l),
(366,0,l),
(255,0,l),
(255,314,l),
(245,314,l),
(112,319,o),
(30,385,o),
(30,518,cs),
(30,634,o),
(123,707,o),
(232,707,cs),
(657,707,l)
);
}
);
width = 687;
}
);
unicode = 182;
},
{
glyphname = periodcentered;
layers = (
{
associatedMasterId = "8A13BB0F-AA4F-467F-8A3A-5853E02CF1B4";
layerId = "61B3C976-30D5-44EF-B8B8-D130E4272387";
name = img;
width = 264;
},
{
layerId = "8A13BB0F-AA4F-467F-8A3A-5853E02CF1B4";
shapes = (
{
closed = 1;
nodes = (
(171,430,o),
(202,402,o),
(202,361,cs),
(202,321,o),
(172,292,o),
(131,292,cs),
(90,292,o),
(62,320,o),
(62,361,cs),
(62,402,o),
(91,430,o),
(131,430,cs)
);
}
);
width = 264;
}
);
unicode = 183;
},
{
glyphname = caron;
layers = (
{
associatedMasterId = "8A13BB0F-AA4F-467F-8A3A-5853E02CF1B4";
layerId = "61B3C976-30D5-44EF-B8B8-D130E4272387";
name = img;
width = 574;
},
{
layerId = "8A13BB0F-AA4F-467F-8A3A-5853E02CF1B4";
shapes = (
{
closed = 1;
nodes = (
(108,769,l),
(214,769,l),
(288,676,l),
(361,769,l),
(466,769,l),
(325,599,l),
(250,599,l)
);
}
);
width = 574;
}
);
unicode = 711;
},
{
glyphname = dotaccent;
layers = (
{
associatedMasterId = "8A13BB0F-AA4F-467F-8A3A-5853E02CF1B4";
layerId = "61B3C976-30D5-44EF-B8B8-D130E4272387";
name = img;
width = 380;
},
{
layerId = "8A13BB0F-AA4F-467F-8A3A-5853E02CF1B4";
shapes = (
{
closed = 1;
nodes = (
(229,735,o),
(260,705,o),
(260,666,cs),
(260,625,o),
(230,597,o),
(189,597,cs),
(148,597,o),
(120,623,o),
(120,666,cs),
(120,706,o),
(149,734,o),
(189,734,cs)
);
}
);
width = 380;
}
);
unicode = 729;
},
{
glyphname = ring;
layers = (
{
associatedMasterId = "8A13BB0F-AA4F-467F-8A3A-5853E02CF1B4";
layerId = "61B3C976-30D5-44EF-B8B8-D130E4272387";
name = img;
width = 454;
},
{
layerId = "8A13BB0F-AA4F-467F-8A3A-5853E02CF1B4";
shapes = (
{
closed = 1;
nodes = (
(291,802,o),
(334,759,o),
(334,695,cs),
(334,631,o),
(290,593,o),
(227,593,cs),
(163,593,o),
(120,631,o),
(120,695,cs),
(120,759,o),
(164,802,o),
(227,802,cs)
);
},
{
closed = 1;
nodes = (
(200,740,o),
(185,722,o),
(185,697,cs),
(185,670,o),
(200,654,o),
(227,654,cs),
(252,654,o),
(269,670,o),
(269,697,cs),
(269,722,o),
(252,740,o),
(227,740,cs)
);
}
);
width = 454;
}
);
unicode = 730;
},
{
glyphname = ogonek;
layers = (
{
associatedMasterId = "8A13BB0F-AA4F-467F-8A3A-5853E02CF1B4";
layerId = "61B3C976-30D5-44EF-B8B8-D130E4272387";
name = img;
width = 513;
},
{
layerId = "8A13BB0F-AA4F-467F-8A3A-5853E02CF1B4";
shapes = (
{
closed = 1;
nodes = (
(269,11,o),
(292,7,o),
(316,4,c),
(281,-12,o),
(240,-49,o),
(239,-90,cs),
(239,-126,o),
(263,-146,o),
(298,-146,cs),
(314,-146,o),
(329,-142,o),
(343,-135,c),
(358,-204,l),
(333,-217,o),
(309,-222,o),
(282,-222,cs),
(211,-222,o),
(155,-183,o),
(155,-107,cs),
(155,-51,o),
(196,-7,o),
(245,14,c)
);
}
);
width = 513;
}
);
unicode = 731;
},
{
glyphname = tilde;
layers = (
{
associatedMasterId = "8A13BB0F-AA4F-467F-8A3A-5853E02CF1B4";
layerId = "61B3C976-30D5-44EF-B8B8-D130E4272387";
name = img;
width = 577;
},
{
layerId = "8A13BB0F-AA4F-467F-8A3A-5853E02CF1B4";
shapes = (
{
closed = 1;
nodes = (
(112,610,l),
(112,625,o),
(111,627,o),
(114,655,c),
(122,714,o),
(155,755,o),
(220,755,cs),
(286,755,o),
(321,684,o),
(353,684,cs),
(386,684,o),
(383,727,o),
(383,749,c),
(464,749,l),
(465,736,o),
(464,725,o),
(463,714,cs),
(458,650,o),
(424,604,o),
(359,605,cs),
(324,605,o),
(299,623,o),
(277,642,cs),
(255,661,o),
(238,676,o),
(222,676,cs),
(192,676,o),
(192,632,o),
(192,610,c)
);
}
);
width = 577;
}
);
unicode = 732;
},
{
glyphname = hungarumlaut;
layers = (
{
associatedMasterId = "8A13BB0F-AA4F-467F-8A3A-5853E02CF1B4";
layerId = "61B3C976-30D5-44EF-B8B8-D130E4272387";
name = img;
width = 524;
},
{
layerId = "8A13BB0F-AA4F-467F-8A3A-5853E02CF1B4";
shapes = (
{
closed = 1;
nodes = (
(294,769,l),
(190,599,l),
(100,599,l),
(182,769,l)
);
},
{
closed = 1;
nodes = (
(474,769,l),
(360,599,l),
(268,599,l),
(362,769,l)
);
}
);
width = 524;
}
);
unicode = 733;
},
{
glyphname = gravecomb;
layers = (
{
associatedMasterId = "8A13BB0F-AA4F-467F-8A3A-5853E02CF1B4";
layerId = "61B3C976-30D5-44EF-B8B8-D130E4272387";
name = img;
width = 0;
},
{
layerId = "8A13BB0F-AA4F-467F-8A3A-5853E02CF1B4";
shapes = (
{
closed = 1;
nodes = (
(-208,606,l),
(-303,606,l),
(-420,769,l),
(-305,769,l)
);
}
);
width = 0;
}
);
unicode = 768;
},
{
glyphname = acutecomb;
layers = (
{
associatedMasterId = "8A13BB0F-AA4F-467F-8A3A-5853E02CF1B4";
layerId = "61B3C976-30D5-44EF-B8B8-D130E4272387";
name = img;
width = 0;
},
{
layerId = "8A13BB0F-AA4F-467F-8A3A-5853E02CF1B4";
shapes = (
{
closed = 1;
nodes = (
(-243,769,l),
(-128,769,l),
(-245,606,l),
(-340,606,l)
);
}
);
width = 0;
}
);
unicode = 769;
},
{
glyphname = uni0302;
layers = (
{
associatedMasterId = "8A13BB0F-AA4F-467F-8A3A-5853E02CF1B4";
layerId = "61B3C976-30D5-44EF-B8B8-D130E4272387";
name = img;
width = 0;
},
{
layerId = "8A13BB0F-AA4F-467F-8A3A-5853E02CF1B4";
shapes = (
{
closed = 1;
nodes = (
(-102,599,l),
(-208,599,l),
(-282,692,l),
(-355,599,l),
(-460,599,l),
(-319,769,l),
(-245,769,l)
);
}
);
width = 0;
}
);
unicode = 770;
},
{
glyphname = tildecomb;
layers = (
{
associatedMasterId = "8A13BB0F-AA4F-467F-8A3A-5853E02CF1B4";
layerId = "61B3C976-30D5-44EF-B8B8-D130E4272387";
name = img;
width = 0;
},
{
layerId = "8A13BB0F-AA4F-467F-8A3A-5853E02CF1B4";
shapes = (
{
closed = 1;
nodes = (
(-460,610,l),
(-460,625,o),
(-461,627,o),
(-458,655,c),
(-450,714,o),
(-417,755,o),
(-352,755,cs),
(-286,755,o),
(-251,684,o),
(-219,684,cs),
(-186,684,o),
(-189,727,o),
(-189,749,c),
(-108,749,l),
(-107,736,o),
(-108,725,o),
(-109,714,cs),
(-114,650,o),
(-148,604,o),
(-213,605,cs),
(-250,605,o),
(-274,623,o),
(-296,642,cs),
(-318,661,o),
(-334,676,o),
(-350,676,cs),
(-380,676,o),
(-380,632,o),
(-380,610,c)
);
}
);
width = 0;
}
);
unicode = 771;
},
{
glyphname = uni0304;
layers = (
{
associatedMasterId = "8A13BB0F-AA4F-467F-8A3A-5853E02CF1B4";
layerId = "61B3C976-30D5-44EF-B8B8-D130E4272387";
name = img;
width = 0;
},
{
layerId = "8A13BB0F-AA4F-467F-8A3A-5853E02CF1B4";
shapes = (
{
closed = 1;
nodes = (
(-112,722,l),
(-112,629,l),
(-450,629,l),
(-450,722,l)
);
}
);
width = 0;
}
);
unicode = 772;
},
{
glyphname = uni0306;
layers = (
{
associatedMasterId = "8A13BB0F-AA4F-467F-8A3A-5853E02CF1B4";
layerId = "61B3C976-30D5-44EF-B8B8-D130E4272387";
name = img;
width = 0;
},
{
layerId = "8A13BB0F-AA4F-467F-8A3A-5853E02CF1B4";
shapes = (
{
closed = 1;
nodes = (
(-361,743,l),
(-358,692,o),
(-323,675,o),
(-276,675,cs),
(-229,675,o),
(-194,692,o),
(-191,743,c),
(-97,743,l),
(-100,636,o),
(-179,595,o),
(-277,595,cs),
(-376,595,o),
(-452,635,o),
(-455,743,c)
);
}
);
width = 0;
}
);
unicode = 774;
},
{
glyphname = uni0307;
layers = (
{
associatedMasterId = "8A13BB0F-AA4F-467F-8A3A-5853E02CF1B4";
layerId = "61B3C976-30D5-44EF-B8B8-D130E4272387";
name = img;
width = 0;
},
{
layerId = "8A13BB0F-AA4F-467F-8A3A-5853E02CF1B4";
shapes = (
{
closed = 1;
nodes = (
(-241,735,o),
(-210,705,o),
(-210,666,cs),
(-210,625,o),
(-240,597,o),
(-281,597,cs),
(-322,597,o),
(-350,623,o),
(-350,666,cs),
(-350,706,o),
(-321,734,o),
(-281,734,cs)
);
}
);
width = 0;
}
);
unicode = 775;
},
{
glyphname = uni0308;
layers = (
{
associatedMasterId = "8A13BB0F-AA4F-467F-8A3A-5853E02CF1B4";
layerId = "61B3C976-30D5-44EF-B8B8-D130E4272387";
name = img;
width = 0;
},
{
layerId = "8A13BB0F-AA4F-467F-8A3A-5853E02CF1B4";
shapes = (
{
closed = 1;
nodes = (
(-114,735,o),
(-83,705,o),
(-83,666,cs),
(-83,625,o),
(-113,597,o),
(-154,597,cs),
(-195,597,o),
(-223,623,o),
(-223,666,cs),
(-223,706,o),
(-194,734,o),
(-154,734,cs)
);
},
{
closed = 1;
nodes = (
(-356,735,o),
(-325,705,o),
(-325,666,cs),
(-325,625,o),
(-355,597,o),
(-396,597,cs),
(-437,597,o),
(-465,623,o),
(-465,666,cs),
(-465,706,o),
(-436,734,o),
(-396,734,cs)
);
}
);
width = 0;
}
);
unicode = 776;
},
{
glyphname = uni030A;
layers = (
{
associatedMasterId = "8A13BB0F-AA4F-467F-8A3A-5853E02CF1B4";
layerId = "61B3C976-30D5-44EF-B8B8-D130E4272387";
name = img;
width = 0;
},
{
layerId = "8A13BB0F-AA4F-467F-8A3A-5853E02CF1B4";
shapes = (
{
closed = 1;
nodes = (
(-214,802,o),
(-171,759,o),
(-171,695,cs),
(-171,631,o),
(-215,593,o),
(-278,593,cs),
(-342,593,o),
(-385,631,o),
(-385,695,cs),
(-385,759,o),
(-341,802,o),
(-278,802,cs)
);
},
{
closed = 1;
nodes = (
(-305,740,o),
(-320,722,o),
(-320,697,cs),
(-320,670,o),
(-305,654,o),
(-278,654,cs),
(-253,654,o),
(-236,670,o),
(-236,697,cs),
(-236,722,o),
(-253,740,o),
(-278,740,cs)
);
}
);
width = 0;
}
);
unicode = 778;
},
{
glyphname = uni030B;
layers = (
{
associatedMasterId = "8A13BB0F-AA4F-467F-8A3A-5853E02CF1B4";
layerId = "61B3C976-30D5-44EF-B8B8-D130E4272387";
name = img;
width = 0;
},
{
layerId = "8A13BB0F-AA4F-467F-8A3A-5853E02CF1B4";
shapes = (
{
closed = 1;
nodes = (
(-226,769,l),
(-330,599,l),
(-420,599,l),
(-338,769,l)
);
},
{
closed = 1;
nodes = (
(-46,769,l),
(-160,599,l),
(-252,599,l),
(-158,769,l)
);
}
);
width = 0;
}
);
unicode = 779;
},
{
glyphname = uni030C;
layers = (
{
associatedMasterId = "8A13BB0F-AA4F-467F-8A3A-5853E02CF1B4";
layerId = "61B3C976-30D5-44EF-B8B8-D130E4272387";
name = img;
width = 0;
},
{
layerId = "8A13BB0F-AA4F-467F-8A3A-5853E02CF1B4";
shapes = (
{
closed = 1;
nodes = (
(-460,769,l),
(-354,769,l),
(-280,676,l),
(-207,769,l),
(-102,769,l),
(-243,599,l),
(-318,599,l)
);
}
);
width = 0;
}
);
unicode = 780;
},
{
glyphname = dieresis;
layers = (
{
layerId = "8A13BB0F-AA4F-467F-8A3A-5853E02CF1B4";
shapes = (
{
closed = 1;
nodes = (
(463,735,o),
(494,705,o),
(494,666,cs),
(494,625,o),
(464,597,o),
(423,597,cs),
(382,597,o),
(354,623,o),
(354,666,cs),
(354,706,o),
(383,734,o),
(423,734,cs)
);
},
{
closed = 1;
nodes = (
(221,735,o),
(252,705,o),
(252,666,cs),
(252,625,o),
(222,597,o),
(181,597,cs),
(140,597,o),
(112,623,o),
(112,666,cs),
(112,706,o),
(141,734,o),
(181,734,cs)
);
}
);
width = 606;
}
);
unicode = 168;
},
{
glyphname = uni0312;
layers = (
{
associatedMasterId = "8A13BB0F-AA4F-467F-8A3A-5853E02CF1B4";
layerId = "61B3C976-30D5-44EF-B8B8-D130E4272387";
name = img;
width = 0;
},
{
layerId = "8A13BB0F-AA4F-467F-8A3A-5853E02CF1B4";
shapes = (
{
closed = 1;
nodes = (
(-233,726,o),
(-209,701,o),
(-209,664,cs),
(-209,621,o),
(-237,597,o),
(-276,597,cs),
(-331,597,o),
(-351,641,o),
(-350,687,cs),
(-348,764,o),
(-297,831,o),
(-233,860,c),
(-206,822,l),
(-237,801,o),
(-262,767,o),
(-270,728,c)
);
}
);
width = 0;
}
);
unicode = 786;
},
{
glyphname = uni0327;
layers = (
{
associatedMasterId = "8A13BB0F-AA4F-467F-8A3A-5853E02CF1B4";
layerId = "61B3C976-30D5-44EF-B8B8-D130E4272387";
name = img;
width = 0;
},
{
layerId = "8A13BB0F-AA4F-467F-8A3A-5853E02CF1B4";
shapes = (
{
closed = 1;
nodes = (
(-261,16,l),
(-278,-50,l),
(-269,-49,o),
(-265,-49,o),
(-258,-49,cs),
(-207,-49,o),
(-173,-77,o),
(-173,-133,cs),
(-173,-222,o),
(-249,-255,o),
(-321,-255,cs),
(-336,-255,o),
(-352,-254,o),
(-370,-252,c),
(-369,-185,l),
(-358,-186,o),
(-348,-187,o),
(-337,-187,cs),
(-289,-187,o),
(-259,-174,o),
(-259,-143,cs),
(-259,-118,o),
(-278,-108,o),
(-314,-108,cs),
(-333,-108,o),
(-353,-109,o),
(-368,-112,c),
(-335,16,l)
);
}
);
width = 0;
}
);
unicode = 807;
},
{
glyphname = uni0328;
layers = (
{
associatedMasterId = "8A13BB0F-AA4F-467F-8A3A-5853E02CF1B4";
layerId = "61B3C976-30D5-44EF-B8B8-D130E4272387";
name = img;
width = -135;
},
{
layerId = "8A13BB0F-AA4F-467F-8A3A-5853E02CF1B4";
shapes = (
{
closed = 1;
nodes = (
(-106,11,o),
(-83,7,o),
(-59,4,c),
(-94,-12,o),
(-135,-49,o),
(-136,-90,cs),
(-136,-126,o),
(-112,-146,o),
(-77,-146,cs),
(-61,-146,o),
(-46,-142,o),
(-32,-135,c),
(-17,-204,l),
(-42,-217,o),
(-66,-222,o),
(-93,-222,cs),
(-164,-222,o),
(-220,-183,o),
(-220,-107,cs),
(-220,-51,o),
(-179,-7,o),
(-130,14,c)
);
}
);
width = 0;
}
);
unicode = 808;
},
{
glyphname = Agrave;
kernLeft = _kern30;
kernRight = _kern30;
layers = (
{
associatedMasterId = "8A13BB0F-AA4F-467F-8A3A-5853E02CF1B4";
layerId = "61B3C976-30D5-44EF-B8B8-D130E4272387";
name = img;
width = 689;
},
{
layerId = "8A13BB0F-AA4F-467F-8A3A-5853E02CF1B4";
shapes = (
{
closed = 1;
nodes = (
(557,0,l),
(505,143,l),
(184,143,l),
(131,0,l),
(5,0,l),
(273,707,l),
(417,707,l),
(684,0,l)
);
},
{
closed = 1;
nodes = (
(469,247,l),
(345,593,l),
(220,247,l)
);
},
{
closed = 1;
nodes = (
(420,786,l),
(325,786,l),
(208,949,l),
(323,949,l)
);
}
);
width = 689;
}
);
unicode = 192;
},
{
glyphname = Aacute;
kernLeft = _kern30;
kernRight = _kern30;
layers = (
{
associatedMasterId = "8A13BB0F-AA4F-467F-8A3A-5853E02CF1B4";
layerId = "61B3C976-30D5-44EF-B8B8-D130E4272387";
name = img;
width = 689;
},
{
layerId = "8A13BB0F-AA4F-467F-8A3A-5853E02CF1B4";
shapes = (
{
closed = 1;
nodes = (
(557,0,l),
(505,143,l),
(184,143,l),
(131,0,l),
(5,0,l),
(273,707,l),
(417,707,l),
(684,0,l)
);
},
{
closed = 1;
nodes = (
(469,247,l),
(345,593,l),
(220,247,l)
);
},
{
closed = 1;
nodes = (
(375,949,l),
(490,949,l),
(373,786,l),
(278,786,l)
);
}
);
width = 689;
}
);
unicode = 193;
},
{
glyphname = Acircumflex;
kernLeft = _kern30;
kernRight = _kern30;
layers = (
{
associatedMasterId = "8A13BB0F-AA4F-467F-8A3A-5853E02CF1B4";
layerId = "61B3C976-30D5-44EF-B8B8-D130E4272387";
name = img;
width = 689;
},
{
layerId = "8A13BB0F-AA4F-467F-8A3A-5853E02CF1B4";
shapes = (
{
closed = 1;
nodes = (
(557,0,l),
(505,143,l),
(184,143,l),
(131,0,l),
(5,0,l),
(273,707,l),
(417,707,l),
(684,0,l)
);
},
{
closed = 1;
nodes = (
(469,247,l),
(345,593,l),
(220,247,l)
);
},
{
closed = 1;
nodes = (
(530,779,l),
(424,779,l),
(350,872,l),
(277,779,l),
(172,779,l),
(313,949,l),
(387,949,l)
);
}
);
width = 689;
}
);
unicode = 194;
},
{
glyphname = Atilde;
kernLeft = _kern30;
kernRight = _kern30;
layers = (
{
associatedMasterId = "8A13BB0F-AA4F-467F-8A3A-5853E02CF1B4";
layerId = "61B3C976-30D5-44EF-B8B8-D130E4272387";
name = img;
width = 689;
},
{
layerId = "8A13BB0F-AA4F-467F-8A3A-5853E02CF1B4";
shapes = (
{
closed = 1;
nodes = (
(557,0,l),
(505,143,l),
(184,143,l),
(131,0,l),
(5,0,l),
(273,707,l),
(417,707,l),
(684,0,l)
);
},
{
closed = 1;
nodes = (
(469,247,l),
(345,593,l),
(220,247,l)
);
},
{
closed = 1;
nodes = (
(178,790,l),
(178,805,o),
(176,807,o),
(180,835,cs),
(187,894,o),
(221,935,o),
(286,935,cs),
(352,935,o),
(387,864,o),
(419,864,cs),
(452,864,o),
(449,907,o),
(449,929,c),
(530,929,l),
(531,916,o),
(530,905,o),
(529,894,cs),
(524,830,o),
(490,784,o),
(425,785,cs),
(390,785,o),
(365,803,o),
(343,822,cs),
(321,841,o),
(304,856,o),
(288,856,cs),
(258,856,o),
(258,812,o),
(258,790,c)
);
}
);
width = 689;
}
);
unicode = 195;
},
{
glyphname = Adieresis;
kernLeft = _kern30;
kernRight = _kern30;
layers = (
{
associatedMasterId = "8A13BB0F-AA4F-467F-8A3A-5853E02CF1B4";
layerId = "61B3C976-30D5-44EF-B8B8-D130E4272387";
name = img;
width = 689;
},
{
layerId = "8A13BB0F-AA4F-467F-8A3A-5853E02CF1B4";
shapes = (
{
closed = 1;
nodes = (
(557,0,l),
(505,143,l),
(184,143,l),
(131,0,l),
(5,0,l),
(273,707,l),
(417,707,l),
(684,0,l)
);
},
{
closed = 1;
nodes = (
(469,247,l),
(345,593,l),
(220,247,l)
);
},
{
closed = 1;
nodes = (
(510,915,o),
(541,885,o),
(541,846,cs),
(541,805,o),
(511,777,o),
(470,777,cs),
(429,777,o),
(401,803,o),
(401,846,cs),
(401,886,o),
(430,914,o),
(470,914,cs)
);
},
{
closed = 1;
nodes = (
(268,915,o),
(299,885,o),
(299,846,cs),
(299,805,o),
(269,777,o),
(228,777,cs),
(187,777,o),
(159,803,o),
(159,846,cs),
(159,886,o),
(188,914,o),
(228,914,cs)
);
}
);
width = 689;
}
);
unicode = 196;
},
{
glyphname = Aring;
kernLeft = _kern30;
kernRight = _kern30;
layers = (
{
associatedMasterId = "8A13BB0F-AA4F-467F-8A3A-5853E02CF1B4";
layerId = "61B3C976-30D5-44EF-B8B8-D130E4272387";
name = img;
width = 689;
},
{
layerId = "8A13BB0F-AA4F-467F-8A3A-5853E02CF1B4";
shapes = (
{
closed = 1;
nodes = (
(557,0,l),
(505,143,l),
(184,143,l),
(131,0,l),
(5,0,l),
(273,707,l),
(417,707,l),
(684,0,l)
);
},
{
closed = 1;
nodes = (
(469,247,l),
(345,593,l),
(220,247,l)
);
},
{
closed = 1;
nodes = (
(409,966,o),
(452,923,o),
(452,859,cs),
(452,795,o),
(408,757,o),
(345,757,cs),
(281,757,o),
(238,795,o),
(238,859,cs),
(238,923,o),
(282,966,o),
(345,966,cs)
);
},
{
closed = 1;
nodes = (
(318,904,o),
(303,886,o),
(303,861,cs),
(303,834,o),
(318,818,o),
(345,818,cs),
(370,818,o),
(387,834,o),
(387,861,cs),
(387,886,o),
(370,904,o),
(345,904,cs)
);
}
);
width = 689;
}
);
unicode = 197;
},
{
glyphname = Egrave;
layers = (
{
associatedMasterId = "8A13BB0F-AA4F-467F-8A3A-5853E02CF1B4";
layerId = "61B3C976-30D5-44EF-B8B8-D130E4272387";
name = img;
width = 616;
},
{
layerId = "8A13BB0F-AA4F-467F-8A3A-5853E02CF1B4";
shapes = (
{
closed = 1;
nodes = (
(82,707,l),
(573,707,l),
(573,603,l),
(198,603,l),
(198,402,l),
(530,402,l),
(530,297,l),
(198,297,l),
(198,103,l),
(573,103,l),
(573,0,l),
(82,0,l)
);
},
{
closed = 1;
nodes = (
(404,786,l),
(309,786,l),
(192,949,l),
(307,949,l)
);
}
);
width = 616;
}
);
unicode = 200;
},
{
glyphname = Eacute;
layers = (
{
associatedMasterId = "8A13BB0F-AA4F-467F-8A3A-5853E02CF1B4";
layerId = "61B3C976-30D5-44EF-B8B8-D130E4272387";
name = img;
width = 616;
},
{
layerId = "8A13BB0F-AA4F-467F-8A3A-5853E02CF1B4";
shapes = (
{
closed = 1;
nodes = (
(82,707,l),
(573,707,l),
(573,603,l),
(198,603,l),
(198,402,l),
(530,402,l),
(530,297,l),
(198,297,l),
(198,103,l),
(573,103,l),
(573,0,l),
(82,0,l)
);
},
{
closed = 1;
nodes = (
(359,949,l),
(474,949,l),
(357,786,l),
(262,786,l)
);
}
);
width = 616;
}
);
unicode = 201;
},
{
glyphname = Ecircumflex;
layers = (
{
associatedMasterId = "8A13BB0F-AA4F-467F-8A3A-5853E02CF1B4";
layerId = "61B3C976-30D5-44EF-B8B8-D130E4272387";
name = img;
width = 616;
},
{
layerId = "8A13BB0F-AA4F-467F-8A3A-5853E02CF1B4";
shapes = (
{
closed = 1;
nodes = (
(82,707,l),
(573,707,l),
(573,603,l),
(198,603,l),
(198,402,l),
(530,402,l),
(530,297,l),
(198,297,l),
(198,103,l),
(573,103,l),
(573,0,l),
(82,0,l)
);
},
{
closed = 1;
nodes = (
(507,779,l),
(401,779,l),
(327,872,l),
(254,779,l),
(149,779,l),
(290,949,l),
(364,949,l)
);
}
);
width = 616;
}
);
unicode = 202;
},
{
glyphname = Edieresis;
layers = (
{
associatedMasterId = "8A13BB0F-AA4F-467F-8A3A-5853E02CF1B4";
layerId = "61B3C976-30D5-44EF-B8B8-D130E4272387";
name = img;
width = 616;
},
{
layerId = "8A13BB0F-AA4F-467F-8A3A-5853E02CF1B4";
shapes = (
{
closed = 1;
nodes = (
(82,707,l),
(573,707,l),
(573,603,l),
(198,603,l),
(198,402,l),
(530,402,l),
(530,297,l),
(198,297,l),
(198,103,l),
(573,103,l),
(573,0,l),
(82,0,l)
);
},
{
closed = 1;
nodes = (
(492,915,o),
(523,885,o),
(523,846,cs),
(523,805,o),
(493,777,o),
(452,777,cs),
(411,777,o),
(383,803,o),
(383,846,cs),
(383,886,o),
(412,914,o),
(452,914,cs)
);
},
{
closed = 1;
nodes = (
(250,915,o),
(281,885,o),
(281,846,cs),
(281,805,o),
(251,777,o),
(210,777,cs),
(169,777,o),
(141,803,o),
(141,846,cs),
(141,886,o),
(170,914,o),
(210,914,cs)
);
}
);
width = 616;
}
);
unicode = 203;
},
{
glyphname = Igrave;
kernLeft = _kern1;
kernRight = _kern2;
layers = (
{
associatedMasterId = "8A13BB0F-AA4F-467F-8A3A-5853E02CF1B4";
layerId = "61B3C976-30D5-44EF-B8B8-D130E4272387";
name = img;
width = 280;
},
{
layerId = "8A13BB0F-AA4F-467F-8A3A-5853E02CF1B4";
shapes = (
{
closed = 1;
nodes = (
(198,0,l),
(82,0,l),
(82,707,l),
(198,707,l)
);
},
{
closed = 1;
nodes = (
(206,786,l),
(111,786,l),
(-6,949,l),
(109,949,l)
);
}
);
width = 280;
}
);
unicode = 204;
},
{
glyphname = Iacute;
kernLeft = _kern1;
kernRight = _kern2;
layers = (
{
associatedMasterId = "8A13BB0F-AA4F-467F-8A3A-5853E02CF1B4";
layerId = "61B3C976-30D5-44EF-B8B8-D130E4272387";
name = img;
width = 280;
},
{
layerId = "8A13BB0F-AA4F-467F-8A3A-5853E02CF1B4";
shapes = (
{
closed = 1;
nodes = (
(198,0,l),
(82,0,l),
(82,707,l),
(198,707,l)
);
},
{
closed = 1;
nodes = (
(173,949,l),
(288,949,l),
(171,786,l),
(76,786,l)
);
}
);
width = 280;
}
);
unicode = 205;
},
{
glyphname = Icircumflex;
kernLeft = _kern1;
kernRight = _kern2;
layers = (
{
associatedMasterId = "8A13BB0F-AA4F-467F-8A3A-5853E02CF1B4";
layerId = "61B3C976-30D5-44EF-B8B8-D130E4272387";
name = img;
width = 280;
},
{
layerId = "8A13BB0F-AA4F-467F-8A3A-5853E02CF1B4";
shapes = (
{
closed = 1;
nodes = (
(198,0,l),
(82,0,l),
(82,707,l),
(198,707,l)
);
},
{
closed = 1;
nodes = (
(319,779,l),
(213,779,l),
(139,872,l),
(66,779,l),
(-39,779,l),
(102,949,l),
(176,949,l)
);
}
);
width = 280;
}
);
unicode = 206;
},
{
glyphname = Idieresis;
kernLeft = _kern1;
kernRight = _kern2;
layers = (
{
associatedMasterId = "8A13BB0F-AA4F-467F-8A3A-5853E02CF1B4";
layerId = "61B3C976-30D5-44EF-B8B8-D130E4272387";
name = img;
width = 280;
},
{
layerId = "8A13BB0F-AA4F-467F-8A3A-5853E02CF1B4";
shapes = (
{
closed = 1;
nodes = (
(198,0,l),
(82,0,l),
(82,707,l),
(198,707,l)
);
},
{
closed = 1;
nodes = (
(290,915,o),
(321,885,o),
(321,846,cs),
(321,805,o),
(291,777,o),
(250,777,cs),
(209,777,o),
(181,803,o),
(181,846,cs),
(181,886,o),
(210,914,o),
(250,914,cs)
);
},
{
closed = 1;
nodes = (
(68,915,o),
(99,885,o),
(99,846,cs),
(99,805,o),
(69,777,o),
(28,777,cs),
(-13,777,o),
(-41,803,o),
(-41,846,cs),
(-41,886,o),
(-12,914,o),
(28,914,cs)
);
}
);
width = 280;
}
);
unicode = 207;
},
{
glyphname = Ntilde;
kernLeft = _kern1;
kernRight = _kern2;
layers = (
{
associatedMasterId = "8A13BB0F-AA4F-467F-8A3A-5853E02CF1B4";
layerId = "61B3C976-30D5-44EF-B8B8-D130E4272387";
name = img;
width = 756;
},
{
layerId = "8A13BB0F-AA4F-467F-8A3A-5853E02CF1B4";
shapes = (
{
closed = 1;
nodes = (
(82,0,l),
(82,707,l),
(207,707,l),
(559,176,l),
(559,707,l),
(674,707,l),
(674,0,l),
(550,0,l),
(196,529,l),
(196,0,l)
);
},
{
closed = 1;
nodes = (
(211,790,l),
(211,805,o),
(209,807,o),
(213,835,cs),
(220,894,o),
(254,935,o),
(319,935,cs),
(385,935,o),
(420,864,o),
(452,864,cs),
(485,864,o),
(482,907,o),
(482,929,c),
(563,929,l),
(564,916,o),
(563,905,o),
(562,894,cs),
(557,830,o),
(523,784,o),
(458,785,cs),
(423,785,o),
(398,803,o),
(376,822,cs),
(354,841,o),
(337,856,o),
(321,856,cs),
(291,856,o),
(291,812,o),
(291,790,c)
);
}
);
width = 756;
}
);
unicode = 209;
},
{
glyphname = Ograve;
kernLeft = _kern3;
kernRight = _kern4;
layers = (
{
associatedMasterId = "8A13BB0F-AA4F-467F-8A3A-5853E02CF1B4";
layerId = "61B3C976-30D5-44EF-B8B8-D130E4272387";
name = img;
width = 769;
},
{
layerId = "8A13BB0F-AA4F-467F-8A3A-5853E02CF1B4";
shapes = (
{
closed = 1;
nodes = (
(164,-7,o),
(43,147,o),
(43,354,cs),
(43,565,o),
(167,716,o),
(385,716,cs),
(604,716,o),
(726,567,o),
(726,355,cs),
(726,147,o),
(604,-7,o),
(384,-7,cs)
);
},
{
closed = 1;
nodes = (
(234,612,o),
(162,492,o),
(162,355,cs),
(162,219,o),
(233,97,o),
(385,97,cs),
(535,97,o),
(607,214,o),
(607,354,cs),
(607,492,o),
(536,612,o),
(385,612,cs)
);
},
{
closed = 1;
nodes = (
(450,786,l),
(355,786,l),
(238,949,l),
(353,949,l)
);
}
);
width = 769;
}
);
unicode = 210;
},
{
glyphname = Oacute;
kernLeft = _kern3;
kernRight = _kern4;
layers = (
{
associatedMasterId = "8A13BB0F-AA4F-467F-8A3A-5853E02CF1B4";
layerId = "61B3C976-30D5-44EF-B8B8-D130E4272387";
name = img;
width = 769;
},
{
layerId = "8A13BB0F-AA4F-467F-8A3A-5853E02CF1B4";
shapes = (
{
closed = 1;
nodes = (
(164,-7,o),
(43,147,o),
(43,354,cs),
(43,565,o),
(167,716,o),
(385,716,cs),
(604,716,o),
(726,567,o),
(726,355,cs),
(726,147,o),
(604,-7,o),
(384,-7,cs)
);
},
{
closed = 1;
nodes = (
(234,612,o),
(162,492,o),
(162,355,cs),
(162,219,o),
(233,97,o),
(385,97,cs),
(535,97,o),
(607,214,o),
(607,354,cs),
(607,492,o),
(536,612,o),
(385,612,cs)
);
},
{
closed = 1;
nodes = (
(415,949,l),
(530,949,l),
(413,786,l),
(318,786,l)
);
}
);
width = 769;
}
);
unicode = 211;
},
{
glyphname = Ocircumflex;
kernLeft = _kern3;
kernRight = _kern4;
layers = (
{
associatedMasterId = "8A13BB0F-AA4F-467F-8A3A-5853E02CF1B4";
layerId = "61B3C976-30D5-44EF-B8B8-D130E4272387";
name = img;
width = 769;
},
{
layerId = "8A13BB0F-AA4F-467F-8A3A-5853E02CF1B4";
shapes = (
{
closed = 1;
nodes = (
(164,-7,o),
(43,147,o),
(43,354,cs),
(43,565,o),
(167,716,o),
(385,716,cs),
(604,716,o),
(726,567,o),
(726,355,cs),
(726,147,o),
(604,-7,o),
(384,-7,cs)
);
},
{
closed = 1;
nodes = (
(234,612,o),
(162,492,o),
(162,355,cs),
(162,219,o),
(233,97,o),
(385,97,cs),
(535,97,o),
(607,214,o),
(607,354,cs),
(607,492,o),
(536,612,o),
(385,612,cs)
);
},
{
closed = 1;
nodes = (
(570,779,l),
(464,779,l),
(390,872,l),
(317,779,l),
(212,779,l),
(353,949,l),
(427,949,l)
);
}
);
width = 769;
}
);
unicode = 212;
},
{
glyphname = Otilde;
kernLeft = _kern3;
kernRight = _kern4;
layers = (
{
associatedMasterId = "8A13BB0F-AA4F-467F-8A3A-5853E02CF1B4";
layerId = "61B3C976-30D5-44EF-B8B8-D130E4272387";
name = img;
width = 769;
},
{
layerId = "8A13BB0F-AA4F-467F-8A3A-5853E02CF1B4";
shapes = (
{
closed = 1;
nodes = (
(164,-7,o),
(43,147,o),
(43,354,cs),
(43,565,o),
(167,716,o),
(385,716,cs),
(604,716,o),
(726,567,o),
(726,355,cs),
(726,147,o),
(604,-7,o),
(384,-7,cs)
);
},
{
closed = 1;
nodes = (
(234,612,o),
(162,492,o),
(162,355,cs),
(162,219,o),
(233,97,o),
(385,97,cs),
(535,97,o),
(607,214,o),
(607,354,cs),
(607,492,o),
(536,612,o),
(385,612,cs)
);
},
{
closed = 1;
nodes = (
(211,790,l),
(211,805,o),
(209,807,o),
(213,835,cs),
(220,894,o),
(254,935,o),
(319,935,cs),
(385,935,o),
(420,864,o),
(452,864,cs),
(485,864,o),
(482,907,o),
(482,929,c),
(563,929,l),
(564,916,o),
(563,905,o),
(562,894,cs),
(557,830,o),
(523,784,o),
(458,785,cs),
(423,785,o),
(398,803,o),
(376,822,cs),
(354,841,o),
(337,856,o),
(321,856,cs),
(291,856,o),
(291,812,o),
(291,790,c)
);
}
);
width = 769;
}
);
unicode = 213;
},
{
glyphname = Odieresis;
kernLeft = _kern3;
kernRight = _kern4;
layers = (
{
associatedMasterId = "8A13BB0F-AA4F-467F-8A3A-5853E02CF1B4";
layerId = "61B3C976-30D5-44EF-B8B8-D130E4272387";
name = img;
width = 769;
},
{
layerId = "8A13BB0F-AA4F-467F-8A3A-5853E02CF1B4";
shapes = (
{
closed = 1;
nodes = (
(164,-7,o),
(43,147,o),
(43,354,cs),
(43,565,o),
(167,716,o),
(385,716,cs),
(604,716,o),
(726,567,o),
(726,355,cs),
(726,147,o),
(604,-7,o),
(384,-7,cs)
);
},
{
closed = 1;
nodes = (
(234,612,o),
(162,492,o),
(162,355,cs),
(162,219,o),
(233,97,o),
(385,97,cs),
(535,97,o),
(607,214,o),
(607,354,cs),
(607,492,o),
(536,612,o),
(385,612,cs)
);
},
{
closed = 1;
nodes = (
(550,915,o),
(581,885,o),
(581,846,cs),
(581,805,o),
(551,777,o),
(510,777,cs),
(469,777,o),
(441,803,o),
(441,846,cs),
(441,886,o),
(470,914,o),
(510,914,cs)
);
},
{
closed = 1;
nodes = (
(308,915,o),
(339,885,o),
(339,846,cs),
(339,805,o),
(309,777,o),
(268,777,cs),
(227,777,o),
(199,803,o),
(199,846,cs),
(199,886,o),
(228,914,o),
(268,914,cs)
);
}
);
width = 769;
}
);
unicode = 214;
},
{
glyphname = Ugrave;
kernLeft = _kern1;
kernRight = _kern2;
layers = (
{
associatedMasterId = "8A13BB0F-AA4F-467F-8A3A-5853E02CF1B4";
layerId = "61B3C976-30D5-44EF-B8B8-D130E4272387";
name = img;
width = 741;
},
{
layerId = "8A13BB0F-AA4F-467F-8A3A-5853E02CF1B4";
shapes = (
{
closed = 1;
nodes = (
(664,707,l),
(664,316,ls),
(664,127,o),
(581,-8,o),
(371,-8,cs),
(161,-8,o),
(77,125,o),
(77,316,cs),
(77,707,l),
(193,707,l),
(193,312,ls),
(193,196,o),
(237,96,o),
(372,96,cs),
(506,96,o),
(548,197,o),
(548,312,cs),
(548,707,l)
);
},
{
closed = 1;
nodes = (
(439,786,l),
(344,786,l),
(227,949,l),
(342,949,l)
);
}
);
width = 741;
}
);
unicode = 217;
},
{
glyphname = Uacute;
kernLeft = _kern1;
kernRight = _kern2;
layers = (
{
associatedMasterId = "8A13BB0F-AA4F-467F-8A3A-5853E02CF1B4";
layerId = "61B3C976-30D5-44EF-B8B8-D130E4272387";
name = img;
width = 741;
},
{
layerId = "8A13BB0F-AA4F-467F-8A3A-5853E02CF1B4";
shapes = (
{
closed = 1;
nodes = (
(664,707,l),
(664,316,ls),
(664,127,o),
(581,-8,o),
(371,-8,cs),
(161,-8,o),
(77,125,o),
(77,316,cs),
(77,707,l),
(193,707,l),
(193,312,ls),
(193,196,o),
(237,96,o),
(372,96,cs),
(506,96,o),
(548,197,o),
(548,312,cs),
(548,707,l)
);
},
{
closed = 1;
nodes = (
(401,949,l),
(516,949,l),
(399,786,l),
(304,786,l)
);
}
);
width = 741;
}
);
unicode = 218;
},
{
glyphname = Ucircumflex;
kernLeft = _kern1;
kernRight = _kern2;
layers = (
{
associatedMasterId = "8A13BB0F-AA4F-467F-8A3A-5853E02CF1B4";
layerId = "61B3C976-30D5-44EF-B8B8-D130E4272387";
name = img;
width = 741;
},
{
layerId = "8A13BB0F-AA4F-467F-8A3A-5853E02CF1B4";
shapes = (
{
closed = 1;
nodes = (
(664,707,l),
(664,316,ls),
(664,127,o),
(581,-8,o),
(371,-8,cs),
(161,-8,o),
(77,125,o),
(77,316,cs),
(77,707,l),
(193,707,l),
(193,312,ls),
(193,196,o),
(237,96,o),
(372,96,cs),
(506,96,o),
(548,197,o),
(548,312,cs),
(548,707,l)
);
},
{
closed = 1;
nodes = (
(551,779,l),
(445,779,l),
(371,872,l),
(298,779,l),
(193,779,l),
(334,949,l),
(408,949,l)
);
}
);
width = 741;
}
);
unicode = 219;
},
{
glyphname = Udieresis;
kernLeft = _kern1;
kernRight = _kern2;
layers = (
{
associatedMasterId = "8A13BB0F-AA4F-467F-8A3A-5853E02CF1B4";
layerId = "61B3C976-30D5-44EF-B8B8-D130E4272387";
name = img;
width = 741;
},
{
layerId = "8A13BB0F-AA4F-467F-8A3A-5853E02CF1B4";
shapes = (
{
closed = 1;
nodes = (
(664,707,l),
(664,316,ls),
(664,127,o),
(581,-8,o),
(371,-8,cs),
(161,-8,o),
(77,125,o),
(77,316,cs),
(77,707,l),
(193,707,l),
(193,312,ls),
(193,196,o),
(237,96,o),
(372,96,cs),
(506,96,o),
(548,197,o),
(548,312,cs),
(548,707,l)
);
},
{
closed = 1;
nodes = (
(531,915,o),
(562,885,o),
(562,846,cs),
(562,805,o),
(532,777,o),
(491,777,cs),
(450,777,o),
(422,803,o),
(422,846,cs),
(422,886,o),
(451,914,o),
(491,914,cs)
);
},
{
closed = 1;
nodes = (
(289,915,o),
(320,885,o),
(320,846,cs),
(320,805,o),
(290,777,o),
(249,777,cs),
(208,777,o),
(180,803,o),
(180,846,cs),
(180,886,o),
(209,914,o),
(249,914,cs)
);
}
);
width = 741;
}
);
unicode = 220;
},
{
glyphname = Yacute;
kernLeft = _kern31;
kernRight = _kern31;
layers = (
{
associatedMasterId = "8A13BB0F-AA4F-467F-8A3A-5853E02CF1B4";
layerId = "61B3C976-30D5-44EF-B8B8-D130E4272387";
name = img;
width = 647;
},
{
layerId = "8A13BB0F-AA4F-467F-8A3A-5853E02CF1B4";
shapes = (
{
closed = 1;
nodes = (
(507,707,l),
(638,707,l),
(383,265,l),
(383,0,l),
(267,0,l),
(267,264,l),
(9,707,l),
(143,707,l),
(326,377,l)
);
},
{
closed = 1;
nodes = (
(364,949,l),
(479,949,l),
(362,786,l),
(267,786,l)
);
}
);
width = 647;
}
);
unicode = 221;
},
